<svg width="24" height="24" viewBox="0 0 24 24" fill="none" xmlns="http://www.w3.org/2000/svg">
<rect width="24" height="24" rx="12" fill="#2F2B32"/>
<path fill-rule="evenodd" clip-rule="evenodd" d="M8.89324 10.7234L12.0006 7.61599L15.1107 10.7261L16.9187 8.91806L12.0006 4L7.08524 8.9154L8.89324 10.7234ZM3.99951 12.0009L5.80703 10.1933L7.61455 12.0009L5.80703 13.8084L3.99951 12.0009ZM12.0006 16.387L8.89319 13.2796L7.08253 15.0849L7.08519 15.0876L12.0006 20.003L16.9187 15.0849L15.1107 13.277L12.0006 16.387ZM16.3851 12.0021L18.1926 10.1946L20.0001 12.0021L18.1926 13.8096L16.3851 12.0021ZM12.0006 10.1669L13.8352 12.0015L12.0006 13.8388L10.166 12.0042V11.9988L10.4882 11.6767L10.6453 11.5222L12.0006 10.1669Z" fill="#F3BA2F"/>
</svg>
