<svg width="24" height="24" viewBox="0 0 24 24" fill="none" xmlns="http://www.w3.org/2000/svg">
<rect width="24" height="24" rx="12" fill="white"/>
<path d="M11.9625 2.72095L3.9248 7.36046V16.6395L11.9625 21.279L20.0002 16.6395V7.36046L11.9625 2.72095Z" fill="url(#paint0_linear_1149_17741)"/>
<path d="M11.9625 2.72095L3.9248 7.36046V16.6395L11.9625 21.279V2.72095Z" fill="url(#paint1_linear_1149_17741)"/>
<path d="M15.0962 6.72974H8.7881L8.05555 9.94485H15.8694L15.0962 6.72974ZM9.90728 14.3605V12.2239L8.0352 11.0437L5.91895 12.6105L8.80845 17.6367H9.96832L11.3317 16.3547V15.7239L9.90728 14.3605Z" fill="white"/>
<path d="M13.9975 10.4331H9.92773L10.5992 12.2238L10.3958 14.2383H13.5294L13.326 12.2238L13.9975 10.4331Z" fill="white"/>
<path d="M15.8696 11.0232L14.0178 12.2238V14.3604L12.6138 15.7237V16.3545L13.9771 17.6162H15.1167L17.9859 12.6104L15.8696 11.0232Z" fill="white"/>
<defs>
<linearGradient id="paint0_linear_1149_17741" x1="11.9554" y1="2.72095" x2="11.9554" y2="21.2676" gradientUnits="userSpaceOnUse">
<stop stop-color="#25376C"/>
<stop offset="1" stop-color="#1F1F49"/>
</linearGradient>
<linearGradient id="paint1_linear_1149_17741" x1="7.94061" y1="21.2676" x2="7.94061" y2="2.72095" gradientUnits="userSpaceOnUse">
<stop stop-color="#25376C"/>
<stop offset="1" stop-color="#1F1F49"/>
</linearGradient>
</defs>
</svg>
