<svg width="24" height="24" viewBox="0 0 24 24" fill="none" xmlns="http://www.w3.org/2000/svg">
<rect x="0.000488281" y="0.000488281" width="24" height="24" rx="12" fill="#0066CC"/>
<path d="M11.9998 23.9996C18.6271 23.9996 23.9996 18.6271 23.9996 11.9998C23.9996 5.3725 18.6271 0 11.9998 0C5.3725 0 0 5.3725 0 11.9998C0 18.6271 5.3725 23.9996 11.9998 23.9996Z" fill="#0066CC"/>
<path d="M5.27587 8.88382H13.7495C13.7495 8.88382 16.6743 8.85649 14.6516 12.6286C14.6516 12.6286 13.1755 15.5808 9.5127 15.5261L11.4862 10.4856C11.5101 10.4259 11.5191 10.3612 11.5125 10.2972C11.506 10.2332 11.484 10.1718 11.4486 10.1181C11.4132 10.0644 11.3653 10.02 11.309 9.98885C11.2527 9.95766 11.1897 9.94053 11.1254 9.93893L8.52866 9.8952L5.24854 17.8768C5.24854 17.8768 6.34191 17.9862 6.94327 17.9315L6.61525 18.7515H8.16238C8.20528 18.7519 8.24724 18.7389 8.28248 18.7144C8.31772 18.69 8.34451 18.6552 8.35919 18.6149L8.638 17.8768L9.29403 17.8222L8.91134 18.7515H10.4202C10.4757 18.7519 10.5301 18.7354 10.576 18.7042C10.6219 18.6729 10.6572 18.6284 10.6771 18.5766L11.0981 17.4942C11.0981 17.4942 15.6903 16.7288 17.7677 13.0113C17.7677 13.0113 20.5558 8.69248 17.2757 7.16176C16.6364 6.86863 15.9528 6.68388 15.2529 6.61507L15.6356 5.6693C15.6472 5.64123 15.6518 5.61075 15.6489 5.58052C15.646 5.55029 15.6357 5.52123 15.619 5.49587C15.6023 5.47052 15.5796 5.44965 15.553 5.43509C15.5263 5.42053 15.4965 5.41272 15.4661 5.41235H14.0502L13.6129 6.5604H13.0115L13.3505 5.6693C13.3609 5.64077 13.3644 5.61016 13.3606 5.58002C13.3569 5.54988 13.346 5.52106 13.3289 5.49595C13.3118 5.47084 13.289 5.45016 13.2623 5.43563C13.2356 5.42109 13.2059 5.41311 13.1755 5.41235H11.7541L11.3168 6.5604H6.89953C6.78082 6.56 6.66422 6.59183 6.56217 6.65248C6.46011 6.71313 6.37643 6.80034 6.32004 6.90481L5.27587 8.88382Z" fill="white"/>
</svg>
