<svg width="24" height="24" viewBox="0 0 24 24" fill="none" xmlns="http://www.w3.org/2000/svg">
<rect width="24" height="24" rx="12" fill="#F00500"/>
<path d="M16.4013 12.3599C16.3941 12.4023 16.2763 12.5282 16.1577 12.6208C15.8107 12.887 15.1896 13.1351 14.5585 13.2542C14.1991 13.3224 13.8398 13.333 13.7314 13.2777C13.6612 13.2405 13.6511 13.2117 13.6764 13.1169C13.7292 12.9196 13.9005 12.7027 14.1666 12.4994C14.3025 12.397 14.8534 12.0458 15.1094 11.8979C15.5316 11.6552 15.8736 11.5111 16.1049 11.4762C16.1779 11.4656 16.2661 11.4625 16.2929 11.4762C16.3392 11.4944 16.389 11.6347 16.4086 11.8031C16.4194 11.8926 16.4143 12.2886 16.4013 12.3599ZM10.4779 13.2329C10.4635 13.2648 10.3876 13.2989 10.3023 13.3118C10.2162 13.3255 9.95522 13.3171 9.80701 13.2989C9.27345 13.2246 8.70807 13.0531 8.29597 12.8423C8.06462 12.7239 7.89833 12.6049 7.77542 12.4759L7.70457 12.3993L7.69734 12.2992C7.68433 12.1247 7.68722 11.8509 7.70746 11.753C7.72054 11.6715 7.74696 11.593 7.78555 11.5209C7.80507 11.4944 7.80507 11.4944 7.89616 11.4944C8.00678 11.4944 8.09932 11.5126 8.25042 11.5626C8.55986 11.6635 9.01968 11.9063 9.58071 12.2597C10.0434 12.5495 10.2169 12.6921 10.35 12.887C10.4403 13.0084 10.5003 13.1798 10.4779 13.2329ZM14.0386 16.9049C14.0386 16.9125 14.0083 17.0392 13.9707 17.1894C13.9464 17.2815 13.9238 17.374 13.9027 17.467C13.8745 17.4693 13.8499 17.4723 13.8217 17.4693H13.7422L13.6309 17.7438C13.5709 17.894 13.5152 18.0336 13.508 18.0548L13.4928 18.092L13.44 18.0017L13.3872 17.9122V17.1818L13.367 17.1871C13.3236 17.1977 13.0199 17.2402 12.8869 17.2531C12.3368 17.3106 11.7821 17.2982 11.2349 17.2159C11.1798 17.2059 11.1243 17.1988 11.0686 17.1947C11.0664 17.1977 11.0686 17.3661 11.0737 17.5747L11.0809 17.9494L11.039 18.0177C11.0158 18.0548 10.9934 18.0859 10.9934 18.089C10.9862 18.0966 10.9609 18.0548 10.903 17.9335C10.8408 17.8062 10.7935 17.6714 10.7621 17.5322L10.7447 17.4564L10.6666 17.4609L10.5886 17.4693L10.5683 17.3714C10.5573 17.3121 10.5481 17.2524 10.5408 17.1924L10.5336 17.1082L10.4685 17.0475L10.3854 16.9732C10.3724 16.9626 10.3673 16.9444 10.3673 16.9284V16.8966L10.6818 16.8996L10.9963 16.9019L11.0057 16.936L11.0158 16.9709L11.1243 16.9762L11.5465 16.9891L11.861 16.9967L11.9413 16.8655L12.0244 16.7335H12.13L12.1278 16.4589L12.1249 16.1843L11.9868 16.1214C11.5414 15.9158 11.2804 15.6814 11.1821 15.3962C11.1619 15.3378 11.1619 15.3166 11.1568 15.0534C11.1546 14.7917 11.1546 14.7682 11.172 14.7098C11.189 14.6452 11.2218 14.5864 11.2672 14.5392C11.3127 14.4921 11.3691 14.4583 11.4308 14.4412C11.4742 14.4276 11.587 14.4276 12.1806 14.4276L12.879 14.4306L12.957 14.4701C13.0323 14.5025 13.0974 14.5564 13.145 14.6256C13.2058 14.7098 13.2238 14.7757 13.2238 14.9366C13.2238 15.1664 13.2086 15.3644 13.1862 15.4432C13.1529 15.5517 13.1036 15.6541 13.0402 15.7467C12.9144 15.9158 12.6859 16.0842 12.4763 16.1608L12.4163 16.1843L12.4191 16.4619L12.4213 16.7388L12.477 16.7441L12.5319 16.7494L12.6078 16.8678L12.6801 16.9868H13.0178C13.2036 16.9868 13.367 16.9891 13.3822 16.9914C13.4075 16.9975 13.4125 16.9944 13.4371 16.9497L13.4675 16.9019H13.7567C13.9736 16.8913 14.0386 16.8966 14.0386 16.9049Z" fill="black"/>
<path d="M12.7107 17.6618C12.663 17.6906 12.6304 17.7035 12.6232 17.6989C12.616 17.6959 12.5798 17.6641 12.5422 17.6352L12.4743 17.5776L12.4042 17.6565C12.2509 17.8309 12.2451 17.8385 12.2003 17.8408C12.1301 17.8484 12.115 17.8355 12.0296 17.7012C11.9841 17.633 11.9494 17.5745 11.9494 17.5745C11.9494 17.5745 11.9161 17.5692 11.8785 17.567L11.8084 17.5594L11.7759 17.6299L11.7426 17.7012L11.6848 17.683C11.6394 17.6673 11.595 17.6488 11.5518 17.6276L11.4766 17.5882V17.4373L12.1453 17.4403L12.8141 17.4426L12.8163 17.5139C12.8191 17.5981 12.8213 17.5958 12.7107 17.6618Z" fill="black"/>
<path d="M18.9963 14.4441C18.9941 14.4328 18.9941 14.4138 18.992 14.3857C18.2898 14.316 17.5815 14.3927 16.9077 14.6114C16.2339 14.8301 15.6081 15.1865 15.0662 15.6601C15.0662 15.6601 14.5514 13.1797 12.1381 13.1797C9.72333 13.1797 8.82899 15.6601 8.82899 15.6601C7.47629 14.1324 5.66594 14.2431 5.01164 14.3433L5.00947 14.3933C4.98923 14.7756 4.99935 14.9577 5.06008 15.1974C5.24806 15.9498 5.82934 16.7781 6.73957 17.5905C8.23036 18.9202 10.2518 19.8797 11.7831 19.9912C13.3794 20.105 15.7357 19.1257 17.3045 17.6959C17.5503 17.4668 17.7817 17.2241 17.9986 16.9655C18.154 16.7758 18.3854 16.4482 18.368 16.4482C18.363 16.4482 18.368 16.4428 18.3782 16.4375C18.3854 16.4322 18.3926 16.4246 18.3883 16.4193C18.3854 16.4163 18.3904 16.4087 18.3984 16.4064C18.4056 16.4034 18.4107 16.3989 18.4085 16.3928C18.4056 16.3875 18.4085 16.3822 18.4186 16.3799C18.4259 16.3769 18.4288 16.3693 18.4259 16.364C18.423 16.3587 18.4259 16.3533 18.4309 16.3533C18.436 16.3533 18.4411 16.3458 18.4411 16.3404C18.4411 16.3351 18.4461 16.3268 18.4512 16.3268C18.4562 16.3268 18.4613 16.3215 18.4613 16.3162C18.4696 16.2946 18.4806 16.2742 18.4938 16.2555C18.5314 16.1948 18.6818 15.9126 18.7028 15.8656C18.8459 15.525 18.9363 15.2216 18.979 14.9182C18.9941 14.7733 19.0064 14.5071 18.9963 14.4434V14.4441ZM12.7107 17.6618C12.663 17.6906 12.6304 17.7035 12.6232 17.699C12.616 17.6959 12.5798 17.6641 12.5422 17.6352L12.4743 17.5776L12.4041 17.6565C12.2509 17.8309 12.2451 17.8385 12.2003 17.8408C12.1301 17.8484 12.115 17.8355 12.0296 17.7012C11.9841 17.633 11.9494 17.5746 11.9494 17.5746C11.9494 17.5746 11.9161 17.5692 11.8785 17.567L11.8084 17.5594L11.7759 17.6299L11.7426 17.7012L11.6848 17.683C11.6394 17.6673 11.595 17.6488 11.5517 17.6277L11.4766 17.5882V17.4373L12.1453 17.4403L12.8141 17.4426L12.8162 17.5139C12.8191 17.5981 12.8213 17.5958 12.7107 17.6618ZM13.9687 17.187C13.9445 17.2789 13.9216 17.3712 13.9 17.4638C13.8725 17.4661 13.8472 17.4691 13.8197 17.4661H13.7395L13.631 17.7437C13.571 17.8939 13.5154 18.0335 13.5081 18.0547L13.493 18.0919L13.4402 18.0016L13.3874 17.9121V17.1816L13.3672 17.187C13.3238 17.1976 13.0201 17.2401 12.8871 17.2529C12.337 17.3105 11.7823 17.298 11.2351 17.2158C11.18 17.2058 11.1245 17.1987 11.0688 17.1945C11.0666 17.1976 11.0688 17.366 11.0739 17.5746L11.0811 17.9493L11.0392 18.0175C11.016 18.0547 10.9936 18.0858 10.9936 18.0888C10.9864 18.0964 10.9611 18.0547 10.9032 17.9333C10.8411 17.806 10.7937 17.6713 10.7623 17.5321L10.7449 17.4562L10.6668 17.4615L10.5887 17.4691L10.5685 17.3713C10.5575 17.3119 10.5483 17.2522 10.541 17.1923L10.5338 17.1081L10.4687 17.0474C10.4416 17.0219 10.4138 16.9972 10.3856 16.9731C10.3726 16.9624 10.3675 16.9442 10.3675 16.9283V16.8964L10.682 16.8995L10.9965 16.9018L11.0059 16.9359L11.016 16.9708L11.1245 16.9761L11.5467 16.989L11.8612 16.9966L11.9414 16.8653L12.0246 16.7334H12.1301L12.128 16.4588L12.1251 16.1842L11.987 16.1212C11.5416 15.9157 11.2806 15.6813 11.1823 15.3961C11.1621 15.3377 11.1621 15.3164 11.157 15.0532C11.1548 14.7915 11.1548 14.768 11.1722 14.7096C11.1892 14.645 11.222 14.5862 11.2674 14.5391C11.3128 14.492 11.3693 14.4582 11.431 14.4411C11.4744 14.4275 11.5872 14.4275 12.1807 14.4275L12.8791 14.4305L12.9572 14.4699C13.0324 14.5024 13.0975 14.5563 13.1452 14.6254C13.2059 14.7096 13.224 14.7756 13.224 14.9364C13.224 15.1663 13.2088 15.3642 13.1864 15.4431C13.1531 15.5516 13.1038 15.654 13.0404 15.7465C12.9146 15.9157 12.6861 16.0841 12.4764 16.1607L12.4164 16.1842L12.4193 16.4618L12.4215 16.7387L12.4772 16.744L12.5321 16.7493L12.608 16.8676L12.6803 16.9867H13.018C13.2038 16.9867 13.3672 16.989 13.3823 16.9913C13.4076 16.9973 13.4127 16.9943 13.4373 16.9495L13.4677 16.9018H13.7568C13.981 16.9018 14.046 16.9048 14.046 16.9124C14.0388 16.9101 14.0056 17.039 13.968 17.187H13.9687Z" fill="white"/>
<path d="M18.9756 14.175C18.9705 14.0525 18.9628 13.9301 18.9524 13.8079C18.844 12.6102 18.5526 11.6317 17.9995 10.5948C17.9788 10.5593 17.9605 10.5223 17.9446 10.4841C17.9395 10.4765 17.9374 10.4689 17.9345 10.4636C18.0126 10.2178 18.3321 9.19156 18.5852 8.01813C18.93 6.42523 19.1491 4.5623 18.4803 4.00327C18.4803 4.00327 17.3236 3.91376 15.7749 5.50666C15.3549 5.9466 14.9702 6.42447 14.6283 6.93344L14.5198 6.89703C13.8975 6.68325 13.2522 6.55202 12.5989 6.50639C12.4029 6.49122 11.6713 6.49122 11.4327 6.50639C10.7112 6.55645 10.1573 6.67023 9.52908 6.89931C9.50596 6.9089 9.48257 6.91775 9.45895 6.92585C9.10454 6.41804 8.70827 5.94391 8.2747 5.50894C6.66245 3.90845 5.46302 4.00099 5.46302 4.00099C4.7545 4.57823 4.99597 6.52535 5.3618 8.17135C5.54347 8.97899 5.76011 9.77752 6.01104 10.5645C6.00288 10.5842 5.99371 10.6034 5.98357 10.6221C5.39795 11.8676 5.08056 13.0676 5.00537 14.3442C5.66112 14.2441 7.4693 14.1303 8.82417 15.6602C8.82417 15.6602 9.71922 13.1806 12.1333 13.1806C14.5466 13.1806 15.0621 15.661 15.0621 15.661C15.6042 15.1881 16.23 14.8322 16.9036 14.6135C17.5771 14.3948 18.2852 14.3177 18.9871 14.3867L18.9749 14.175H18.9756ZM6.48676 9.5693C6.48676 9.5693 5.54689 7.10259 5.78764 5.69326C5.82813 5.4566 5.90332 5.248 6.02189 5.09023C6.02189 5.09023 7.08756 5.20098 8.80754 7.20575C8.80754 7.20575 8.48075 7.37186 8.04335 7.72534C8.04335 7.72534 8.04045 7.72761 8.03828 7.72761C7.41159 8.22948 6.88451 8.85513 6.48676 9.5693ZM10.4776 13.233C10.4617 13.2648 10.3865 13.299 10.3012 13.3118C10.2152 13.3255 9.95419 13.3172 9.80598 13.299C9.27242 13.2246 8.70704 13.0532 8.29494 12.8423C8.06359 12.724 7.8973 12.6049 7.7744 12.476L7.70354 12.3993L7.69631 12.2992C7.6833 12.1248 7.68619 11.8509 7.70644 11.7531C7.7195 11.6716 7.74592 11.593 7.78452 11.521C7.80404 11.4944 7.80404 11.4944 7.89513 11.4944C8.00575 11.4944 8.09829 11.5126 8.2494 11.5627C8.55883 11.6636 9.01865 11.9063 9.57968 12.2598C10.0424 12.5495 10.2159 12.6921 10.3489 12.8871C10.4393 13.0084 10.4993 13.1799 10.4769 13.233H10.4776ZM16.4003 12.3599C16.3931 12.4024 16.2752 12.5283 16.1567 12.6208C15.8096 12.8871 15.1886 13.1351 14.5574 13.2542C14.1981 13.3225 13.8388 13.3331 13.7303 13.2777C13.6602 13.2405 13.6501 13.2117 13.6754 13.1169C13.7282 12.9197 13.8995 12.7028 14.1656 12.4995C14.3015 12.3963 14.8524 12.0459 15.1083 11.898C15.5306 11.6552 15.8725 11.5111 16.1039 11.4762C16.1769 11.4656 16.2651 11.4626 16.2926 11.4762C16.3381 11.4944 16.388 11.6348 16.4083 11.8031C16.4184 11.8927 16.4133 12.2886 16.401 12.3599H16.4003ZM15.9831 7.72534L15.9781 7.7223C15.748 7.52493 15.5006 7.35095 15.2392 7.20271C16.9013 5.19794 17.9287 5.0872 17.9287 5.0872C18.0422 5.248 18.1152 5.45356 18.1557 5.69098C18.3892 7.09955 17.4819 9.56854 17.4819 9.56854C17.101 8.85795 16.592 8.23192 15.9831 7.72534Z" fill="#FFA409"/>
<path d="M18.1596 5.69094C17.963 5.66515 17.0354 5.65984 15.9842 7.7253L15.9791 7.72226C15.7491 7.52489 15.5017 7.35091 15.2402 7.20267C16.9024 5.1979 17.9297 5.08716 17.9297 5.08716C18.0454 5.24796 18.1192 5.45352 18.1589 5.69094H18.1596Z" fill="#FF9300"/>
<path d="M17.4853 9.56919C17.1044 8.85774 16.5945 8.23133 15.9844 7.72522C17.0356 5.65977 17.961 5.66508 18.1591 5.69087C18.3934 7.10248 17.4853 9.56919 17.4853 9.56919ZM18.1967 5.69845L18.1591 5.69087L18.1967 5.69845Z" fill="#FF8300"/>
<path d="M8.80918 7.20267C8.80918 7.20267 8.48239 7.36955 8.04499 7.72226C8.04499 7.72226 8.04209 7.7253 8.03992 7.7253C6.95111 5.65681 5.99244 5.66515 5.78711 5.69094C5.82687 5.45352 5.90279 5.24569 6.02063 5.08716C6.02352 5.08716 7.0892 5.1979 8.80918 7.20343V7.20267Z" fill="#FF9300"/>
<path d="M8.04178 7.72522C7.41383 8.22695 6.88594 8.85321 6.48809 9.56843C6.48809 9.56843 5.54821 7.10248 5.78896 5.69087C5.99284 5.66508 6.95296 5.65977 8.04178 7.72522Z" fill="#FF8300"/>
<path d="M5.78867 5.69092L5.74902 5.698L5.78796 5.69092H5.78867Z" fill="#FF8300"/>
<path d="M14.9413 10.9382C14.9413 10.9382 14.1366 10.9905 14.2371 10.3314C14.3384 9.67147 14.9666 9.59259 15.1423 9.61838C15.3187 9.64493 16.0222 9.90889 15.8971 10.4634C15.7713 11.0171 15.5949 10.9109 15.4944 10.9382C15.3939 10.964 14.9413 10.9382 14.9413 10.9382ZM9.00708 10.9382C9.00708 10.9382 8.20312 10.9905 8.30362 10.3314C8.40483 9.67147 9.03238 9.59259 9.20879 9.61838C9.38448 9.64493 10.0887 9.90889 9.96286 10.4634C9.83706 11.0171 9.66138 10.9109 9.56088 10.9382C9.45967 10.964 9.0078 10.9382 9.0078 10.9382H9.00708Z" fill="white"/>
</svg>
