<svg width="24" height="24" viewBox="0 0 24 24" fill="none" xmlns="http://www.w3.org/2000/svg">
<rect width="24" height="24" rx="12" fill="#5B6DEE"/>
<path d="M9.69047 11.1607C9.21323 11.1583 8.73677 11.1995 8.26705 11.2839C8.6537 7.70826 11.634 5 15.1823 5C17.355 5 18.8435 6.06414 18.8435 8.26599C18.8435 10.4687 17.0565 11.5328 14.45 11.5328C12.5253 11.5328 11.6152 11.1616 9.69047 11.1616V11.1607ZM9.55018 12.4653C6.94371 12.4653 5.15674 13.5303 5.15674 15.7321C5.15674 17.934 6.64517 18.9981 8.81794 18.9981C12.3662 18.9981 15.3465 16.2907 15.7332 12.7142C15.2634 12.7986 14.787 12.8398 14.3097 12.8374C12.385 12.8374 11.474 12.4653 9.55018 12.4653Z" fill="white"/>
</svg>
