<svg viewBox="0 0 24 24" xmlns="http://www.w3.org/2000/svg"><path d="M14.121 9.87908C18.417 14.1741 20.95 18.6071 19.778 19.7791C19.303 20.2531 18.292 20.1191 16.971 19.5061C15.3824 20.5568 13.5016 21.0769 11.5989 20.9918C9.69614 20.9066 7.86936 20.2205 6.38098 19.0321L6.34298 19.0721L4.92898 17.6571L4.96698 17.6171C3.77924 16.1289 3.09374 14.3025 3.00894 12.4004C2.92414 10.4982 3.44439 8.61807 4.49498 7.03008C3.88098 5.70808 3.74698 4.69708 4.22198 4.22208C5.34998 3.09408 9.49898 5.39908 13.639 9.40408L14.121 9.87908ZM12.707 11.2931C10.823 9.40908 8.86998 7.84208 7.23598 6.87008L7.04998 7.05008C5.85991 8.24048 5.13849 9.81974 5.01784 11.4986C4.89718 13.1776 5.38536 14.8437 6.39298 16.1921L8.23898 14.3461C8.12512 13.9209 8.15472 13.47 8.32319 13.0633C8.49166 12.6567 8.78958 12.3169 9.17076 12.0968C9.55195 11.8767 9.9951 11.7885 10.4315 11.8458C10.868 11.9032 11.2733 12.1029 11.5846 12.4141C11.896 12.7252 12.096 13.1304 12.1537 13.5668C12.2113 14.0031 12.1234 14.4464 11.9036 14.8277C11.6837 15.2091 11.3442 15.5072 10.9377 15.676C10.5311 15.8447 10.0803 15.8746 9.65498 15.7611L7.80698 17.6071C9.15539 18.615 10.8218 19.1033 12.5009 18.9827C14.1801 18.862 15.7595 18.1404 16.95 16.9501L17.129 16.7621L17.076 16.6731C16.1 15.0581 14.556 13.1431 12.707 11.2931ZM19.778 4.22208C19.9769 4.42092 20.1317 4.65949 20.2322 4.92221C20.3327 5.18492 20.3766 5.46588 20.3611 5.74674C20.3456 6.02759 20.2711 6.30202 20.1424 6.5521C20.0136 6.80219 19.8336 7.02231 19.614 7.19808C20.3909 8.43184 20.857 9.83564 20.9723 11.2891C21.0876 12.7425 20.8487 14.2023 20.276 15.5431C19.8633 14.7458 19.4004 13.9756 18.89 13.2371C19.0904 12.1258 19.0186 10.9825 18.6808 9.90503C18.3429 8.82755 17.749 7.84796 16.95 7.05008C16.152 6.25116 15.1724 5.65739 14.095 5.31954C13.0175 4.9817 11.8743 4.90983 10.763 5.11008C10.0246 4.59948 9.25436 4.13654 8.45698 3.72408C9.79817 3.15126 11.2583 2.91234 12.7121 3.02782C14.1659 3.1433 15.57 3.60972 16.804 4.38708C16.9797 4.16774 17.1996 3.98789 17.4495 3.85926C17.6994 3.73063 17.9735 3.6561 18.2541 3.64053C18.5347 3.62496 18.8155 3.6687 19.078 3.76891C19.3406 3.86911 19.5791 4.02352 19.778 4.22208Z"/></svg>