<svg viewBox="0 0 24 24" xmlns="http://www.w3.org/2000/svg"><path d="M13 6.99986V10.9999H20C20.2652 10.9999 20.5196 11.1052 20.7071 11.2927C20.8946 11.4803 21 11.7346 21 11.9999V19.9999H23V21.9999H1V19.9999H3V11.9999C3 11.7346 3.10536 11.4803 3.29289 11.2927C3.48043 11.1052 3.73478 10.9999 4 10.9999H11V6.99986H13ZM19 12.9999H5V19.9999H19V12.9999ZM13.83 0.401855C14.2278 1.09089 14.3356 1.90973 14.1297 2.67825C13.9238 3.44677 13.421 4.10202 12.732 4.49986L11 5.49986C10.6022 4.81082 10.4944 3.99198 10.7003 3.22346C10.9062 2.45494 11.409 1.79969 12.098 1.40186L13.83 0.401855Z"/></svg>