<svg viewBox="0 0 24 24" xmlns="http://www.w3.org/2000/svg"><path d="M19.5859 21.0001H2.99994C2.73473 21.0001 2.48037 20.8947 2.29284 20.7072C2.1053 20.5196 1.99994 20.2653 1.99994 20.0001V6.00007C1.99994 5.73485 2.1053 5.4805 2.29284 5.29296C2.48037 5.10542 2.73473 5.00007 2.99994 5.00007H3.58594L1.39294 2.80807L2.80794 1.39307L22.6069 21.1931L21.1919 22.6071L19.5859 21.0001ZM7.55594 8.97007C6.52179 10.1114 5.96614 11.6067 6.00405 13.1465C6.04196 14.6862 6.67052 16.1523 7.75959 17.2414C8.84867 18.3305 10.3148 18.959 11.8546 18.997C13.3943 19.0349 14.8896 18.4792 16.0309 17.4451L14.6139 16.0281C13.8494 16.6891 12.8629 17.0362 11.8528 16.9996C10.8428 16.963 9.88404 16.5453 9.16936 15.8307C8.45467 15.116 8.03703 14.1572 8.00041 13.1472C7.96379 12.1371 8.31089 11.1506 8.97194 10.3861L7.55494 8.97007H7.55594ZM21.9999 17.7851L17.9549 13.7401C18.0677 12.8339 17.9722 11.914 17.6756 11.0504C17.379 10.1867 16.8892 9.40219 16.2435 8.7565C15.5978 8.11082 14.8133 7.62103 13.9497 7.32444C13.086 7.02786 12.1661 6.93231 11.2599 7.04507L8.10594 3.89207L8.99994 3.00007H14.9999L16.9999 5.00007H20.9999C21.2652 5.00007 21.5195 5.10542 21.7071 5.29296C21.8946 5.4805 21.9999 5.73485 21.9999 6.00007V17.7861V17.7851ZM13.5079 9.29307C14.0021 9.49485 14.451 9.79319 14.8284 10.1706C15.2058 10.548 15.5042 10.9969 15.7059 11.4911L13.5079 9.29307Z"/></svg>