<svg viewBox="0 0 24 24" xmlns="http://www.w3.org/2000/svg"><path d="M10.586 4.00002L8.757 2.17202L10.172 0.757019L14.414 5.00002L10.172 9.24302L8.757 7.82802L10.586 6.00002H8C7.20435 6.00002 6.44129 6.31609 5.87868 6.8787C5.31607 7.44131 5 8.20437 5 9.00002V13H3V9.00002C3 7.67394 3.52678 6.40217 4.46447 5.46449C5.40215 4.5268 6.67392 4.00002 8 4.00002H10.586ZM9 11C9 10.7348 9.10536 10.4804 9.29289 10.2929C9.48043 10.1054 9.73478 10 10 10H20C20.2652 10 20.5196 10.1054 20.7071 10.2929C20.8946 10.4804 21 10.7348 21 11V21C21 21.2652 20.8946 21.5196 20.7071 21.7071C20.5196 21.8947 20.2652 22 20 22H10C9.73478 22 9.48043 21.8947 9.29289 21.7071C9.10536 21.5196 9 21.2652 9 21V11ZM11 12V20H19V12H11Z"/></svg>