<svg viewBox="0 0 24 24" xmlns="http://www.w3.org/2000/svg"><path d="M14 17.9999V14.0069H2.07402C1.33733 12.1271 1.33865 10.0383 2.07772 8.15943C2.81679 6.28057 4.23895 4.75064 6.05892 3.87653C7.87889 3.00242 9.96206 2.84878 11.8906 3.44643C13.8191 4.04408 15.4503 5.34882 16.457 7.09893C17.2093 6.95423 17.9836 6.96829 18.7301 7.1402C19.4767 7.31212 20.1791 7.6381 20.7923 8.09726C21.4055 8.55642 21.9161 9.13863 22.2913 9.80658C22.6664 10.4745 22.8979 11.2135 22.9709 11.9761C23.0438 12.7387 22.9567 13.5081 22.715 14.2351C22.4733 14.9621 22.0824 15.6305 21.5673 16.1976C21.0523 16.7647 20.4244 17.218 19.724 17.5284C19.0236 17.8387 18.2661 17.9993 17.5 17.9999H14.001H14ZM6.00002 19.9999H16V21.9999H6.00002V19.9999ZM2.00002 15.9999H12V17.9999H2.00002V15.9999Z"/></svg>