<svg viewBox="0 0 24 24" xmlns="http://www.w3.org/2000/svg"><path d="M17.0001 21.0005H7.00012C5.58335 21.0013 4.21197 20.5009 3.12881 19.5876C2.04565 18.6744 1.32059 17.4073 1.08202 16.0108C0.843459 14.6142 1.10678 13.1783 1.82535 11.9573C2.54393 10.7363 3.6714 9.80893 5.00812 9.33945C4.96284 8.39311 5.11013 7.44743 5.44108 6.55969C5.77203 5.67194 6.27974 4.86062 6.93346 4.17487C7.58719 3.48912 8.37331 2.94321 9.24422 2.57021C10.1151 2.19721 11.0527 2.00488 12.0001 2.00488C12.9475 2.00488 13.8851 2.19721 14.756 2.57021C15.6269 2.94321 16.413 3.48912 17.0668 4.17487C17.7205 4.86062 18.2282 5.67194 18.5592 6.55969C18.8901 7.44743 19.0374 8.39311 18.9921 9.33945C20.3288 9.80893 21.4563 10.7363 22.1749 11.9573C22.8935 13.1783 23.1568 14.6142 22.9182 16.0108C22.6796 17.4073 21.9546 18.6744 20.8714 19.5876C19.7883 20.5009 18.4169 21.0013 17.0001 21.0005ZM7.00012 19.0005H17.0001C17.5428 18.9995 18.0795 18.8881 18.5778 18.6731C19.076 18.4581 19.5253 18.144 19.8983 17.7499C20.2713 17.3557 20.5602 16.8898 20.7474 16.3805C20.9346 15.8712 21.0162 15.3291 20.9873 14.7872C20.9584 14.2453 20.8195 13.715 20.5791 13.2285C20.3387 12.742 20.0018 12.3095 19.589 11.9573C19.1762 11.6051 18.696 11.3406 18.1777 11.1799C17.6594 11.0192 17.1138 10.9656 16.5741 11.0225C16.9102 10.2613 17.051 9.42835 16.9838 8.59905C16.9166 7.76975 16.6435 6.97032 16.1893 6.27323C15.735 5.57614 15.114 5.00343 14.3825 4.60699C13.651 4.21054 12.8321 4.00292 12.0001 4.00292C11.1681 4.00292 10.3492 4.21054 9.61773 4.60699C8.88622 5.00343 8.26522 5.57614 7.81099 6.27323C7.35675 6.97032 7.08366 7.76975 7.01646 8.59905C6.94925 9.42835 7.09006 10.2613 7.42612 11.0225C6.88645 10.9656 6.34087 11.0192 5.82256 11.1799C5.30426 11.3406 4.82408 11.6051 4.41124 11.9573C3.99839 12.3095 3.66153 12.742 3.42114 13.2285C3.18075 13.715 3.04186 14.2453 3.01292 14.7872C2.98399 15.3291 3.06561 15.8712 3.25283 16.3805C3.44005 16.8898 3.72894 17.3557 4.10193 17.7499C4.47492 18.144 4.92421 18.4581 5.42245 18.6731C5.92069 18.8881 6.45747 18.9995 7.00012 19.0005Z"/></svg>