<svg viewBox="0 0 24 24" xmlns="http://www.w3.org/2000/svg"><path d="M17.0001 21.0005H7.00012C5.58335 21.0013 4.21197 20.5009 3.12881 19.5876C2.04565 18.6744 1.32059 17.4073 1.08202 16.0108C0.843459 14.6142 1.10678 13.1783 1.82535 11.9573C2.54393 10.7363 3.6714 9.80893 5.00812 9.33945C4.96284 8.39311 5.11013 7.44743 5.44108 6.55969C5.77203 5.67194 6.27974 4.86062 6.93346 4.17487C7.58719 3.48912 8.37331 2.94321 9.24422 2.57021C10.1151 2.19721 11.0527 2.00488 12.0001 2.00488C12.9475 2.00488 13.8851 2.19721 14.756 2.57021C15.6269 2.94321 16.413 3.48912 17.0668 4.17487C17.7205 4.86062 18.2282 5.67194 18.5592 6.55969C18.8901 7.44743 19.0374 8.39311 18.9921 9.33945C20.3288 9.80893 21.4563 10.7363 22.1749 11.9573C22.8935 13.1783 23.1568 14.6142 22.9182 16.0108C22.6796 17.4073 21.9546 18.6744 20.8714 19.5876C19.7883 20.5009 18.4169 21.0013 17.0001 21.0005Z"/></svg>