<svg viewBox="0 0 24 24" xmlns="http://www.w3.org/2000/svg"><path d="M14 17.9997V15.9997H17.5C18.077 15.9996 18.6451 15.8568 19.1536 15.5841C19.6622 15.3114 20.0954 14.9172 20.4147 14.4366C20.734 13.9559 20.9296 13.4038 20.9839 12.8294C21.0383 12.2549 20.9498 11.6759 20.7262 11.1439C20.5027 10.6119 20.1511 10.1434 19.7028 9.78019C19.2544 9.41694 18.7232 9.17018 18.1564 9.06187C17.5896 8.95356 17.0049 8.98707 16.4542 9.15941C15.9035 9.33175 15.4039 9.63758 15 10.0497V9.99967C15 8.40837 14.3679 6.88224 13.2426 5.75703C12.1174 4.63181 10.5913 3.99967 9 3.99967C7.4087 3.99967 5.88258 4.63181 4.75736 5.75703C3.63214 6.88224 3 8.40837 3 9.99967V10.0067H1V9.99967C0.998489 8.13282 1.6499 6.32423 2.84144 4.88709C4.03297 3.44996 5.68959 2.47478 7.5244 2.13044C9.35922 1.7861 11.2567 2.09429 12.8882 3.00162C14.5197 3.90895 15.7826 5.3583 16.458 7.09867C17.2103 6.95396 17.9846 6.96803 18.7312 7.13997C19.4778 7.31192 20.1802 7.63794 20.7935 8.09715C21.4067 8.55636 21.9173 9.13863 22.2924 9.80664C22.6676 10.4747 22.899 11.2137 22.9719 11.9763C23.0448 12.739 22.9575 13.5085 22.7158 14.2354C22.474 14.9624 22.083 15.6309 21.5678 16.1979C21.0527 16.765 20.4247 17.2182 19.7242 17.5285C19.0237 17.8387 18.2661 17.9992 17.5 17.9997H14ZM6 19.9997H16V21.9997H6V19.9997ZM6 11.9997H14V13.9997H6V11.9997ZM2 15.9997H12V17.9997H2V15.9997Z"/></svg>