<svg viewBox="0 0 24 24" xmlns="http://www.w3.org/2000/svg"><path fill-rule="evenodd" clip-rule="evenodd" d="M15.1773 2C16.1912 2 17.1635 2.39573 17.8804 3.10013C18.5973 3.80454 19 4.75992 19 5.75609C19 6.75227 18.5973 7.70765 17.8804 8.41205C17.7025 8.58683 17.5089 8.7426 17.3028 8.87804C17.5089 9.01348 17.7025 9.16925 17.8804 9.34403C18.5973 10.0484 19 11.0038 19 12C19 12.9962 18.5973 13.9515 17.8804 14.6559C17.1635 15.3603 16.1912 15.7561 15.1773 15.7561C14.242 15.7561 13.3421 15.4193 12.6454 14.8141V18.2439C12.6454 19.2401 12.2426 20.1955 11.5257 20.8999C10.8088 21.6043 9.83653 22 8.82269 22C7.80885 22 6.83653 21.6043 6.11964 20.8999C5.40275 20.1955 5 19.2401 5 18.2439C5 17.2477 5.40275 16.2924 6.11964 15.5879C6.29752 15.4132 6.49113 15.2574 6.69719 15.1219C6.49113 14.9865 6.29752 14.8307 6.11964 14.6559C5.40275 13.9515 5 12.9962 5 12C5 11.0038 5.40275 10.0484 6.11964 9.34403C6.29751 9.16925 6.49111 9.01348 6.69717 8.87804C6.49111 8.7426 6.29751 8.58683 6.11964 8.41205C5.40275 7.70765 5 6.75227 5 5.75609C5 4.75992 5.40275 3.80454 6.11964 3.10013C6.83653 2.39573 7.80885 2 8.82269 2H15.1773ZM15.1773 8.2439C15.8488 8.2439 16.4928 7.98179 16.9676 7.51523C17.4425 7.04868 17.7092 6.4159 17.7092 5.75609C17.7092 5.09629 17.4425 4.46351 16.9676 3.99695C16.4928 3.5304 15.8488 3.26829 15.1773 3.26829H12.6454V8.2439H15.1773ZM15.1738 9.51219C14.5035 9.5131 13.861 9.77511 13.387 10.2408C12.9122 10.7074 12.6454 11.3402 12.6454 12C12.6454 12.6598 12.9122 13.2926 13.387 13.7591C13.8618 14.2257 14.5058 14.4878 15.1773 14.4878C15.8488 14.4878 16.4928 14.2257 16.9676 13.7591C17.4425 13.2926 17.7092 12.6598 17.7092 12C17.7092 11.3402 17.4425 10.7074 16.9676 10.2408C16.4928 9.77429 15.8488 9.51218 15.1773 9.51219H15.1738ZM8.82269 9.51219L11.3546 9.51218V14.4878H8.82269C8.15118 14.4878 7.50718 14.2257 7.03236 13.7591C6.55753 13.2926 6.29078 12.6598 6.29078 12C6.29078 11.3402 6.55753 10.7074 7.03236 10.2408C7.50718 9.77429 8.15118 9.51218 8.82269 9.51219ZM11.3546 3.26829V8.2439L8.81995 8.24389C8.14943 8.24318 7.50654 7.98115 7.03236 7.51523C6.55753 7.04868 6.29078 6.4159 6.29078 5.75609C6.29078 5.09629 6.55753 4.46351 7.03236 3.99695C7.50718 3.5304 8.15118 3.26829 8.82269 3.26829H11.3546ZM8.82269 15.7561C8.15118 15.7561 7.50718 16.0182 7.03236 16.4848C6.55753 16.9513 6.29078 17.5841 6.29078 18.2439C6.29078 18.9037 6.55753 19.5365 7.03236 20.003C7.50718 20.4696 8.15118 20.7317 8.82269 20.7317C9.49419 20.7317 10.1382 20.4696 10.613 20.003C11.0878 19.5365 11.3546 18.9037 11.3546 18.2439V15.7561H8.82269Z"/></svg>