<svg viewBox="0 0 24 24" xmlns="http://www.w3.org/2000/svg"><path d="M16 17.4722C17.0989 18.4579 18.5237 19.0022 20 19.0002H22V21.0002H20C18.5956 21.0025 17.2157 20.6333 16 19.9302C14.7844 20.6334 13.4044 21.0026 12 21.0002C10.5956 21.0025 9.21565 20.6333 8 19.9302C6.7844 20.6334 5.40438 21.0026 4 21.0002H2V19.0002H4C5.537 19.0002 6.94 18.4222 8 17.4722C9.09893 18.4579 10.5237 19.0022 12 19.0002C13.537 19.0002 14.94 18.4222 16 17.4722ZM12.573 1.53216L12.673 1.61216L23 11.0002H20V17.0002C19.2237 17.0008 18.4579 16.8203 17.7635 16.4731C17.0691 16.126 16.4653 15.6216 16 15.0002C15.5348 15.6217 14.931 16.1262 14.2366 16.4734C13.5422 16.8206 12.7764 17.0009 12 17.0002C11.2237 17.0008 10.4579 16.8203 9.76351 16.4731C9.06913 16.126 8.4653 15.6216 8 15.0002C7.53481 15.6217 6.931 16.1262 6.2366 16.4734C5.5422 16.8206 4.77636 17.0009 4 17.0002L3.999 11.0002H1L11.327 1.61216C11.4791 1.47371 11.6701 1.3855 11.8741 1.35956C12.0781 1.33361 12.2851 1.37118 12.467 1.46716L12.573 1.53216Z"/></svg>