<svg viewBox="0 0 24 24" xmlns="http://www.w3.org/2000/svg"><path d="M1.58403 13.0075C0.800577 11.0352 0.832702 8.83248 1.67333 6.88388C2.51397 4.93528 4.09424 3.40044 6.06653 2.61699C8.03881 1.83354 10.2415 1.86566 12.1901 2.70629C14.1387 3.54692 15.6736 5.1272 16.457 7.09949C17.2952 6.93753 18.1595 6.97288 18.9816 7.20276C19.8037 7.43264 20.561 7.85073 21.1936 8.42393C21.8262 8.99713 22.3167 9.7097 22.6262 10.5053C22.9357 11.3008 23.0559 12.1575 22.977 13.0075H20.964C21.0714 12.2764 20.9447 11.53 20.6019 10.8753C20.2591 10.2207 19.718 9.6913 19.0559 9.36305C18.3939 9.0348 17.6449 8.92451 16.9163 9.048C16.1877 9.17149 15.5169 9.52241 15 10.0505V10.0005C14.9998 9.07996 14.7877 8.17183 14.3803 7.34638C13.9729 6.52093 13.381 5.8003 12.6504 5.24025C11.9199 4.6802 11.0702 4.29576 10.1673 4.11667C9.26437 3.93759 8.33233 3.96866 7.44332 4.20749C6.55432 4.44633 5.73219 4.88651 5.04056 5.49397C4.34893 6.10144 3.80634 6.8599 3.4548 7.71065C3.10325 8.56141 2.95217 9.48165 3.01325 10.4001C3.07433 11.3186 3.34593 12.2108 3.80703 13.0075H1.58403ZM4.00003 19.0005H21V21.0005H4.00003V19.0005ZM2.00003 15.0005H23V17.0005H2.00003V15.0005Z"/></svg>