<svg viewBox="0 0 24 24" xmlns="http://www.w3.org/2000/svg"><path d="M7.10495 8.78995C7.27841 9.42479 7.65575 9.985 8.17885 10.3843C8.70196 10.7837 9.34184 11 9.99995 10.9999H13.9999C15.178 11 16.3182 11.416 17.2195 12.1745C18.1209 12.9329 18.7255 13.9853 18.9269 15.1459C19.6056 15.3674 20.1832 15.8235 20.5558 16.4324C20.9285 17.0414 21.0719 17.7632 20.9602 18.4683C20.8486 19.1734 20.4892 19.8157 19.9466 20.2797C19.4041 20.7437 18.7139 20.999 17.9999 20.9999C17.3015 21.0005 16.6247 20.7573 16.0863 20.3123C15.548 19.8673 15.1817 19.2484 15.0508 18.5623C14.9199 17.8763 15.0324 17.166 15.3691 16.554C15.7057 15.942 16.2454 15.4667 16.8949 15.2099C16.7215 14.5751 16.3441 14.0149 15.821 13.6156C15.2979 13.2162 14.6581 12.9999 13.9999 12.9999H9.99995C8.91784 13.0015 7.86468 12.6505 6.99995 11.9999V15.1699C7.66744 15.4059 8.23004 15.8701 8.58831 16.4808C8.94657 17.0914 9.07743 17.809 8.95776 18.5067C8.83808 19.2045 8.47558 19.8375 7.93432 20.2938C7.39306 20.7502 6.7079 21.0004 5.99995 21.0004C5.29199 21.0004 4.60683 20.7502 4.06557 20.2938C3.52431 19.8375 3.16181 19.2045 3.04213 18.5067C2.92246 17.809 3.05332 17.0914 3.41159 16.4808C3.76985 15.8701 4.33245 15.4059 4.99995 15.1699V8.82995C4.33692 8.59586 3.77715 8.13639 3.4183 7.53172C3.05945 6.92704 2.92432 6.21557 3.03648 5.52143C3.14864 4.8273 3.50098 4.19459 4.032 3.73371C4.56303 3.27283 5.23903 3.01305 5.94204 2.99969C6.64505 2.98633 7.33043 3.22025 7.87858 3.66062C8.42673 4.10099 8.80285 4.71986 8.9413 5.40923C9.07975 6.0986 8.97175 6.8147 8.63613 7.43256C8.30051 8.05043 7.7586 8.53084 7.10495 8.78995ZM5.99995 6.99995C6.26516 6.99995 6.51952 6.89459 6.70705 6.70706C6.89459 6.51952 6.99995 6.26517 6.99995 5.99995C6.99995 5.73473 6.89459 5.48038 6.70705 5.29284C6.51952 5.10531 6.26516 4.99995 5.99995 4.99995C5.73473 4.99995 5.48038 5.10531 5.29284 5.29284C5.1053 5.48038 4.99995 5.73473 4.99995 5.99995C4.99995 6.26517 5.1053 6.51952 5.29284 6.70706C5.48038 6.89459 5.73473 6.99995 5.99995 6.99995ZM5.99995 18.9999C6.26516 18.9999 6.51952 18.8946 6.70705 18.7071C6.89459 18.5195 6.99995 18.2652 6.99995 17.9999C6.99995 17.7347 6.89459 17.4804 6.70705 17.2928C6.51952 17.1053 6.26516 16.9999 5.99995 16.9999C5.73473 16.9999 5.48038 17.1053 5.29284 17.2928C5.1053 17.4804 4.99995 17.7347 4.99995 17.9999C4.99995 18.2652 5.1053 18.5195 5.29284 18.7071C5.48038 18.8946 5.73473 18.9999 5.99995 18.9999ZM17.9999 18.9999C18.2652 18.9999 18.5195 18.8946 18.7071 18.7071C18.8946 18.5195 18.9999 18.2652 18.9999 17.9999C18.9999 17.7347 18.8946 17.4804 18.7071 17.2928C18.5195 17.1053 18.2652 16.9999 17.9999 16.9999C17.7347 16.9999 17.4804 17.1053 17.2928 17.2928C17.1053 17.4804 16.9999 17.7347 16.9999 17.9999C16.9999 18.2652 17.1053 18.5195 17.2928 18.7071C17.4804 18.8946 17.7347 18.9999 17.9999 18.9999Z"/></svg>