<svg viewBox="0 0 24 24" xmlns="http://www.w3.org/2000/svg"><path d="M19.2429 4.75698C20.7049 6.22298 21.2549 8.24998 20.8929 10.137C21.4609 10.297 21.9989 10.6 22.4469 11.045C23.8509 12.439 23.8509 14.699 22.4469 16.092L16.9999 21.5L13.9779 18.5L10.9999 21.485L2.5199 12.993C0.416901 10.637 0.495901 7.01898 2.7569 4.75698C5.0219 2.49298 8.6449 2.41698 11.0009 4.52898C13.3499 2.41998 16.9799 2.48998 19.2429 4.75698ZM12.9619 12.465C12.3459 13.076 12.3459 14.062 12.9619 14.673L16.9999 18.682L21.0379 14.673C21.6539 14.062 21.6539 13.076 21.0379 12.465C20.4139 11.845 19.3959 11.845 18.7699 12.467L16.9979 14.221L15.5909 12.825L15.2279 12.465C14.6039 11.845 13.5859 11.845 12.9619 12.465ZM4.1719 6.17198C2.6819 7.66198 2.6069 10.047 3.9799 11.623L10.9999 18.654L12.5589 17.092L11.5529 16.092C10.1489 14.699 10.1489 12.439 11.5529 11.045C12.9569 9.65198 15.2329 9.65198 16.6369 11.045L16.9999 11.405L17.3629 11.045C17.7879 10.624 18.2929 10.33 18.8279 10.163C19.2439 8.79598 18.9059 7.25098 17.8269 6.16998C16.3269 4.66798 13.9069 4.60698 12.3369 6.01698L11.0019 7.21498L9.6659 6.01798C8.0909 4.60598 5.6759 4.66798 4.1719 6.17198Z"/></svg>