<svg viewBox="0 0 24 24" xmlns="http://www.w3.org/2000/svg"><path d="M21.158 4.25807C21.192 7.75807 21.749 9.06907 21.946 10.9591C22.247 13.8531 21.289 16.8531 19.071 19.0711C15.405 22.7371 9.59997 22.9611 5.67097 19.7441L8.52297 16.8911C10.867 18.5611 14.14 18.3451 16.243 16.2431C18.345 14.1401 18.561 10.8661 16.891 8.52307L21.158 4.25807ZM18.328 4.25607L15.477 7.10907C13.133 5.43907 9.85997 5.65507 7.75697 7.75707C5.65497 9.86007 5.43897 13.1331 7.10897 15.4771L2.84197 19.7421C2.80797 16.2421 2.25097 14.9311 2.05397 13.0411C1.75297 10.1471 2.71097 7.14707 4.92897 4.92907C8.59497 1.26307 14.4 1.03907 18.329 4.25607H18.328ZM12 8.00007C14.21 8.00007 16 9.79007 16 12.0001C16 14.2101 14.21 16.0001 12 16.0001C9.78997 16.0001 7.99997 14.2101 7.99997 12.0001C7.99997 9.79007 9.78997 8.00007 12 8.00007ZM12 10.5001C11.172 10.5001 10.5 11.1721 10.5 12.0001C10.5 12.8281 11.172 13.5001 12 13.5001C12.828 13.5001 13.5 12.8281 13.5 12.0001C13.5 11.1721 12.828 10.5001 12 10.5001Z"/></svg>