<svg viewBox="0 0 24 24" xmlns="http://www.w3.org/2000/svg"><path d="M18.159 10.0001C17.7455 8.82936 16.9792 7.81565 15.9656 7.09864C14.952 6.38163 13.741 5.99659 12.4995 5.99659C11.2579 5.99659 10.0469 6.38163 9.03327 7.09864C8.01967 7.81565 7.25337 8.82936 6.83996 10.0001H18.16H18.159ZM6.58296 13.0001C6.78861 14.2118 7.3613 15.3312 8.22364 16.207C9.08598 17.0827 10.1964 17.6726 11.4048 17.897C12.6132 18.1213 13.8614 17.9693 14.9806 17.4614C16.0998 16.9535 17.0361 16.1143 17.663 15.0571H20.967C20.5397 16.2403 19.8692 17.3209 18.9987 18.2291C18.1282 19.1374 17.077 19.8531 15.9129 20.3301C14.7488 20.8071 13.4977 21.0349 12.2402 20.9987C10.9827 20.9626 9.74669 20.6632 8.61196 20.1201C5.86796 21.6111 3.49896 21.9201 2.18996 20.6111C0.845958 19.2711 1.56196 15.7601 3.50296 12.2381C4.21916 10.9407 5.05585 9.71366 6.00196 8.57308C6.36096 8.14008 6.73696 7.72108 7.12696 7.32108C6.85196 7.37608 5.24696 8.17208 3.71496 10.0351C4.18802 7.92433 5.40515 6.05443 7.14371 4.7674C8.88227 3.48037 11.0261 2.86224 13.183 3.02608C16.278 1.62408 19.157 1.30008 20.375 2.51608C21.5 3.63908 21.437 5.51108 20.5 7.75808C20.49 7.77908 20.482 7.80108 20.473 7.82208C21.1495 9.11067 21.502 10.5447 21.5 12.0001C21.5 12.3381 21.481 12.6721 21.445 13.0001H6.58296ZM8.00496 19.7991C6.16397 18.7353 4.75739 17.0561 4.03296 15.0571C2.87196 17.3391 2.57296 19.2471 3.56396 20.2371C4.37696 21.0491 6.00196 20.8611 8.00196 19.8011L8.00496 19.7991ZM20.172 7.29208C20.1769 7.28073 20.1819 7.2694 20.187 7.25808C20.937 5.63608 21 4.26408 20.312 3.45208C19.443 2.58408 17.772 2.70208 15.79 3.62008C17.6097 4.3373 19.1474 5.62588 20.172 7.29208Z"/></svg>