<svg viewBox="0 0 24 24" xmlns="http://www.w3.org/2000/svg"><path d="M4.34208 1.4082L22.3731 19.4402C22.6545 19.7215 22.8126 20.103 22.8127 20.5009C22.8128 20.8987 22.6548 21.2803 22.3736 21.5617C22.0923 21.8431 21.7108 22.0012 21.3129 22.0013C20.9151 22.0014 20.5335 21.8435 20.2521 21.5622L15.6561 16.9652L12.1201 20.5002L4.34208 12.7222C2.87215 11.2525 2.03199 9.26834 1.99951 7.18995C1.96704 5.11156 2.74479 3.10213 4.16808 1.5872L4.34208 1.4082ZM4.58308 4.4782L4.53208 4.5882C4.04717 5.66026 3.88789 6.85115 4.07402 8.01296C4.26016 9.17477 4.78352 10.2563 5.57908 11.1232L5.75608 11.3082L12.1191 17.6712L14.9481 14.8432L4.58308 4.4782Z"/></svg>