<svg viewBox="0 0 24 24" xmlns="http://www.w3.org/2000/svg"><path d="M15.95 2.39301L21.607 8.05001C21.7945 8.23753 21.8998 8.49184 21.8998 8.75701C21.8998 9.02217 21.7945 9.27648 21.607 9.46401L13.828 17.243L11.708 17.95L10.293 19.364C10.1055 19.5515 9.85114 19.6568 9.58598 19.6568C9.32082 19.6568 9.06651 19.5515 8.87898 19.364L4.63598 15.121C4.44851 14.9335 4.34319 14.6792 4.34319 14.414C4.34319 14.1488 4.44851 13.8945 4.63598 13.707L6.04998 12.293L6.75698 10.172L14.536 2.39301C14.7235 2.20554 14.9778 2.10022 15.243 2.10022C15.5081 2.10022 15.7625 2.20554 15.95 2.39301ZM16.657 5.92901L10.293 12.293L11.707 13.707L18.071 7.34301L16.657 5.92901ZM4.28198 16.889L7.11098 19.718L5.69698 21.132L1.45398 19.718L4.28198 16.889Z"/></svg>