<svg viewBox="0 0 24 24" xmlns="http://www.w3.org/2000/svg"><path d="M3.01805 12.008C2.98605 10.748 3.00605 9.56 3.00605 8.566C3.00605 4.228 5.84905 2.956 5.84905 2.956C7.28205 2.298 9.74105 2.021 12.2991 2H12.3611C14.9181 2.02 17.3791 2.298 18.8121 2.956C18.8121 2.956 21.6551 4.228 21.6551 8.566C21.6551 8.566 21.6911 11.767 21.2591 13.99C20.9841 15.4 18.802 16.945 16.2961 17.244C14.9901 17.4 13.7031 17.544 12.3311 17.48C10.0881 17.377 8.31705 16.945 8.31705 16.945C8.31705 17.163 8.33105 17.371 8.35705 17.565C8.44105 18.198 8.65605 18.66 8.96205 19C9.72805 19.85 11.0681 19.93 12.3571 19.974C14.1771 20.037 15.7971 19.525 15.7971 19.525L15.8731 21.171C15.8731 21.171 14.5991 21.855 12.3311 21.981C11.0811 22.049 9.52805 21.949 7.71905 21.471C6.18705 21.065 5.15105 20.181 4.44905 19C3.35605 17.157 3.08105 14.594 3.01805 12.008ZM6.31805 16.945V14.397L8.79205 15.002C9.22363 15.0977 9.65819 15.1794 10.0951 15.247C10.8481 15.363 11.6331 15.447 12.4231 15.482C13.4421 15.529 14.3241 15.465 16.0591 15.258C17.7221 15.059 19.2071 14.062 19.2951 13.608C19.3771 13.186 19.4461 12.686 19.5011 12.126C19.5718 11.3794 19.6175 10.6307 19.6381 9.881C19.6531 9.371 19.6581 8.936 19.6551 8.625V8.566C19.6551 7.136 19.2861 6.128 18.692 5.408C18.5227 5.20012 18.3263 5.01582 18.1081 4.86C18.0181 4.796 17.9731 4.771 17.9781 4.773C16.9651 4.308 14.8851 4.021 12.3611 4H12.3151C9.77505 4.02 7.69505 4.308 6.66505 4.782C6.68805 4.772 6.64405 4.796 6.55305 4.86C6.33483 5.01582 6.13842 5.20012 5.96905 5.408C5.37505 6.128 5.00605 7.137 5.00605 8.566C5.00605 8.798 5.00605 8.963 5.00305 9.441C4.99408 10.2804 4.99875 11.1198 5.01705 11.959C5.07105 14.156 5.28105 15.794 5.71705 17C5.92905 17.587 6.18905 18.07 6.49705 18.45C6.37032 17.9586 6.30978 17.4524 6.31705 16.945H6.31805ZM8.08405 6.37C8.38733 6.37 8.67818 6.49048 8.89263 6.70492C9.10708 6.91937 9.22755 7.21023 9.22755 7.5135C9.22755 7.81678 9.10708 8.10763 8.89263 8.32208C8.67818 8.53652 8.38733 8.657 8.08405 8.657C7.78078 8.657 7.48992 8.53652 7.27547 8.32208C7.06103 8.10763 6.94055 7.81678 6.94055 7.5135C6.94055 7.21023 7.06103 6.91937 7.27547 6.70492C7.48992 6.49048 7.78078 6.37 8.08405 6.37Z"/></svg>