<svg viewBox="0 0 24 24" xmlns="http://www.w3.org/2000/svg"><path d="M18.5 2C19.617 1.9994 20.6944 2.41432 21.5225 3.16405C22.3507 3.91378 22.8703 4.94472 22.9805 6.05637C23.0906 7.16801 22.7833 8.28088 22.1184 9.17852C21.4535 10.0762 20.4784 10.6944 19.383 10.913C19.8904 12.1288 20.0898 13.4512 19.9633 14.7626C19.8368 16.074 19.3884 17.3338 18.6579 18.4303C17.9274 19.5267 16.9374 20.4257 15.7758 21.0475C14.6143 21.6693 13.3172 21.9946 11.9997 21.9945C10.6822 21.9944 9.38514 21.6689 8.2237 21.047C7.06225 20.425 6.07238 19.5259 5.34202 18.4294C4.61166 17.3328 4.16342 16.0729 4.0371 14.7615C3.91079 13.4501 4.11031 12.1278 4.61796 10.912C3.52169 10.6945 2.54561 10.0768 1.87982 9.17913C1.21403 8.28146 0.906196 7.16811 1.01627 6.05591C1.12634 4.94371 1.64644 3.9123 2.47527 3.16255C3.3041 2.41279 4.38233 1.99837 5.49996 2C6.6508 2.00007 7.75788 2.44106 8.59357 3.2323C9.42926 4.02354 9.93005 5.10488 9.99296 6.254C10.6485 6.08473 11.3229 5.99938 12 6C12.693 6 13.365 6.08801 14.006 6.254C14.0689 5.10471 14.5698 4.02322 15.4057 3.23196C16.2416 2.44069 17.3489 1.99982 18.5 2Z"/></svg>