<svg viewBox="0 0 24 24" xmlns="http://www.w3.org/2000/svg"><path d="M19.2281 18.732L20.9961 16.964L22.7631 18.732C23.1128 19.0816 23.3509 19.527 23.4475 20.012C23.544 20.497 23.4945 20.9997 23.3053 21.4565C23.1161 21.9134 22.7957 22.3039 22.3846 22.5786C21.9734 22.8533 21.49 23 20.9956 23C20.5011 23 20.0177 22.8533 19.6066 22.5786C19.1954 22.3039 18.875 21.9134 18.6858 21.4565C18.4966 20.9997 18.4471 20.497 18.5436 20.012C18.6402 19.527 18.8784 19.0816 19.2281 18.732ZM8.87806 1.07996L20.1921 12.393C20.285 12.4858 20.3588 12.5961 20.4091 12.7175C20.4594 12.8389 20.4853 12.969 20.4853 13.1005C20.4853 13.2319 20.4594 13.362 20.4091 13.4834C20.3588 13.6048 20.285 13.7151 20.1921 13.808L11.7071 22.293C11.5195 22.4804 11.2652 22.5857 11.0001 22.5857C10.7349 22.5857 10.4806 22.4804 10.2931 22.293L1.80806 13.808C1.71508 13.7151 1.64132 13.6048 1.591 13.4834C1.54067 13.362 1.51477 13.2319 1.51477 13.1005C1.51477 12.969 1.54067 12.8389 1.591 12.7175C1.64132 12.5961 1.71508 12.4858 1.80806 12.393L9.58606 4.61496L7.46406 2.49396L8.88006 1.07996H8.87806ZM11.0001 6.02996L3.92906 13.1H18.0701L11.0001 6.02996Z"/></svg>