<svg viewBox="0 0 24 24" xmlns="http://www.w3.org/2000/svg"><path d="M5.00007 13.0001C5.00007 7.91212 7.90307 3.56412 12.0001 1.81812C16.0971 3.56412 19.0001 7.91212 19.0001 13.0001C19.0001 13.8231 18.9241 14.6261 18.7801 15.4031L20.7201 17.2351C20.8003 17.311 20.8531 17.4114 20.8703 17.5204C20.8875 17.6295 20.868 17.7412 20.8151 17.8381L18.3201 22.4131C18.2829 22.4814 18.2302 22.5401 18.1664 22.5845C18.1025 22.6289 18.0291 22.6578 17.9521 22.6688C17.8751 22.6799 17.7966 22.6729 17.7228 22.6483C17.6491 22.6237 17.582 22.5822 17.5271 22.5271L15.2931 20.2931C15.1056 20.1056 14.8513 20.0002 14.5861 20.0001H9.41407C9.14888 20.0002 8.89457 20.1056 8.70707 20.2931L6.47307 22.5271C6.41813 22.5822 6.35109 22.6237 6.2773 22.6483C6.20351 22.6729 6.125 22.6799 6.048 22.6688C5.97101 22.6578 5.89766 22.6289 5.83379 22.5845C5.76992 22.5401 5.71728 22.4814 5.68007 22.4131L3.18507 17.8381C3.1321 17.7412 3.11269 17.6295 3.12987 17.5204C3.14706 17.4114 3.19987 17.311 3.28007 17.2351L5.22007 15.4031C5.07707 14.6261 5.00007 13.8231 5.00007 13.0001ZM6.47607 19.6961L7.29307 18.8791C7.85555 18.3165 8.61849 18.0003 9.41407 18.0001H14.5861C15.3817 18.0003 16.1446 18.3165 16.7071 18.8791L17.5241 19.6961L18.5061 17.8961L17.4061 16.8561C17.163 16.6265 16.9813 16.3396 16.8777 16.0217C16.7741 15.7037 16.7519 15.3649 16.8131 15.0361C16.9371 14.3721 17.0001 13.6911 17.0001 13.0001C17.0001 9.13012 15.0051 5.70012 12.0001 4.04012C8.99507 5.70012 7.00007 9.13012 7.00007 13.0001C7.00007 13.6911 7.06307 14.3721 7.18707 15.0371C7.24826 15.3659 7.22604 15.7047 7.12245 16.0227C7.01885 16.3406 6.83719 16.6275 6.59407 16.8571L5.49407 17.8961L6.47607 19.6961ZM12.0001 13.0001C11.4696 13.0001 10.9609 12.7894 10.5859 12.4143C10.2108 12.0393 10.0001 11.5305 10.0001 11.0001C10.0001 10.4697 10.2108 9.96097 10.5859 9.5859C10.9609 9.21083 11.4696 9.00012 12.0001 9.00012C12.5305 9.00012 13.0392 9.21083 13.4143 9.5859C13.7894 9.96097 14.0001 10.4697 14.0001 11.0001C14.0001 11.5305 13.7894 12.0393 13.4143 12.4143C13.0392 12.7894 12.5305 13.0001 12.0001 13.0001Z"/></svg>