<svg viewBox="0 0 24 24" xmlns="http://www.w3.org/2000/svg"><path d="M8.68588 4.00037L11.2929 1.39337C11.4804 1.2059 11.7347 1.10059 11.9999 1.10059C12.265 1.10059 12.5194 1.2059 12.7069 1.39337L15.3139 4.00037H18.9999C19.2651 4.00037 19.5195 4.10573 19.707 4.29327C19.8945 4.4808 19.9999 4.73516 19.9999 5.00037V8.68637L22.6069 11.2934C22.7944 11.4809 22.8997 11.7352 22.8997 12.0004C22.8997 12.2655 22.7944 12.5198 22.6069 12.7074L19.9999 15.3144V19.0004C19.9999 19.2656 19.8945 19.5199 19.707 19.7075C19.5195 19.895 19.2651 20.0004 18.9999 20.0004H15.3139L12.7069 22.6074C12.5194 22.7948 12.265 22.9002 11.9999 22.9002C11.7347 22.9002 11.4804 22.7948 11.2929 22.6074L8.68588 20.0004H4.99988C4.73467 20.0004 4.48031 19.895 4.29278 19.7075C4.10524 19.5199 3.99988 19.2656 3.99988 19.0004V15.3144L1.39288 12.7074C1.20541 12.5198 1.1001 12.2655 1.1001 12.0004C1.1001 11.7352 1.20541 11.4809 1.39288 11.2934L3.99988 8.68637V5.00037C3.99988 4.73516 4.10524 4.4808 4.29278 4.29327C4.48031 4.10573 4.73467 4.00037 4.99988 4.00037H8.68588ZM11.9999 15.0004C12.7955 15.0004 13.5586 14.6843 14.1212 14.1217C14.6838 13.5591 14.9999 12.796 14.9999 12.0004C14.9999 11.2047 14.6838 10.4417 14.1212 9.87905C13.5586 9.31644 12.7955 9.00037 11.9999 9.00037C11.2042 9.00037 10.4412 9.31644 9.87856 9.87905C9.31595 10.4417 8.99988 11.2047 8.99988 12.0004C8.99988 12.796 9.31595 13.5591 9.87856 14.1217C10.4412 14.6843 11.2042 15.0004 11.9999 15.0004Z"/></svg>