<svg viewBox="0 0 24 24" xmlns="http://www.w3.org/2000/svg"><path d="M13.576 17.2706L8.46596 14.4836C7.97545 14.9705 7.35177 15.3013 6.67355 15.4342C5.99532 15.5672 5.29292 15.4964 4.65488 15.2307C4.01685 14.9651 3.47175 14.5164 3.08831 13.9414C2.70486 13.3664 2.50024 12.6908 2.50024 11.9996C2.50024 11.3085 2.70486 10.6328 3.08831 10.0578C3.47175 9.4828 4.01685 9.03419 4.65488 8.76852C5.29292 8.50286 5.99532 8.43204 6.67355 8.56499C7.35177 8.69795 7.97545 9.02873 8.46596 9.51562L13.576 6.72862C13.4007 5.90636 13.5273 5.04848 13.9326 4.31188C14.3378 3.57527 14.9947 3.00915 15.7831 2.71706C16.5714 2.42496 17.4386 2.4264 18.226 2.72111C19.0134 3.01582 19.6683 3.58411 20.0712 4.32206C20.474 5.06001 20.5977 5.9183 20.4197 6.73998C20.2418 7.56165 19.7739 8.29181 19.1019 8.79692C18.4298 9.30204 17.5983 9.54835 16.7596 9.49082C15.9208 9.43329 15.1308 9.07577 14.534 8.48362L9.42396 11.2706C9.52589 11.7513 9.52589 12.248 9.42396 12.7286L14.534 15.5156C15.1308 14.9235 15.9208 14.566 16.7596 14.5084C17.5983 14.4509 18.4298 14.6972 19.1019 15.2023C19.7739 15.7074 20.2418 16.4376 20.4197 17.2593C20.5977 18.0809 20.474 18.9392 20.0712 19.6772C19.6683 20.4151 19.0134 20.9834 18.226 21.2781C17.4386 21.5728 16.5714 21.5743 15.7831 21.2822C14.9947 20.9901 14.3378 20.424 13.9326 19.6874C13.5273 18.9508 13.4007 18.0929 13.576 17.2706Z"/></svg>