<svg viewBox="0 0 24 24" xmlns="http://www.w3.org/2000/svg"><path d="M2.80794 1.39294L20.4849 19.0709L19.0709 20.4849L15.3879 16.8029L11.9999 20.9999L0.689941 6.99694C1.60394 6.25694 2.59194 5.60594 3.63994 5.05494L1.39394 2.80794L2.80894 1.39294H2.80794ZM3.57894 7.39194L11.9999 17.8169L13.9669 15.3799L5.13194 6.54394C4.59994 6.79794 4.08194 7.07994 3.57994 7.39194H3.57894ZM11.9999 2.99994C16.2839 2.99994 20.2199 4.49694 23.3099 6.99594L17.9029 13.6889L16.4809 12.2669L20.4199 7.39094C17.9219 5.84094 15.0269 4.99994 11.9999 4.99994C11.1269 4.99994 10.2649 5.06994 9.41994 5.20694L7.72494 3.50994C9.09394 3.17694 10.5269 2.99994 11.9999 2.99994Z"/></svg>