<svg viewBox="0 0 24 24" xmlns="http://www.w3.org/2000/svg"><path d="M13.0039 18.4229C13.4278 18.3575 13.8614 18.4301 14.2409 18.6299C14.8547 18.9526 15.5556 19.0705 16.2411 18.9664C16.9267 18.8623 17.561 18.5416 18.0513 18.0513C18.5416 17.561 18.8623 16.9267 18.9664 16.2411C19.0705 15.5556 18.9526 14.8547 18.6299 14.2409C18.4301 13.8614 18.3575 13.4278 18.4229 13.0039C18.5812 11.9925 18.4984 10.9579 18.1812 9.98451C17.8639 9.01113 17.3212 8.12644 16.5973 7.40252C15.8734 6.6786 14.9887 6.13592 14.0153 5.81867C13.0419 5.50143 12.0074 5.41859 10.9959 5.57691C10.5721 5.64233 10.1384 5.56976 9.75891 5.36991C9.14504 5.047 8.44396 4.92896 7.7582 5.03305C7.07243 5.13714 6.43795 5.45789 5.94754 5.94841C5.45714 6.43893 5.13652 7.07348 5.03259 7.75927C4.92866 8.44506 5.04686 9.14612 5.36991 9.75991C5.56976 10.1394 5.64233 10.5731 5.57691 10.9969C5.41859 12.0084 5.50143 13.0429 5.81867 14.0163C6.13592 14.9897 6.6786 15.8744 7.40252 16.5983C8.12644 17.3222 9.01113 17.8649 9.98451 18.1822C10.9579 18.4994 11.9925 18.5822 13.0039 18.4239V18.4229ZM11.9999 20.4999C10.7728 20.5001 9.56013 20.2347 8.44534 19.7217C7.33054 19.2088 6.34004 18.4605 5.54189 17.5284C4.74375 16.5963 4.15689 15.5024 3.82167 14.3219C3.48644 13.1414 3.41079 11.9024 3.59991 10.6899C3.07865 9.69842 2.88817 8.5662 3.05632 7.45873C3.22448 6.35125 3.74244 5.3266 4.53452 4.53452C5.3266 3.74244 6.35125 3.22448 7.45873 3.05632C8.5662 2.88817 9.69842 3.07865 10.6899 3.59991C12.0122 3.39336 13.3646 3.50197 14.637 3.91689C15.9094 4.33181 17.0658 5.04132 18.0122 5.98766C18.9585 6.93401 19.668 8.09044 20.0829 9.36284C20.4979 10.6352 20.6065 11.9876 20.3999 13.3099C20.9212 14.3014 21.1117 15.4336 20.9435 16.5411C20.7754 17.6486 20.2574 18.6732 19.4653 19.4653C18.6732 20.2574 17.6486 20.7754 16.5411 20.9435C15.4336 21.1117 14.3014 20.9212 13.3099 20.3999C12.8829 20.4659 12.4449 20.4999 11.9999 20.4999ZM12.0529 16.9999C9.24991 16.9999 7.99991 15.6199 7.99991 14.5859C7.99991 14.0539 8.38991 13.6839 8.92791 13.6839C10.1279 13.6839 9.81491 15.4089 12.0529 15.4089C13.1959 15.4089 13.8289 14.7849 13.8289 14.1479C13.8289 13.7639 13.6409 13.3399 12.8859 13.1519L10.3959 12.5289C8.38991 12.0249 8.02591 10.9369 8.02591 9.91691C8.02591 7.79691 10.0179 6.99991 11.8899 6.99991C13.6099 6.99991 15.6459 7.95591 15.6459 9.22791C15.6459 9.77291 15.1659 10.0909 14.6339 10.0909C13.6109 10.0909 13.7989 8.67291 11.7339 8.67291C10.7109 8.67291 10.1379 9.13491 10.1379 9.79891C10.1379 10.4619 10.9409 10.6749 11.6399 10.8339L13.4759 11.2429C15.4899 11.6949 15.9999 12.8759 15.9999 13.9889C15.9999 15.7129 14.6749 16.9999 12.0149 16.9999H12.0529Z"/></svg>