<svg viewBox="0 0 24 24" xmlns="http://www.w3.org/2000/svg"><path d="M14.2656 8.0752L16.9844 6.50586L17.417 6.25586L17.667 6.68945L19.4326 9.74805L19.6826 10.1807L19.25 10.4307L16.5312 12L19.25 13.5693L19.6826 13.8193L19.4326 14.2529L17.667 17.3115L17.417 17.7441L16.9844 17.4941L14.2656 15.9238V19.5635H9.73438V15.9238L7.01562 17.4941L6.58301 17.7441L6.33301 17.3115L4.56738 14.2529L4.31738 13.8193L4.75 13.5693L7.46777 12L4.75 10.4307L4.31738 10.1807L4.56738 9.74805L6.33301 6.68945L6.58301 6.25586L7.01562 6.50586L9.73438 8.0752V4.43652H14.2656V8.0752ZM10.7344 9.80762L9.98438 9.375L6.94824 7.62207L5.68262 9.81445L8.71777 11.5674L9.46777 12L8.71777 12.4326L5.68164 14.1855L6.94824 16.3779L9.98438 14.626L10.7344 14.1924V18.5635H13.2656V14.1924L14.0156 14.626L17.0508 16.3779L18.3174 14.1855L15.2822 12.4326L14.5322 12L15.2822 11.5674L18.3164 9.81445L17.0508 7.62207L14.0156 9.375L13.2656 9.80762V5.43652H10.7344V9.80762Z"/></svg>