<svg viewBox="0 0 24 24" xmlns="http://www.w3.org/2000/svg"><path d="M9.98404 5.06026C10.3897 4.28768 10.9468 3.60469 11.622 3.05201C12.2973 2.49933 13.0769 2.08827 13.9145 1.84334C14.752 1.59841 15.6303 1.52462 16.4969 1.62638C17.3636 1.72814 18.2009 2.00335 18.9589 2.43562C19.7169 2.86789 20.3801 3.44836 20.909 4.14243C21.4379 4.83649 21.8216 5.62994 22.0373 6.47548C22.253 7.32101 22.2962 8.20131 22.1644 9.06391C22.0325 9.9265 21.7284 10.7537 21.27 11.4963C22.0722 12.2516 22.6289 13.2305 22.8681 14.306C23.1074 15.3815 23.0181 16.5041 22.6118 17.5282C22.2056 18.5524 21.5011 19.4309 20.5896 20.05C19.6782 20.6691 18.6018 21.0001 17.5 21.0003L9.00004 20.9993C7.90846 20.9984 6.8286 20.7742 5.82691 20.3404C4.82523 19.9066 3.92291 19.2724 3.17551 18.4769C2.4281 17.6813 1.85142 16.7412 1.48094 15.7144C1.11047 14.6876 0.954047 13.5959 1.0213 12.5063C1.08856 11.4168 1.37807 10.3526 1.87202 9.37919C2.36597 8.40577 3.05391 7.54372 3.89349 6.84612C4.73307 6.14851 5.70654 5.63011 6.75397 5.32281C7.80141 5.01551 8.90065 4.92582 9.98404 5.05926V5.06026ZM12.055 5.60426C13.0539 6.01829 13.9588 6.62987 14.7154 7.40229C15.472 8.17472 16.0648 9.09206 16.458 10.0993C17.5059 9.89842 18.5894 10.005 19.578 10.4063C20.0416 9.41702 20.1295 8.29292 19.8252 7.24367C19.521 6.19442 18.8455 5.29166 17.9247 4.70381C17.0038 4.11596 15.9006 3.88317 14.8208 4.04885C13.741 4.21453 12.7583 4.76738 12.056 5.60426H12.055Z"/></svg>