<svg viewBox="0 0 24 24" xmlns="http://www.w3.org/2000/svg"><path d="M17.172 13.9999H14.5V15.3749C15.05 15.1539 15.653 14.8849 16.312 14.5649L16.23 14.3269L17.172 13.9999ZM18 13.7129L18.12 13.6709C18.761 15.5219 19.154 16.6829 19.305 17.1709L17.393 17.7609C17.319 17.5209 17.177 17.0889 16.966 16.4679C10.885 19.3529 8.29497 18.5219 7.95797 14.5609L9.95097 14.3909C10.051 15.5559 10.295 16.0129 10.848 16.1429C11.241 16.2359 11.788 16.2059 12.5 16.0389V13.9999H8.99997V11.9999H9.51297L8.34597 10.6099C9.38897 9.73392 10.204 8.77992 10.794 7.74592C10.276 7.88092 9.75697 8.02592 9.24297 8.18092C8.72898 8.93982 8.14148 9.64623 7.48897 10.2899L6.08897 8.86192C7.36097 7.61392 8.42197 5.95192 9.26497 3.86792L11.119 4.61792C10.9692 4.98928 10.8091 5.35642 10.639 5.71892C14.341 4.78292 17.914 4.40192 19.777 5.03892C21 5.45692 21.696 6.42992 21.964 7.62292C22.134 8.37892 22.277 10.3119 22.277 12.7459C22.277 15.5529 22.221 16.5159 21.937 17.3679C21.64 18.2579 21.241 18.7859 20.53 19.3519C19.873 19.8749 18.977 20.1149 17.885 20.1749C17.212 20.2119 16.517 20.1779 15.79 20.0949C15.5909 20.073 15.3922 20.048 15.194 20.0199L15.458 18.0379C15.6432 18.0622 15.8285 18.0855 16.014 18.1079C16.639 18.1779 17.23 18.2079 17.776 18.1779C18.49 18.1379 19.021 17.9969 19.284 17.7879C19.71 17.4479 19.875 17.2299 20.04 16.7339C20.226 16.1799 20.277 15.2859 20.277 12.7459C20.277 10.4469 20.144 8.64392 20.013 8.06292C19.883 7.48592 19.603 7.09292 19.13 6.93092C17.923 6.51892 15.329 6.73692 12.478 7.34792L13.093 7.60992C12.963 7.91192 12.82 8.20992 12.663 8.49992H18V10.4999H14.5V11.9999H18V13.7129ZM12.5 10.4999H11.292C10.8335 11.0377 10.334 11.5392 9.79797 11.9999H12.5V10.4999ZM2.46097 10.0619L3.53997 8.37692C4.60197 9.05592 6.47497 10.8039 6.87797 11.5379C8.11697 13.7979 7.07497 15.7139 3.75597 19.5349L2.24597 18.2239C4.93297 15.1299 5.74597 13.6339 5.12397 12.4999C4.90997 12.1099 3.26697 10.5759 2.46197 10.0619H2.46097ZM5.14097 7.58292C4.09197 7.58292 3.25797 6.82092 3.25297 5.88992C3.25297 4.94992 4.09297 4.18892 5.13997 4.18892C6.17997 4.18892 7.02297 4.94692 7.02297 5.88992C7.02297 6.82492 6.17997 7.58292 5.13997 7.58292H5.14097Z"/></svg>