<svg viewBox="0 0 24 24" xmlns="http://www.w3.org/2000/svg"><path d="M20.556 3.44396C22.118 5.00596 22.118 7.53796 20.556 9.10096L12.356 17.301C11.714 17.943 10.872 18.348 9.96905 18.448L6.59105 18.822L4.29305 21.122C3.90305 21.512 3.26905 21.512 2.87905 21.122C2.48905 20.731 2.48905 20.098 2.87905 19.707L5.17705 17.408L5.55205 14.031C5.65205 13.128 6.05705 12.286 6.69905 11.644L14.899 3.44396C16.462 1.88196 18.994 1.88196 20.556 3.44396ZM11.364 12.636L9.95005 14.05L12.071 16.172L13.485 14.757L11.364 12.636ZM14.192 9.80796L12.778 11.222L14.899 13.343L16.314 11.929L14.192 9.80796ZM17.021 6.97896L15.607 8.39296L17.727 10.515L19.143 9.09996L17.022 6.97796L17.021 6.97896Z"/></svg>