<svg viewBox="0 0 24 24" xmlns="http://www.w3.org/2000/svg"><path d="M5.33004 3.27099C5.95409 3.04837 6.62851 3.00745 7.2749 3.15299C7.92129 3.29854 8.51308 3.62457 8.98148 4.09319C9.44989 4.5618 9.77565 5.15374 9.92091 5.80019C10.0662 6.44664 10.0249 7.12105 9.80204 7.74499L20.647 18.59L18.525 20.711L7.68004 9.86699C7.05599 10.0896 6.38157 10.1305 5.73519 9.98499C5.0888 9.83945 4.497 9.51341 4.0286 9.0448C3.5602 8.57619 3.23443 7.98425 3.08918 7.3378C2.94392 6.69135 2.98514 6.01694 3.20804 5.39299L5.44404 7.62999C5.58241 7.77326 5.74793 7.88753 5.93094 7.96615C6.11394 8.04476 6.31077 8.08614 6.50994 8.08787C6.70911 8.0896 6.90663 8.05165 7.09097 7.97623C7.27532 7.9008 7.4428 7.78943 7.58364 7.64859C7.72447 7.50775 7.83585 7.34027 7.91128 7.15592C7.9867 6.97158 8.02465 6.77406 8.02292 6.57489C8.02119 6.37572 7.97981 6.17889 7.9012 5.99589C7.82258 5.81288 7.70831 5.64736 7.56504 5.50899L5.32904 3.26999L5.33004 3.27099ZM15.697 5.15499L18.879 3.38699L20.293 4.80099L18.525 7.98299L16.757 8.33699L14.637 10.458L13.222 9.04399L15.343 6.92299L15.697 5.15499ZM8.62604 12.933L10.747 15.055L5.79704 20.005C5.52408 20.2754 5.15776 20.4308 4.77362 20.439C4.38949 20.4473 4.01683 20.3078 3.7325 20.0494C3.44816 19.791 3.27384 19.4333 3.24547 19.0501C3.21711 18.6669 3.33686 18.2875 3.58004 17.99L3.67704 17.883L8.62704 12.933H8.62604Z"/></svg>