<svg viewBox="0 0 24 24" xmlns="http://www.w3.org/2000/svg"><path d="M8.94997 8.53746C10.4624 7.38343 12.3569 6.84729 14.2498 7.03762C16.1427 7.22795 17.8926 8.13052 19.145 9.56256C20.3974 10.9946 21.0589 12.8491 20.9953 14.7505C20.9318 16.6519 20.148 18.4581 18.8028 19.8033C17.4576 21.1485 15.6514 21.9323 13.75 21.9958C11.8486 22.0593 9.99411 21.3979 8.56207 20.1455C7.13003 18.8931 6.22746 17.1432 6.03713 15.2503C5.8468 13.3574 6.38294 11.4629 7.53697 9.95046L4.66197 7.07546L2.18597 9.55046L0.771973 8.13646L7.13597 1.77246L8.54997 3.18646L6.07497 5.66146L8.95097 8.53746H8.94997ZM13.5 20.0005C14.9587 20.0005 16.3576 19.421 17.3891 18.3895C18.4205 17.3581 19 15.9592 19 14.5005C19 13.0418 18.4205 11.6428 17.3891 10.6114C16.3576 9.57992 14.9587 9.00046 13.5 9.00046C12.0413 9.00046 10.6423 9.57992 9.61088 10.6114C8.57943 11.6428 7.99997 13.0418 7.99997 14.5005C7.99997 15.9592 8.57943 17.3581 9.61088 18.3895C10.6423 19.421 12.0413 20.0005 13.5 20.0005Z"/></svg>