<svg viewBox="0 0 24 24" xmlns="http://www.w3.org/2000/svg"><path d="M7.38999 16.5388C6.00145 15.5596 4.96074 14.1638 4.41862 12.5535C3.87651 10.9432 3.86115 9.20216 4.37479 7.58258C4.88842 5.96299 5.90435 4.549 7.27541 3.54547C8.64646 2.54193 10.3014 2.00098 12.0005 2.00098C13.6996 2.00098 15.3545 2.54193 16.7256 3.54547C18.0966 4.549 19.1126 5.96299 19.6262 7.58258C20.1398 9.20216 20.1245 10.9432 19.5824 12.5535C19.0402 14.1638 17.9995 15.5596 16.611 16.5388L18.694 21.2988C18.7274 21.375 18.7413 21.4583 18.7344 21.5413C18.7275 21.6242 18.7001 21.7041 18.6545 21.7737C18.6089 21.8433 18.5467 21.9005 18.4734 21.94C18.4001 21.9794 18.3182 22 18.235 21.9998H5.76499C5.6819 21.9999 5.6001 21.9794 5.52697 21.9399C5.45383 21.9005 5.39168 21.8435 5.34612 21.774C5.30056 21.7045 5.27303 21.6248 5.26603 21.542C5.25902 21.4592 5.27275 21.376 5.30599 21.2998L7.38899 16.5388H7.38999ZM8.11899 10.9698C8.33654 11.8343 8.83649 12.6014 9.53956 13.1495C10.2426 13.6975 11.1085 13.9952 12 13.9952C12.8914 13.9952 13.7574 13.6975 14.4604 13.1495C15.1635 12.6014 15.6634 11.8343 15.881 10.9698L13.941 10.4848C13.8333 10.9182 13.5837 11.303 13.232 11.5781C12.8802 11.8532 12.4465 12.0026 12 12.0026C11.5535 12.0026 11.1198 11.8532 10.768 11.5781C10.4162 11.303 10.1666 10.9182 10.059 10.4848L8.11899 10.9698Z"/></svg>