<svg viewBox="0 0 24 24" xmlns="http://www.w3.org/2000/svg"><path d="M7.61702 8.712L10.822 6.384C11.1818 6.1207 11.6194 5.98551 12.065 6C12.6085 6.01355 13.1343 6.19611 13.5693 6.52228C14.0042 6.84846 14.3268 7.30205 14.492 7.82C14.678 8.403 14.848 8.797 15.002 9.002C15.4673 9.6228 16.0709 10.1266 16.7649 10.4734C17.1593 10.6705 17.5767 10.8138 18.0059 10.9007C18.5475 11.0104 19 11.4483 19 12.0009C19 12.5528 18.5507 13.0078 18.0044 12.9298C17.3164 12.8315 16.6451 12.6308 16.0131 12.3329C15.079 11.8925 14.2542 11.2504 13.598 10.453L12.901 14.408L14.962 16.138L16.8429 21.3059C17.0318 21.8251 16.7641 22.3991 16.2449 22.588C15.7258 22.7769 15.1519 22.5093 14.9629 21.9902L13.265 17.326L9.87502 14.481C9.59682 14.2564 9.38394 13.9612 9.25854 13.6264C9.13314 13.2915 9.09981 12.9291 9.16202 12.577L9.67102 9.692L8.99402 10.184L7.4549 12.3027C7.13025 12.7496 6.50467 12.8486 6.05784 12.5239C5.61115 12.1992 5.5121 11.5739 5.83667 11.1271L7.60002 8.7L7.61702 8.712ZM13.5 5.5C12.9696 5.5 12.4609 5.28929 12.0858 4.91421C11.7107 4.53914 11.5 4.03043 11.5 3.5C11.5 2.96957 11.7107 2.46086 12.0858 2.08579C12.4609 1.71071 12.9696 1.5 13.5 1.5C14.0305 1.5 14.5392 1.71071 14.9142 2.08579C15.2893 2.46086 15.5 2.96957 15.5 3.5C15.5 4.03043 15.2893 4.53914 14.9142 4.91421C14.5392 5.28929 14.0305 5.5 13.5 5.5ZM10.528 18.681L7.95654 21.7453C7.60166 22.1682 6.97119 22.2234 6.54822 21.8687C6.1251 21.5138 6.06988 20.883 6.42491 20.46L8.75802 17.68L9.50402 15.5L11.295 17L10.528 18.681Z"/></svg>