<svg viewBox="0 0 24 24" xmlns="http://www.w3.org/2000/svg"><path d="M8.6671 11.511C8.49801 11.5121 8.33038 11.4797 8.17394 11.4156C8.01749 11.3514 7.87536 11.2568 7.7558 11.1373C7.63623 11.0177 7.54163 10.8756 7.47747 10.7191C7.41332 10.5627 7.3809 10.395 7.3821 10.226C7.3821 9.50795 7.9491 8.93995 8.6671 8.93995C9.3841 8.93995 9.9521 9.50795 9.9521 10.226C9.9521 10.943 9.3841 11.511 8.6671 11.511ZM15.3331 11.511C15.164 11.5121 14.9964 11.4797 14.8399 11.4156C14.6835 11.3514 14.5414 11.2568 14.4218 11.1373C14.3022 11.0177 14.2076 10.8756 14.1435 10.7191C14.0793 10.5627 14.0469 10.395 14.0481 10.226C14.0481 9.50795 14.6161 8.93995 15.3331 8.93995C16.0511 8.93995 16.6181 9.50795 16.6181 10.226C16.6181 10.943 16.0511 11.511 15.3331 11.511ZM6.8231 19.215L7.5381 18.779C8.34773 18.2853 9.3064 18.0953 10.2431 18.243C10.4551 18.276 10.6291 18.302 10.7631 18.319C11.1691 18.373 11.5831 18.4 12.0001 18.4C16.4201 18.4 19.9001 15.378 19.9001 11.8C19.9001 8.22195 16.4201 5.19995 12.0001 5.19995C7.5801 5.19995 4.1001 8.22195 4.1001 11.8C4.1001 13.166 4.6001 14.473 5.5321 15.581C5.5801 15.638 5.6521 15.718 5.7461 15.816C6.13917 16.2253 6.44063 16.7136 6.63046 17.2485C6.82029 17.7833 6.89414 18.3524 6.8471 18.918L6.8221 19.215H6.8231ZM6.1931 21.9419C6.03581 22.0404 5.85425 22.0931 5.66872 22.0942C5.48319 22.0953 5.30101 22.0448 5.14255 21.9483C4.98409 21.8518 4.85561 21.7131 4.77146 21.5477C4.68732 21.3824 4.65084 21.1969 4.6661 21.0119L4.8541 18.752C4.87768 18.4692 4.84084 18.1847 4.74601 17.9173C4.65118 17.6498 4.50054 17.4057 4.3041 17.201C4.19921 17.0932 4.09783 16.9822 4.0001 16.868C2.8061 15.447 2.1001 13.695 2.1001 11.8C2.1001 7.04995 6.5321 3.19995 12.0001 3.19995C17.4681 3.19995 21.9001 7.04995 21.9001 11.8C21.9001 16.55 17.4681 20.4 12.0001 20.4C11.4901 20.4 10.9901 20.367 10.5011 20.302C10.3111 20.2763 10.1214 20.2483 9.9321 20.218C9.46359 20.144 8.98405 20.239 8.5791 20.486L6.1921 21.9419H6.1931Z"/></svg>