<svg width="24" height="24" viewBox="0 0 24 24" fill="none" xmlns="http://www.w3.org/2000/svg">
<path fill-rule="evenodd" clip-rule="evenodd" d="M12 4H7C6.44772 4 6 4.44772 6 5V19C6 19.5523 6.44772 20 7 20H17C17.5523 20 18 19.5523 18 19V10H15C13.3431 10 12 8.65685 12 7V4ZM18 8H15C14.4477 8 14 7.55228 14 7V4H17C17.5523 4 18 4.44772 18 5V8ZM7 2C5.34315 2 4 3.34315 4 5V19C4 20.6569 5.34315 22 7 22H17C18.6569 22 20 20.6569 20 19V5C20 3.34315 18.6569 2 17 2H7Z" fill="black" fill-opacity="0.25"/>
</svg>
