<svg width="24" height="24" viewBox="0 0 24 24" fill="none" xmlns="http://www.w3.org/2000/svg">
<path fill-rule="evenodd" clip-rule="evenodd" d="M17 4H7C6.44771 4 6 4.44772 6 5V18.8333L13.1691 10.4694C13.5917 9.97639 14.3647 10.0106 14.7421 10.5389L18 15.1V5C18 4.44772 17.5523 4 17 4ZM7 2C5.34315 2 4 3.34315 4 5V19C4 20.6569 5.34315 22 7 22H17C18.6569 22 20 20.6569 20 19V5C20 3.34315 18.6569 2 17 2H7ZM9.5 10C10.3284 10 11 9.32843 11 8.5C11 7.67157 10.3284 7 9.5 7C8.67157 7 8 7.67157 8 8.5C8 9.32843 8.67157 10 9.5 10Z" fill="#4778F5"/>
</svg>
