<svg width="24" height="24" viewBox="0 0 24 24" fill="none" xmlns="http://www.w3.org/2000/svg">
<rect width="24" height="24" rx="12" fill="#282B2C"/>
<g clip-path="url(#clip0_1149_17672)">
<path fill-rule="evenodd" clip-rule="evenodd" d="M4.49322 7.53174C4.52106 7.55654 4.54388 7.57535 4.56504 7.59586C4.79096 7.8141 5.01494 8.03431 5.24375 8.24977C5.29506 8.29804 5.29534 8.33117 5.25859 8.38669C4.77918 9.10956 4.60484 9.90156 4.7648 10.741C4.97922 11.8671 5.63659 12.6875 6.71056 13.182C7.34492 13.474 8.01779 13.5489 8.70949 13.4468C9.17434 13.3781 9.60968 13.222 10.007 12.9764C10.0729 12.9357 10.1089 12.9403 10.1627 12.993C10.7465 13.565 11.3339 14.1334 11.917 14.7059C11.9814 14.7693 12.0147 14.7764 12.084 14.709C12.7507 14.0597 13.4227 13.4155 14.0894 12.7662C14.1627 12.6948 14.2086 12.6825 14.3047 12.7383C14.8877 13.0769 15.5229 13.2127 16.2019 13.182C17.55 13.1212 18.7811 12.212 19.1988 10.9638C19.5151 10.0184 19.3978 9.12147 18.8824 8.26831C18.8487 8.2126 18.8456 8.17813 18.8973 8.13004C19.0852 7.95541 19.2678 7.77568 19.4527 7.5981C19.47 7.58162 19.4892 7.56711 19.5078 7.55135C21.4831 10.3534 21.7616 14.8609 18.5836 18.1798C15.2921 21.6172 9.86019 21.8848 6.23338 18.9342C2.55024 15.9377 2.1123 11.0182 4.49322 7.53174Z" fill="white"/>
<path fill-rule="evenodd" clip-rule="evenodd" d="M18.1812 6.42006C14.6465 2.93173 8.89937 3.22752 5.83288 6.28081C5.85069 6.30024 5.86804 6.32084 5.88734 6.33946C7.91317 8.29896 9.93938 10.2581 11.964 12.2188C12.021 12.274 12.0533 12.2673 12.1053 12.2163C12.3668 11.9603 12.6309 11.7069 12.8952 11.4535C14.6036 9.81508 16.3122 8.17672 18.0217 6.53935C18.0676 6.49537 18.1244 6.46206 18.1812 6.42006ZM12.0302 13.456C9.55897 11.0624 7.09436 8.67517 4.62354 6.28188C4.64135 6.25896 4.65564 6.23711 4.67336 6.21821C5.56464 5.26367 6.59908 4.49245 7.80657 3.94367C8.46561 3.64412 9.15053 3.41836 9.86311 3.27024C10.6837 3.09973 11.5133 3.03042 12.3513 3.06678C13.5733 3.11961 14.7427 3.3897 15.8603 3.87105C17.204 4.44973 18.3385 5.29582 19.3013 6.36418C19.357 6.42597 19.325 6.45364 19.2821 6.49475C18.0845 7.64397 16.8874 8.79364 15.6905 9.94358C14.4962 11.091 13.3021 12.2388 12.1077 13.3863C12.0861 13.4071 12.0629 13.4266 12.0302 13.456Z" fill="white"/>
<path fill-rule="evenodd" clip-rule="evenodd" d="M8.84594 11.7783C8.34426 12.2215 7.22909 12.3241 6.49091 11.6122C5.75022 10.8981 5.85163 9.84186 6.338 9.29272C7.17518 10.1224 8.01116 10.951 8.84594 11.7783Z" fill="white"/>
<path fill-rule="evenodd" clip-rule="evenodd" d="M15.333 11.6068C16.1729 10.7941 17.009 9.98504 17.8448 9.17603C18.1982 9.55779 18.3622 10.5324 17.7504 11.2508C17.07 12.0496 15.9475 12.045 15.333 11.6068Z" fill="white"/>
</g>
<defs>
<clipPath id="clip0_1149_17672">
<rect width="18" height="18" fill="white" transform="translate(3 3)"/>
</clipPath>
</defs>
</svg>
