<svg width="24" height="24" viewBox="0 0 24 24" fill="none" xmlns="http://www.w3.org/2000/svg">
<rect width="24" height="24" rx="12" fill="white"/>
<path d="M12 24C18.6274 24 24 18.6274 24 12C24 5.37258 18.6274 0 12 0C5.37258 0 0 5.37258 0 12C0 18.6274 5.37258 24 12 24Z" fill="white"/>
<path d="M22.0023 18.4299H17.2664V12L12 17.1963L6.73368 12V18.4299H1.99774H1.84619C3.96789 21.757 7.71875 24 12 24C16.2813 24 20.0322 21.7944 22.1539 18.4299H22.0023Z" fill="#4C4C4C"/>
<path d="M4.23975 15.6923V5.80503L12 13.4827L19.7603 5.80503V15.6923H23.3565C23.7729 14.4939 24 13.2205 24 11.8722C24 5.31816 18.6246 0 12 0C5.37539 0 0 5.31816 0 11.8722C0 13.2205 0.227129 14.4939 0.643533 15.6923H4.23975Z" fill="#FF6B01"/>
</svg>
