<svg width="24" height="24" viewBox="0 0 24 24" fill="none" xmlns="http://www.w3.org/2000/svg">
<rect width="24" height="24" rx="12" fill="#23292F"/>
<path d="M16.9494 6H18.9728L14.7619 10.3155C13.2369 11.8775 10.7645 11.8775 9.23846 10.3155L5.02588 6H7.05096L10.2502 9.27821C10.7163 9.75371 11.3445 10.0203 11.9989 10.0203C12.6534 10.0203 13.2816 9.75371 13.7477 9.27821L16.9494 6Z" fill="white"/>
<path d="M7.0248 17.9999H5L9.23828 13.6578C10.7632 12.0958 13.2357 12.0958 14.7617 13.6578L19 17.9999H16.9766L13.75 14.6951C13.2839 14.2196 12.6557 13.953 12.0012 13.953C11.3468 13.953 10.7186 14.2196 10.2525 14.6951L7.0248 17.9999Z" fill="white"/>
</svg>
