<svg width="24" height="24" viewBox="0 0 24 24" fill="none" xmlns="http://www.w3.org/2000/svg">
<g clip-path="url(#clip0_579_32765)">
<path d="M12 24C18.6274 24 24 18.6274 24 12C24 5.37258 18.6274 0 12 0C5.37258 0 0 5.37258 0 12C0 18.6274 5.37258 24 12 24Z" fill="#F0F0F0"/>
<path d="M0 11.9999C0 16.5484 2.53078 20.5056 6.26086 22.5408V1.45898C2.53078 3.4942 0 7.45139 0 11.9999Z" fill="#D80027"/>
<path d="M0 11.9999C0 17.5443 3.76036 22.2095 8.86955 23.5865V0.41333C3.76036 1.79033 0 6.45561 0 11.9999Z" fill="#0052B4"/>
<path d="M4.30444 4.17383V6.13034C4.30444 7.10286 5.09279 7.8912 6.0653 7.8912C7.03782 7.8912 7.82616 7.10286 7.82616 6.13034V4.17383H4.30444Z" fill="#D80027"/>
<path d="M6.06528 6.84794C5.6697 6.84794 5.3479 6.52614 5.3479 6.13056V5.21753H6.7827V6.13056C6.7827 6.52614 6.46085 6.84794 6.06528 6.84794Z" fill="#F0F0F0"/>
<path d="M13.0434 12.5218H9.91298C9.91298 11.9455 9.44578 11.4783 8.86949 11.4783C8.29321 11.4783 7.82601 11.9455 7.82601 12.5218H4.69556C4.69556 13.0981 5.19754 13.5652 5.77378 13.5652H5.73904C5.73904 14.1416 6.20615 14.6087 6.78253 14.6087C6.78253 15.1851 7.24963 15.6522 7.82601 15.6522H9.91298C10.4893 15.6522 10.9565 15.1851 10.9565 14.6087C11.5327 14.6087 11.9999 14.1416 11.9999 13.5652H11.9652C12.5414 13.5652 13.0434 13.0981 13.0434 12.5218Z" fill="#FFDA44"/>
<path d="M13.4723 10.8518L13.1984 11.2904L13.5307 11.6864L13.0289 11.5615L12.7549 11.9999L12.7188 11.4841L12.217 11.359L12.6966 11.1653L12.6605 10.6494L12.9929 11.0456L13.4723 10.8518Z" fill="#FFDA44"/>
<path d="M11.8737 9.5105L11.7663 10.0163L12.2141 10.2748L11.6998 10.3291L11.5923 10.8348L11.3819 10.3624L10.8677 10.4164L11.252 10.0704L11.0417 9.59806L11.4895 9.85658L11.8737 9.5105Z" fill="#FFDA44"/>
<path d="M9.9129 8.79688L9.98486 9.30898L10.4941 9.39875L10.0293 9.62544L10.1013 10.1375L9.74214 9.76555L9.27733 9.99223L9.52009 9.53562L9.16089 9.16372L9.67019 9.25344L9.9129 8.79688Z" fill="#FFDA44"/>
<path d="M7.82603 8.79688L8.06884 9.25344L8.57804 9.16367L8.21884 9.53572L8.46161 9.99228L7.99689 9.76555L7.63764 10.1375L7.70964 9.62544L7.24487 9.3988L7.75408 9.30898L7.82603 8.79688Z" fill="#FFDA44"/>
<path d="M5.86541 9.5105L6.24969 9.85658L6.69744 9.59806L6.48726 10.0706L6.8714 10.4165L6.35722 10.3624L6.1468 10.8348L6.03946 10.329L5.52515 10.275L5.9729 10.0164L5.86541 9.5105Z" fill="#FFDA44"/>
<path d="M4.26676 10.8518L4.74634 11.0456L5.07854 10.6494L5.04264 11.1654L5.52203 11.3591L5.02023 11.4841L4.98404 11.9999L4.71025 11.5615L4.2085 11.6865L4.54089 11.2904L4.26676 10.8518Z" fill="#FFDA44"/>
</g>
<defs>
<clipPath id="clip0_579_32765">
<rect width="24" height="24" fill="white"/>
</clipPath>
</defs>
</svg>
