<svg width="24" height="24" viewBox="0 0 24 24" fill="none" xmlns="http://www.w3.org/2000/svg">
<g clip-path="url(#clip0_579_32788)">
<path d="M12 0C18.6273 0 24 5.37261 24 12C24 18.6273 18.6273 24 12 24C5.37261 24 0 18.6273 0 12" fill="#FFDA44"/>
<path d="M11.7393 5.33341H21.9788C21.3046 4.32621 20.4818 3.42715 19.5419 2.66675H11.7393V5.33341Z" fill="#D80027"/>
<path d="M11.7393 10.6669H23.926C23.8237 9.74221 23.6165 8.84938 23.3164 8.00024H11.7393V10.6669Z" fill="#D80027"/>
<path d="M0.683874 16H23.3163C23.6164 15.1508 23.8237 14.2579 23.926 13.3333H0.0742188C0.176406 14.258 0.383687 15.1509 0.683874 16Z" fill="#D80027"/>
<path d="M4.45828 21.3334H19.5419C20.4817 20.5731 21.3045 19.6739 21.9788 18.6667H2.02148C2.69573 19.6739 3.51848 20.573 4.45828 21.3334Z" fill="#D80027"/>
<path d="M12 0C5.37262 0 -4.68746e-05 5.37261 3.06725e-10 12.0001C2.73871 12 5.37261 12.0001 12 12.0001L12 0Z" fill="#4A1F63"/>
<path d="M9.91302 6.26101V7.30449H9.3913V6.26101H8.34782V7.30449H7.8261V5.21753H5.73914V7.30449H5.21737V6.26101H4.17394V7.30449H3.65217V6.26101H2.60864V9.39141H10.9565V6.26101H9.91302Z" fill="#F0F0F0"/>
</g>
<defs>
<clipPath id="clip0_579_32788">
<rect width="24" height="24" fill="white"/>
</clipPath>
</defs>
</svg>
