<svg width="24" height="24" viewBox="0 0 24 24" fill="none" xmlns="http://www.w3.org/2000/svg">
<g clip-path="url(#clip0_579_32999)">
<path d="M12 24C18.6274 24 24 18.6274 24 12C24 5.37258 18.6274 0 12 0C5.37258 0 0 5.37258 0 12C0 18.6274 5.37258 24 12 24Z" fill="#F0F0F0"/>
<path d="M19.3067 2.47968C15.0105 -0.826226 8.98955 -0.826226 4.69336 2.47963L12 9.78632L19.3067 2.47968Z" fill="#D80027"/>
<path d="M12 14.2135L4.69336 21.5201C8.98955 24.826 15.0105 24.826 19.3067 21.5201L12 14.2134L12 14.2135Z" fill="#D80027"/>
<path d="M9.78631 12L2.47967 4.69336C-0.826232 8.98955 -0.826232 15.0105 2.47967 19.3067L9.78631 12Z" fill="#6DA544"/>
<path d="M14.2136 12L21.5202 19.3067C24.8261 15.0105 24.8261 8.98955 21.5202 4.69336L14.2136 12Z" fill="#6DA544"/>
<path d="M12.0001 17.2175C14.8816 17.2175 17.2175 14.8816 17.2175 12.0001C17.2175 9.11861 14.8816 6.78271 12.0001 6.78271C9.11861 6.78271 6.78271 9.11861 6.78271 12.0001C6.78271 14.8816 9.11861 17.2175 12.0001 17.2175Z" fill="#F0F0F0"/>
<path d="M12 8.3479L12.4518 9.13053H13.3555L12.9037 9.9131L13.3555 10.6957H12.4518L12 11.4784L11.5482 10.6957H10.6445L11.0964 9.9131L10.6445 9.13053H11.5482L12 8.3479Z" fill="#D80027"/>
<path d="M9.70343 12L10.1553 12.7826H11.0589L10.6071 13.5652L11.0589 14.3478H10.1553L9.70343 15.1305L9.25156 14.3478H8.3479L8.79973 13.5652L8.3479 12.7826H9.25156L9.70343 12Z" fill="#D80027"/>
<path d="M14.2967 12L14.7485 12.7826H15.6522L15.2003 13.5652L15.6522 14.3478H14.7485L14.2967 15.1305L13.8448 14.3478H12.9412L13.393 13.5652L12.9412 12.7826H13.8448L14.2967 12Z" fill="#D80027"/>
</g>
<defs>
<clipPath id="clip0_579_32999">
<rect width="24" height="24" fill="white"/>
</clipPath>
</defs>
</svg>
