<svg width="24" height="24" viewBox="0 0 24 24" fill="none" xmlns="http://www.w3.org/2000/svg">
<g clip-path="url(#clip0_579_33507)">
<path d="M12 24C18.6274 24 24 18.6274 24 12C24 5.37258 18.6274 0 12 0C5.37258 0 0 5.37258 0 12C0 18.6274 5.37258 24 12 24Z" fill="#F0F0F0"/>
<path d="M12 0C9.87837 0 7.88581 0.551344 6.15649 1.51744V22.4826C7.88585 23.4487 9.87837 24 12 24C18.6274 24 24 18.6274 24 12C24 5.37262 18.6274 0 12 0Z" fill="#6DA544"/>
<path d="M6.19178 1.4978C5.43686 1.91616 4.73195 2.41341 4.08794 2.97872C4.15305 2.92163 4.21881 2.86519 4.28509 2.80951L13.4756 12.0001L4.28505 21.1907C4.21872 21.135 4.153 21.0786 4.08789 21.0215C4.73191 21.5868 5.43686 22.084 6.19173 22.5024L24 12.0001L6.19178 1.4978Z" fill="#F0F0F0"/>
<path d="M5.17837 2.1272C4.81241 2.3806 4.46095 2.65328 4.12602 2.9447L12.0001 11.9999L4.12598 21.0551C4.4609 21.3466 4.81237 21.6193 5.17832 21.8726L21.9459 11.9999L5.17837 2.1272Z" fill="#FFDA44"/>
<path d="M4.28504 2.80933C4.01827 3.03348 3.76084 3.26847 3.51465 3.51461L10.9565 11.9999L3.51465 20.4852C3.76084 20.7314 4.01823 20.9664 4.28504 21.1905L13.4756 11.9999L4.28504 2.80933Z" fill="black"/>
<path d="M3.51471 3.51465C-1.17157 8.20093 -1.17157 15.7989 3.51471 20.4853C5.45126 18.5487 7.31374 16.6862 12 12L3.51471 3.51465Z" fill="#D80027"/>
</g>
<defs>
<clipPath id="clip0_579_33507">
<rect width="24" height="24" fill="white"/>
</clipPath>
</defs>
</svg>
