<svg width="24" height="24" viewBox="0 0 24 24" fill="none" xmlns="http://www.w3.org/2000/svg">
<g clip-path="url(#clip0_579_33541)">
<path d="M12 24C18.6274 24 24 18.6274 24 12C24 5.37258 18.6274 0 12 0C5.37258 0 0 5.37258 0 12C0 18.6274 5.37258 24 12 24Z" fill="#D80027"/>
<path d="M13.239 9.07813C12.9663 10.2125 12.4817 9.99613 12.2439 10.9854C10.8431 10.6486 9.98046 9.23999 10.3173 7.83913C10.6539 6.43836 12.0626 5.57567 13.4635 5.91247C12.9878 7.89092 13.483 8.06361 13.239 9.07813Z" fill="#F0F0F0"/>
<path d="M9.6042 9.91871C10.5987 10.5286 10.2432 10.9226 11.1105 11.4545C10.3573 12.6827 8.75117 13.0678 7.52295 12.3146C6.29478 11.5615 5.9096 9.95522 6.66279 8.72705C8.39745 9.79074 8.71456 9.37322 9.6042 9.91871Z" fill="#F0F0F0"/>
<path d="M9.28044 13.6355C10.1678 12.8781 10.4326 13.338 11.2065 12.6775C12.1419 13.7733 12.0117 15.4199 10.916 16.3553C9.82016 17.2907 8.17353 17.1604 7.23828 16.0647C8.78581 14.7436 8.4867 14.3129 9.28044 13.6355Z" fill="#F0F0F0"/>
<path d="M12.7152 15.0919C12.269 14.0139 12.7882 13.9041 12.3992 12.9641C13.7304 12.4132 15.2562 13.0457 15.8072 14.3769C16.3581 15.7081 15.7255 17.2339 14.3943 17.7849C13.6163 15.9048 13.1143 16.0561 12.7152 15.0919Z" fill="#F0F0F0"/>
<path d="M15.1618 12.2753C13.9987 12.3665 14.0545 11.8387 13.0403 11.9183C12.9277 10.4821 14.0009 9.22629 15.4372 9.11356C16.8734 9.00111 18.1292 10.0742 18.2418 11.5105C16.2132 11.6696 16.202 12.1938 15.1618 12.2753Z" fill="#F0F0F0"/>
</g>
<defs>
<clipPath id="clip0_579_33541">
<rect width="24" height="24" fill="white"/>
</clipPath>
</defs>
</svg>
