<svg width="24" height="24" viewBox="0 0 24 24" fill="none" xmlns="http://www.w3.org/2000/svg">
<g clip-path="url(#clip0_579_33625)">
<path d="M12 24C18.6274 24 24 18.6274 24 12C24 5.37258 18.6274 0 12 0C5.37258 0 0 5.37258 0 12C0 18.6274 5.37258 24 12 24Z" fill="#338AF3"/>
<path d="M18.7825 12.1304H5.21729C5.21729 13.0669 6.03296 13.826 6.96938 13.826H6.91294C6.91294 14.7625 7.67208 15.5217 8.6086 15.5217C8.6086 16.4582 9.36774 17.2173 10.3043 17.2173H13.6956C14.6321 17.2173 15.3912 16.4582 15.3912 15.5217C16.3277 15.5217 17.0869 14.7625 17.0869 13.826H17.0304C17.9668 13.826 18.7825 13.0669 18.7825 12.1304Z" fill="#FFDA44"/>
<path d="M16.6958 9.91309C16.6958 12.5064 14.5934 14.6087 12.0001 14.6087C9.40674 14.6087 7.30444 12.5064 7.30444 9.91309" fill="#338AF3"/>
<path d="M15.5866 9.91311L14.1211 10.6025L14.9015 12.0219L13.3101 11.7174L13.1084 13.325L12 12.1426L10.8915 13.325L10.6899 11.7174L9.09845 12.0218L9.87883 10.6025L8.41333 9.91311L9.87888 9.22377L9.09845 7.80444L10.6898 8.10885L10.8915 6.50122L12 7.68364L13.1085 6.50122L13.3101 8.10885L14.9015 7.80444L14.1211 9.22381L15.5866 9.91311Z" fill="#FFDA44"/>
</g>
<defs>
<clipPath id="clip0_579_33625">
<rect width="24" height="24" fill="white"/>
</clipPath>
</defs>
</svg>
