<svg width="24" height="24" viewBox="0 0 24 24" fill="none" xmlns="http://www.w3.org/2000/svg">
<g clip-path="url(#clip0_579_33857)">
<path d="M12.0001 24C13.4679 24 14.8741 23.736 16.174 23.2536L16.6958 12L16.174 0.746391C14.8741 0.264047 13.4679 0 12.0001 0C10.5323 0 9.12615 0.264047 7.82621 0.746391L7.30444 12L7.82616 23.2536C9.12615 23.736 10.5323 24 12.0001 24Z" fill="#0052B4"/>
<path d="M0 11.9999C0 17.1595 3.2565 21.558 7.82611 23.2536V0.746338C3.2565 2.44185 0 6.84037 0 11.9999Z" fill="#A2001D"/>
<path d="M16.1738 0.746338V23.2536C20.7434 21.558 23.9999 17.1595 23.9999 11.9999C23.9999 6.84037 20.7434 2.44185 16.1738 0.746338Z" fill="#A2001D"/>
<path d="M5.73901 12H6.7825V16.1739H5.73901V12Z" fill="#FFDA44"/>
<path d="M1.56519 12H2.60867V16.1739H1.56519V12Z" fill="#FFDA44"/>
<path d="M4.17386 14.6085C4.75016 14.6085 5.21734 14.1413 5.21734 13.565C5.21734 12.9887 4.75016 12.5215 4.17386 12.5215C3.59756 12.5215 3.13037 12.9887 3.13037 13.565C3.13037 14.1413 3.59756 14.6085 4.17386 14.6085Z" fill="#FFDA44"/>
<path d="M4.17382 10.4346C4.46196 10.4346 4.69554 10.201 4.69554 9.91283C4.69554 9.62469 4.46196 9.39111 4.17382 9.39111C3.88568 9.39111 3.6521 9.62469 3.6521 9.91283C3.6521 10.201 3.88568 10.4346 4.17382 10.4346Z" fill="#FFDA44"/>
<path d="M3.13037 15.1304H5.21734V16.1739H3.13037V15.1304Z" fill="#FFDA44"/>
<path d="M3.13037 10.9563H5.21734V11.9998H3.13037V10.9563Z" fill="#FFDA44"/>
<path d="M4.17385 6.26074L4.54341 7.39793H5.7391L4.77183 8.10077L5.14111 9.23796L4.17385 8.53512L3.20663 9.23796L3.57591 8.10077L2.60864 7.39793H3.80433L4.17385 6.26074Z" fill="#FFDA44"/>
</g>
<defs>
<clipPath id="clip0_579_33857">
<rect width="24" height="24" fill="white"/>
</clipPath>
</defs>
</svg>
