<svg width="24" height="24" viewBox="0 0 24 24" fill="none" xmlns="http://www.w3.org/2000/svg">
<g clip-path="url(#clip0_579_33870)">
<path d="M12 24C18.6274 24 24 18.6274 24 12C24 5.37258 18.6274 0 12 0C5.37258 0 0 5.37258 0 12C0 18.6274 5.37258 24 12 24Z" fill="#FFDA44"/>
<path d="M24 11.9999C24 7.88146 21.9249 4.24799 18.7635 2.08691H5.23655C2.07516 4.24799 0 7.88146 0 11.9999C0 16.1185 2.07516 19.7519 5.23655 21.913H18.7635C21.9249 19.7519 24 16.1185 24 11.9999Z" fill="#A2001D"/>
<path d="M9.39136 8.86966H14.6087V6.78274L13.5652 7.30446L12 5.73926L10.4348 7.30446L9.39136 6.78274V8.86966Z" fill="#FFDA44"/>
<path d="M16.6956 12.0002H14.0879C14.1902 11.8233 14.2496 11.6186 14.2496 11.3996C14.2496 10.7346 13.7105 10.1956 13.0456 10.1956C12.5862 10.1956 12.1872 10.453 11.9842 10.8313C11.7811 10.4529 11.3821 10.1956 10.9227 10.1956C10.2578 10.1956 9.71868 10.7346 9.71868 11.3996C9.71868 11.6186 9.77821 11.8233 9.8804 12.0002H7.3042C7.3042 12.7982 7.99921 13.445 8.79712 13.445H8.74903C8.74903 14.0995 9.18436 14.6522 9.78122 14.8297L8.60854 16.0024L9.71531 17.1092L11.2853 15.5392C11.3468 15.5618 11.4104 15.5798 11.4762 15.5921L10.5275 17.7341C10.9821 17.919 11.4789 18.0216 11.9999 18.0216C12.5209 18.0216 13.0177 17.919 13.4724 17.7341L12.5237 15.5921C12.5894 15.5798 12.6531 15.5618 12.7145 15.5392L14.2845 17.1092L15.3912 16.0024L14.2185 14.8297C14.8153 14.6521 15.2507 14.0995 15.2507 13.445H15.2025C16.0005 13.445 16.6956 12.7982 16.6956 12.0002Z" fill="#FFDA44"/>
<path d="M12.0001 12.7827L10.3044 13.5653V15.1305L12.0001 16.174L13.6958 15.1305V13.5653L12.0001 12.7827Z" fill="#6DA544"/>
<path d="M10.3044 12H13.6958V14.087H10.3044V12Z" fill="#0052B4"/>
</g>
<defs>
<clipPath id="clip0_579_33870">
<rect width="24" height="24" fill="white"/>
</clipPath>
</defs>
</svg>
