<svg width="24" height="24" viewBox="0 0 24 24" fill="none" xmlns="http://www.w3.org/2000/svg">
<g clip-path="url(#clip0_579_34074)">
<path d="M20.4853 20.4853C15.799 25.1715 8.20108 25.1715 3.5147 20.4853C-1.17158 15.799 -1.17158 8.20097 3.51475 3.51464C8.20103 -1.17164 15.0611 -0.433783 19.7474 4.25254C24.4337 8.93883 25.1716 15.799 20.4853 20.4853Z" fill="black"/>
<path d="M3.51465 3.51467C8.20093 -1.17161 15.7989 -1.17152 20.4852 3.51472C25.1715 8.201 25.1715 15.799 20.4852 20.4853" fill="#A2001D"/>
<path d="M9.17079 16.1741L9.36504 16.772H9.99368L9.48509 17.1414L9.67938 17.7393L9.17079 17.3698L8.6622 17.7393L8.85645 17.1414L8.3479 16.772H8.97649L9.17079 16.1741Z" fill="#F0F0F0"/>
<path d="M7.56507 10.4348L7.88893 11.4313H8.93659L8.08895 12.0471L8.41271 13.0435L7.56507 12.4277L6.71748 13.0435L7.04129 12.0471L6.1936 11.4313H7.24135L7.56507 10.4348Z" fill="#F0F0F0"/>
<path d="M7.56507 17.7393L7.88884 18.7357H8.93659L8.08885 19.3515L8.41271 20.3479L7.56507 19.7321L6.71748 20.3479L7.0412 19.3515L6.1936 18.7357H7.24121L7.56507 17.7393Z" fill="#F0F0F0"/>
<path d="M10.6285 13.0435L10.9524 14.0399H12L11.1524 14.6557L11.4761 15.6521L10.6285 15.0363L9.78091 15.6521L10.1047 14.6557L9.25708 14.0399H10.3048L10.6285 13.0435Z" fill="#F0F0F0"/>
<path d="M4.50184 13.0435L4.8257 14.0399H5.87331L5.02572 14.6557L5.34943 15.6521L4.50184 15.0363L3.6542 15.6521L3.97806 14.6557L3.13037 14.0399H4.17807L4.50184 13.0435Z" fill="#F0F0F0"/>
<path d="M20.0881 8.88575C19.5518 8.34945 18.855 8.03262 18.1062 7.9782L20.3477 6.23478C19.455 5.34205 18.2585 4.93887 17.0909 5.02414C16.9511 4.52183 16.6846 4.04736 16.2896 3.65234L15.4042 5.42319C15.3461 5.31734 15.2726 5.21773 15.1828 5.12806C14.6734 4.61867 13.8476 4.61867 13.3382 5.12806C12.8289 5.63745 12.8288 6.4633 13.3382 6.97269C13.4279 7.06236 13.5275 7.13591 13.6334 7.19403L11.8625 8.07945C12.2577 8.47461 12.7325 8.74128 13.235 8.88097C13.1495 10.0485 13.5523 11.2449 14.445 12.1377L16.4035 9.61962C16.5508 9.47455 16.7454 9.39444 16.9524 9.39444C17.1614 9.39444 17.3579 9.47581 17.5057 9.6237C17.6536 9.7715 17.735 9.96805 17.735 10.1771C17.735 10.3861 17.6536 10.5826 17.5057 10.7305L18.2436 11.4684C18.5885 11.1235 18.7785 10.6649 18.7785 10.1771C18.7785 9.77802 18.6512 9.39861 18.4161 9.08492C18.7586 9.17637 19.0823 9.35553 19.3504 9.6237C20.1642 10.4374 20.1642 11.7614 19.3504 12.5751L20.0883 13.313C20.6795 12.7217 21.0052 11.9356 21.0052 11.0994C21.005 10.2631 20.6794 9.47703 20.0881 8.88575Z" fill="#FFDA44"/>
</g>
<defs>
<clipPath id="clip0_579_34074">
<rect width="24" height="24" fill="white"/>
</clipPath>
</defs>
</svg>
