<svg width="24" height="24" viewBox="0 0 24 24" fill="none" xmlns="http://www.w3.org/2000/svg">
<g clip-path="url(#clip0_579_34187)">
<path d="M24 12C24 18.6274 18.6274 24 12 24C5.37262 24 0 18.6274 0 12C4.12172 7.87828 7.61737 4.38263 12 0C18.6274 0 24 5.37262 24 12Z" fill="#D80027"/>
<path d="M12 12C12 5.37262 12 4.59131 12 0C5.37262 0 0 5.37262 0 12H12Z" fill="#0052B4"/>
<path d="M9.61195 7.82593L9.80625 8.42382H10.4348L9.92625 8.79324L10.1205 9.39113L9.61195 9.02162L9.10336 9.39113L9.29766 8.79324L8.78906 8.42382H9.41766L9.61195 7.82593Z" fill="#F0F0F0"/>
<path d="M6.45448 3.13037L6.77824 4.12689H7.82599L6.9783 4.74259L7.30216 5.73906L6.45448 5.12317L5.60684 5.73906L5.93065 4.74259L5.08301 4.12689H6.13066L6.45448 3.13037Z" fill="#F0F0F0"/>
<path d="M9.58485 4.17383L9.90861 5.17039H10.9563L10.1087 5.78609L10.4324 6.78256L9.58485 6.16667L8.73721 6.78256L9.06102 5.78609L8.21338 5.17039H9.26103L9.58485 4.17383Z" fill="#F0F0F0"/>
<path d="M7.11073 8.34766L7.43454 9.34417H8.4822L7.63455 9.95987L7.95837 10.9563L7.11073 10.3405L6.26309 10.9563L6.5869 9.95987L5.73926 9.34417H6.78696L7.11073 8.34766Z" fill="#F0F0F0"/>
<path d="M4.36752 5.73901L4.69133 6.73553H5.73903L4.89134 7.35123L5.21516 8.3477L4.36752 7.73186L3.51992 8.3477L3.84369 7.35123L2.99609 6.73553H4.04375L4.36752 5.73901Z" fill="#F0F0F0"/>
</g>
<defs>
<clipPath id="clip0_579_34187">
<rect width="24" height="24" fill="white"/>
</clipPath>
</defs>
</svg>
