<svg width="24" height="24" viewBox="0 0 24 24" fill="none" xmlns="http://www.w3.org/2000/svg">
<g clip-path="url(#clip0_579_34348)">
<path d="M12 24C18.6274 24 24 18.6274 24 12C24 5.37258 18.6274 0 12 0C5.37258 0 0 5.37258 0 12C0 18.6274 5.37258 24 12 24Z" fill="#F0F0F0"/>
<path d="M16.174 12.0001C16.174 13.0435 14.3052 15.6522 12.0001 15.6522C9.69489 15.6522 7.82617 13.0435 7.82617 12.0001C7.82617 9.69484 9.69489 7.82617 12.0001 7.82617C14.3052 7.82617 16.174 9.69484 16.174 12.0001Z" fill="#D80027"/>
<path d="M16.174 12C16.174 14.3052 14.3052 16.1739 12.0001 16.1739C9.69489 16.1739 7.82617 14.3052 7.82617 12" fill="#0052B4"/>
<path d="M16.4238 15.6895L17.5304 14.5829L18.2682 15.3206L17.1616 16.4272L16.4238 15.6895Z" fill="black"/>
<path d="M14.5791 17.5339L15.6857 16.4273L16.4234 17.1651L15.3168 18.2717L14.5791 17.5339Z" fill="black"/>
<path d="M18.6372 17.9026L19.7438 16.796L20.4815 17.5337L19.375 18.6403L18.6372 17.9026Z" fill="black"/>
<path d="M16.7925 19.7473L17.8991 18.6407L18.6368 19.3785L17.5302 20.4851L16.7925 19.7473Z" fill="black"/>
<path d="M17.5303 16.7961L18.6369 15.6895L19.3746 16.4273L18.268 17.5339L17.5303 16.7961Z" fill="black"/>
<path d="M15.686 18.6404L16.7926 17.5338L17.5304 18.2715L16.4238 19.3781L15.686 18.6404Z" fill="black"/>
<path d="M18.6421 8.3125L15.6911 5.36156L16.4289 4.62382L19.3798 7.57476L18.6421 8.3125Z" fill="black"/>
<path d="M15.6904 7.5752L14.5838 6.4686L15.3215 5.73089L16.4281 6.83748L15.6904 7.5752Z" fill="black"/>
<path d="M17.5352 9.41992L16.4286 8.31332L17.1663 7.57561L18.2729 8.68221L17.5352 9.41992Z" fill="black"/>
<path d="M17.9033 5.36157L16.7967 4.25497L17.5345 3.51723L18.6411 4.62383L17.9033 5.36157Z" fill="black"/>
<path d="M19.749 7.20654L18.6424 6.09994L19.3802 5.3622L20.4868 6.4688L19.749 7.20654Z" fill="black"/>
<path d="M4.25391 16.7939L7.20485 19.7449L6.4671 20.4826L3.51616 17.5317L4.25391 16.7939Z" fill="black"/>
<path d="M7.20508 17.5312L8.31168 18.6378L7.57397 19.3756L6.46737 18.269L7.20508 17.5312Z" fill="black"/>
<path d="M5.36035 15.6873L6.46695 16.7939L5.72921 17.5316L4.62261 16.425L5.36035 15.6873Z" fill="black"/>
<path d="M6.46729 14.5803L9.41823 17.5313L8.68048 18.269L5.72954 15.3181L6.46729 14.5803Z" fill="black"/>
<path d="M7.20459 4.25269L4.25365 7.20363L3.51591 6.46588L6.46685 3.51494L7.20459 4.25269Z" fill="black"/>
<path d="M8.31152 5.35913L5.36058 8.31007L4.62284 7.57233L7.57378 4.62139L8.31152 5.35913Z" fill="black"/>
<path d="M9.41895 6.46631L6.468 9.41725L5.73029 8.67954L8.68123 5.7286L9.41895 6.46631Z" fill="black"/>
</g>
<defs>
<clipPath id="clip0_579_34348">
<rect width="24" height="24" fill="white"/>
</clipPath>
</defs>
</svg>
