<svg width="24" height="24" viewBox="0 0 24 24" fill="none" xmlns="http://www.w3.org/2000/svg">
<g clip-path="url(#clip0_579_34416)">
<path d="M12 24C18.6274 24 24 18.6274 24 12C24 5.37258 18.6274 0 12 0C5.37258 0 0 5.37258 0 12C0 18.6274 5.37258 24 12 24Z" fill="#F0F0F0"/>
<path d="M23.2536 7.82617H0.746344C0.264047 9.1262 0 10.5322 0 12.0001C0 13.4679 0.264047 14.874 0.746344 16.174H23.2536C23.736 14.874 24 13.4679 24 12.0001C24 10.5322 23.736 9.1262 23.2536 7.82617Z" fill="#A2001D"/>
<path d="M12.0348 23.9998C16.1449 23.9998 19.7719 21.933 21.9346 18.7825H2.13501C4.29773 21.933 7.92463 23.9998 12.0348 23.9998Z" fill="#6DA544"/>
<path d="M12.0348 0C16.1449 0 19.7719 2.06681 21.9346 5.21737H2.13501C4.29773 2.06681 7.92463 0 12.0348 0Z" fill="#6DA544"/>
<path d="M12 7.82617L13.036 11.0146H16.3888L13.6764 12.9854L14.7125 16.174L12 14.2034L9.28763 16.174L10.3238 12.9854L7.61133 11.0146H10.9641L12 7.82617Z" fill="#FFDA44"/>
</g>
<defs>
<clipPath id="clip0_579_34416">
<rect width="24" height="24" fill="white"/>
</clipPath>
</defs>
</svg>
