<svg width="24" height="24" viewBox="0 0 24 24" fill="none" xmlns="http://www.w3.org/2000/svg">
<g clip-path="url(#clip0_579_34664)">
<path d="M0.566625 8.34794C0.199031 9.49956 -4.68667e-05 10.7264 8.276e-09 12C-4.68667e-05 13.2736 0.199078 14.5005 0.566672 15.6521L12 16.174L23.4333 15.6522C23.8009 14.5006 24 13.2736 24 12.0001C24 10.7265 23.8009 9.49956 23.4333 8.34789L12 7.82617L0.566625 8.34794Z" fill="#F0F0F0"/>
<path d="M23.4332 8.34789L11.9999 7.82617L0.5665 8.34789C0.457563 8.68933 0.363766 9.03747 0.285156 9.39138H23.7144C23.6359 9.03742 23.5421 8.68923 23.4332 8.34789Z" fill="#D80027"/>
<path d="M0.2854 14.6086C0.363916 14.9625 0.457713 15.3106 0.56665 15.6521L0.567775 15.6521L11.9999 16.1738L23.4333 15.6521C23.5422 15.3107 23.636 14.9625 23.7146 14.6086H0.2854Z" fill="#D80027"/>
<path d="M11.9999 23.9999C17.3538 23.9999 21.888 20.4935 23.4333 15.6521H0.56665C2.11188 20.4935 6.6462 23.9999 11.9999 23.9999Z" fill="#6DA544"/>
<path d="M12 4.69973e-10C6.6462 4.68755e-05 2.11198 3.50644 0.56665 8.34783L23.4333 8.34787C21.8881 3.50639 17.3539 -4.68745e-05 12 4.69973e-10Z" fill="#338AF3"/>
<path d="M5.48376 4.95642C5.48376 3.8325 6.27365 2.8936 7.32848 2.66325C7.16638 2.62781 6.99815 2.60864 6.82537 2.60864C5.52871 2.60864 4.47754 3.65977 4.47754 4.95647C4.47754 6.25317 5.52862 7.3043 6.82537 7.3043C6.99815 7.3043 7.16634 7.28508 7.32848 7.24969C6.2737 7.01925 5.48376 6.08035 5.48376 4.95642Z" fill="#F0F0F0"/>
<path d="M8.71628 6.02368L8.87519 6.51282H9.3895L8.97344 6.81517L9.13234 7.30431L8.71628 7.00201L8.30012 7.30431L8.45908 6.81517L8.04297 6.51282H8.55728L8.71628 6.02368Z" fill="#F0F0F0"/>
<path d="M10.3578 6.02368L10.5167 6.51282H11.0311L10.6149 6.81517L10.7739 7.30431L10.3578 7.00201L9.94168 7.30431L10.1006 6.81517L9.68457 6.51282H10.1988L10.3578 6.02368Z" fill="#F0F0F0"/>
<path d="M11.9992 6.02368L12.1581 6.51282H12.6725L12.2564 6.81517L12.4153 7.30431L11.9992 7.00201L11.5831 7.30431L11.7421 6.81517L11.3259 6.51282H11.8403L11.9992 6.02368Z" fill="#F0F0F0"/>
<path d="M13.6408 6.02368L13.7998 6.51282H14.3141L13.898 6.81517L14.057 7.30431L13.6408 7.00201L13.2247 7.30431L13.3837 6.81517L12.9675 6.51282H13.4818L13.6408 6.02368Z" fill="#F0F0F0"/>
<path d="M15.2826 6.02368L15.4415 6.51282H15.9559L15.5398 6.81517L15.6987 7.30431L15.2826 7.00201L14.8665 7.30431L15.0254 6.81517L14.6094 6.51282H15.1236L15.2826 6.02368Z" fill="#F0F0F0"/>
<path d="M10.3578 4.31616L10.5167 4.80526H11.0311L10.6149 5.10765L10.7739 5.59674L10.3578 5.29444L9.94168 5.59674L10.1006 5.10765L9.68457 4.80526H10.1988L10.3578 4.31616Z" fill="#F0F0F0"/>
<path d="M11.9992 4.31616L12.1581 4.80526H12.6725L12.2564 5.10765L12.4153 5.59674L11.9992 5.29444L11.5831 5.59674L11.7421 5.10765L11.3259 4.80526H11.8403L11.9992 4.31616Z" fill="#F0F0F0"/>
<path d="M13.6408 4.31616L13.7998 4.80526H14.3141L13.898 5.10765L14.057 5.59674L13.6408 5.29444L13.2247 5.59674L13.3837 5.10765L12.9675 4.80526H13.4818L13.6408 4.31616Z" fill="#F0F0F0"/>
<path d="M15.2826 4.31616L15.4415 4.80526H15.9559L15.5398 5.10765L15.6987 5.59674L15.2826 5.29444L14.8665 5.59674L15.0254 5.10765L14.6094 4.80526H15.1236L15.2826 4.31616Z" fill="#F0F0F0"/>
<path d="M11.9992 2.60864L12.1581 3.09783H12.6725L12.2564 3.40013L12.4153 3.88931L11.9992 3.58702L11.5831 3.88931L11.7421 3.40013L11.3259 3.09783H11.8403L11.9992 2.60864Z" fill="#F0F0F0"/>
<path d="M13.6408 2.60864L13.7998 3.09783H14.3141L13.898 3.40013L14.057 3.88931L13.6408 3.58702L13.2247 3.88931L13.3837 3.40013L12.9675 3.09783H13.4818L13.6408 2.60864Z" fill="#F0F0F0"/>
<path d="M15.2826 2.60864L15.4415 3.09783H15.9559L15.5398 3.40013L15.6987 3.88931L15.2826 3.58702L14.8665 3.88931L15.0254 3.40013L14.6094 3.09783H15.1236L15.2826 2.60864Z" fill="#F0F0F0"/>
</g>
<defs>
<clipPath id="clip0_579_34664">
<rect width="24" height="24" fill="white"/>
</clipPath>
</defs>
</svg>
