<svg width="24" height="24" viewBox="0 0 24 24" fill="none" xmlns="http://www.w3.org/2000/svg">
<path d="M15.6251 14.62C14.5181 16.239 12.8971 17.004 11.0001 17.004C8.69605 17.004 6.72405 15.231 7.00705 12.88C7.32205 10.272 9.34705 9.15005 12.7151 8.73705C13.3161 8.66405 13.5651 8.64305 14.8621 8.54705L15.0001 8.53705V8.32205C15.0001 6.52605 13.9321 5.30005 12.5001 5.30005C11.0631 5.30005 10.0601 6.04705 9.44505 7.82605L7.55505 7.17405C8.44205 4.60405 10.1931 3.30005 12.5001 3.30005C15.1031 3.30005 17.0001 5.47805 17.0001 8.32205C17.0001 10.971 17.1631 13.078 17.4831 13.879C17.8391 14.771 17.9691 14.996 18.3671 15.492L16.8071 16.743C16.2841 16.091 16.0541 15.694 15.6261 14.621V14.62H15.6251ZM21.2571 20.545C20.9861 20.7451 20.5151 20.626 20.7281 20.105C20.9931 19.457 21.2751 18.697 20.9901 18.353C20.7801 18.098 20.5231 17.971 19.9631 17.971C19.5031 17.971 19.2731 18.031 18.9681 18.051C18.7641 18.064 18.6751 17.754 18.8771 17.611C19.1416 17.4215 19.4355 17.2769 19.7471 17.183C20.8971 16.839 22.2521 17.028 22.4171 17.266C22.7821 17.796 22.2181 19.835 21.2571 20.546V20.545ZM20.0751 19.4611C19.8154 19.7123 19.538 19.9445 19.2451 20.156C17.1231 21.772 14.3751 22.616 11.9871 22.616C8.14405 22.616 4.70705 20.823 2.09905 17.821C1.87605 17.591 2.06105 17.255 2.32205 17.437C5.13205 19.514 8.61005 20.7701 12.2111 20.7701C14.4761 20.7701 16.9191 20.233 19.2461 19.077C19.4081 19.001 19.5901 18.897 19.7491 18.823C20.1161 18.613 20.4391 19.1291 20.0751 19.4611ZM15.0101 10.541C13.7521 10.635 13.5141 10.654 12.9581 10.722C10.4061 11.035 9.16105 11.725 8.99305 13.12C8.86705 14.163 9.80305 15.004 11.0001 15.004C13.0391 15.004 14.5171 13.776 15.0221 10.541H15.0101Z" fill="#14151A"/>
</svg>
