<svg width="24" height="24" viewBox="0 0 24 24" fill="none" xmlns="http://www.w3.org/2000/svg">
<path d="M13.414 10.5861L13.894 11.0721L14.359 11.5571L14.818 12.0491C18.276 15.8131 20.29 19.2671 19.425 20.1321C19.025 20.5321 18.069 20.3161 16.785 19.6251C15.2035 20.6167 13.3529 21.0924 11.4892 20.9863C9.62554 20.8802 7.84086 20.1977 6.38203 19.0331L9.36203 16.0531C9.78076 16.165 10.2245 16.138 10.6266 15.9759C11.0286 15.8139 11.3671 15.5256 11.591 15.1545C11.815 14.7834 11.9124 14.3496 11.8685 13.9184C11.8246 13.4872 11.6418 13.0819 11.3476 12.7636C11.0534 12.4452 10.6638 12.2311 10.2374 12.1534C9.81094 12.0757 9.37081 12.1386 8.98324 12.3327C8.59567 12.5268 8.28165 12.8415 8.08845 13.2295C7.89526 13.6175 7.83334 14.0578 7.91203 14.4841L7.94703 14.6391L4.96803 17.6191C3.80308 16.16 3.12036 14.3749 3.0143 12.5109C2.90825 10.6468 3.3841 8.79585 4.37603 7.21405C3.68403 5.93105 3.46803 4.97605 3.86803 4.57505C4.84503 3.59905 9.11803 6.29005 13.414 10.5851V10.5861ZM19.778 4.22205C19.977 4.42089 20.1317 4.65946 20.2322 4.92218C20.3327 5.1849 20.3767 5.46586 20.3612 5.74671C20.3457 6.02756 20.2712 6.30199 20.1424 6.55208C20.0137 6.80216 19.8336 7.02228 19.614 7.19805C20.4032 8.45137 20.8714 9.87982 20.9773 11.3571C21.0831 12.8344 20.8234 14.315 20.221 15.6681C19.032 13.7141 17.151 11.4941 14.828 9.17205L14.291 8.64005C12.163 6.56105 10.135 4.87605 8.33303 3.78005C9.6862 3.1775 11.167 2.91768 12.6445 3.02355C14.122 3.12942 15.5506 3.59772 16.804 4.38705C16.9797 4.16771 17.1997 3.98787 17.4495 3.85923C17.6994 3.7306 17.9736 3.65607 18.2542 3.6405C18.5348 3.62493 18.8155 3.66868 19.0781 3.76888C19.3406 3.86908 19.5791 4.0235 19.778 4.22205Z" fill="#14151A"/>
</svg>
