<svg width="24" height="24" viewBox="0 0 24 24" fill="none" xmlns="http://www.w3.org/2000/svg">
<path d="M19.5859 21.0001H2.99994C2.73473 21.0001 2.48037 20.8947 2.29284 20.7072C2.1053 20.5196 1.99994 20.2653 1.99994 20.0001V6.00007C1.99994 5.73485 2.1053 5.4805 2.29284 5.29296C2.48037 5.10542 2.73473 5.00007 2.99994 5.00007H3.58594L1.39294 2.80807L2.80794 1.39307L22.6069 21.1931L21.1919 22.6071L19.5859 21.0001ZM5.58594 7.00007H3.99994V19.0001H17.5859L15.4059 16.8201C14.3485 17.657 13.0204 18.0762 11.6741 17.9981C10.3278 17.92 9.05714 17.35 8.10356 16.3965C7.14998 15.4429 6.57998 14.1722 6.50188 12.8259C6.42378 11.4796 6.84303 10.1515 7.67994 9.09407L5.58594 7.00007ZM9.10994 10.5251C8.64893 11.1988 8.43793 12.0125 8.51347 12.8254C8.589 13.6383 8.94631 14.3992 9.52358 14.9764C10.1008 15.5537 10.8617 15.911 11.6746 15.9865C12.4875 16.0621 13.3012 15.8511 13.9749 15.3901L9.10994 10.5251ZM21.9999 17.7851L19.9999 15.7851V7.00007H16.1719L14.1719 5.00007H9.82794L9.52094 5.30707L8.10694 3.89307L8.99994 3.00007H14.9999L16.9999 5.00007H20.9999C21.2652 5.00007 21.5195 5.10542 21.7071 5.29296C21.8946 5.4805 21.9999 5.73485 21.9999 6.00007V17.7861V17.7851ZM11.2629 7.05007C12.1023 6.93646 12.9565 7.01825 13.7591 7.28905C14.5616 7.55985 15.2908 8.01236 15.8897 8.61128C16.4887 9.21021 16.9412 9.93937 17.212 10.7419C17.4828 11.5445 17.5646 12.3987 17.4509 13.2381L15.1129 10.9001C14.7782 10.2513 14.2497 9.72282 13.6009 9.38807L11.2629 7.05007Z" fill="#14151A"/>
</svg>
