<svg width="24" height="24" viewBox="0 0 24 24" fill="none" xmlns="http://www.w3.org/2000/svg">
<path d="M19 20.9999H5V21.9999C5 22.2651 4.89464 22.5195 4.70711 22.707C4.51957 22.8946 4.26522 22.9999 4 22.9999H3C2.73478 22.9999 2.48043 22.8946 2.29289 22.707C2.10536 22.5195 2 22.2651 2 21.9999V11.9999L4.417 7.97093C4.59469 7.67478 4.84605 7.42968 5.1466 7.25952C5.44714 7.08936 5.78663 6.99993 6.132 6.99993H17.868C18.2134 6.99993 18.5529 7.08936 18.8534 7.25952C19.1539 7.42968 19.4053 7.67478 19.583 7.97093L22 11.9999V21.9999C22 22.2651 21.8946 22.5195 21.7071 22.707C21.5196 22.8946 21.2652 22.9999 21 22.9999H20C19.7348 22.9999 19.4804 22.8946 19.2929 22.707C19.1054 22.5195 19 22.2651 19 21.9999V20.9999ZM20 13.9999H4V18.9999H20V13.9999ZM4.332 11.9999H19.668L17.868 8.99993H6.132L4.332 11.9999ZM5.44 3.43993L6.5 2.37793L7.56 3.43793C7.76982 3.64769 7.91273 3.91496 7.97064 4.20595C8.02856 4.49693 7.99888 4.79856 7.88536 5.07267C7.77184 5.34679 7.57959 5.58108 7.3329 5.74592C7.08622 5.91076 6.79619 5.99875 6.4995 5.99875C6.20281 5.99875 5.91278 5.91076 5.6661 5.74592C5.41941 5.58108 5.22716 5.34679 5.11364 5.07267C5.00012 4.79856 4.97044 4.49693 5.02836 4.20595C5.08627 3.91496 5.22918 3.64769 5.439 3.43793L5.44 3.43993ZM10.94 3.43993L12 2.37793L13.06 3.43793C13.2698 3.64769 13.4127 3.91496 13.4706 4.20595C13.5286 4.49693 13.4989 4.79856 13.3854 5.07267C13.2718 5.34679 13.0796 5.58108 12.8329 5.74592C12.5862 5.91076 12.2962 5.99875 11.9995 5.99875C11.7028 5.99875 11.4128 5.91076 11.1661 5.74592C10.9194 5.58108 10.7272 5.34679 10.6136 5.07267C10.5001 4.79856 10.4704 4.49693 10.5284 4.20595C10.5863 3.91496 10.7292 3.64769 10.939 3.43793L10.94 3.43993ZM16.44 3.43993L17.5 2.37793L18.56 3.43793C18.7698 3.64769 18.9127 3.91496 18.9706 4.20595C19.0286 4.49693 18.9989 4.79856 18.8854 5.07267C18.7718 5.34679 18.5796 5.58108 18.3329 5.74592C18.0862 5.91076 17.7962 5.99875 17.4995 5.99875C17.2028 5.99875 16.9128 5.91076 16.6661 5.74592C16.4194 5.58108 16.2272 5.34679 16.1136 5.07267C16.0001 4.79856 15.9704 4.49693 16.0284 4.20595C16.0863 3.91496 16.2292 3.64769 16.439 3.43793L16.44 3.43993ZM6.5 17.9999C6.10218 17.9999 5.72064 17.8419 5.43934 17.5606C5.15804 17.2793 5 16.8978 5 16.4999C5 16.1021 5.15804 15.7206 5.43934 15.4393C5.72064 15.158 6.10218 14.9999 6.5 14.9999C6.89782 14.9999 7.27936 15.158 7.56066 15.4393C7.84196 15.7206 8 16.1021 8 16.4999C8 16.8978 7.84196 17.2793 7.56066 17.5606C7.27936 17.8419 6.89782 17.9999 6.5 17.9999ZM17.5 17.9999C17.1022 17.9999 16.7206 17.8419 16.4393 17.5606C16.158 17.2793 16 16.8978 16 16.4999C16 16.1021 16.158 15.7206 16.4393 15.4393C16.7206 15.158 17.1022 14.9999 17.5 14.9999C17.8978 14.9999 18.2794 15.158 18.5607 15.4393C18.842 15.7206 19 16.1021 19 16.4999C19 16.8978 18.842 17.2793 18.5607 17.5606C18.2794 17.8419 17.8978 17.9999 17.5 17.9999Z" fill="#14151A"/>
</svg>
