<svg width="24" height="24" viewBox="0 0 24 24" fill="none" xmlns="http://www.w3.org/2000/svg">
<path fill-rule="evenodd" clip-rule="evenodd" d="M2.61923 15.8885L3.51923 20.4808L8.11154 21.3808L12 24L15.8885 21.3808L20.4808 20.4808L21.3808 15.8885L24 12L21.3808 8.11154L20.4808 3.51923L15.8885 2.61923L12 0L8.11154 2.61923L3.51923 3.51923L2.61923 8.11154L0 12L2.61923 15.8885ZM2.41141 12L4.50407 15.1067L5.22331 18.7767L8.89327 19.4959L12 21.5886L15.1067 19.4959L18.7767 18.7767L19.4959 15.1067L21.5886 12L19.4959 8.89327L18.7767 5.22331L15.1067 4.50407L12 2.41141L8.89327 4.50407L5.22331 5.22331L4.50407 8.89327L2.41141 12Z" fill="#14151A"/>
<path fill-rule="evenodd" clip-rule="evenodd" d="M17.5388 9.78328L10.6213 16.3826L6.46115 12.4071L7.84292 10.9612L10.6225 13.6174L16.1583 8.33618L17.5388 9.78328Z" fill="#14151A"/>
</svg>
