<svg width="24" height="24" viewBox="0 0 24 24" fill="none" xmlns="http://www.w3.org/2000/svg">
<path d="M11 19V13L9.00004 12V9H15V12L13 13V19L18 20V22H6.00004V20L11 19ZM10 2.223V1H14V2.223C15.7154 2.61467 17.2785 3.50043 18.4959 4.77078C19.7134 6.04113 20.5319 7.64039 20.8503 9.37088C21.1688 11.1014 20.9731 12.8873 20.2876 14.5078C19.602 16.1283 18.4567 17.5124 16.993 18.489L15.883 16.825C17.133 15.9915 18.0816 14.7781 18.5887 13.3639C19.0958 11.9498 19.1345 10.41 18.6991 8.97221C18.2637 7.53439 17.3772 6.27479 16.1708 5.37958C14.9643 4.48437 13.5019 4.00105 11.9995 4.00105C10.4972 4.00105 9.03478 4.48437 7.82832 5.37958C6.62187 6.27479 5.73542 7.53439 5.3 8.97221C4.86458 10.41 4.90329 11.9498 5.4104 13.3639C5.91752 14.7781 6.86613 15.9915 8.11604 16.825L7.00704 18.489C5.54341 17.5124 4.39805 16.1283 3.71251 14.5078C3.02698 12.8873 2.83133 11.1014 3.14975 9.37088C3.46816 7.64039 4.28669 6.04113 5.50415 4.77078C6.72161 3.50043 8.28464 2.61467 10 2.223Z" fill="#14151A"/>
</svg>
