<svg width="24" height="24" viewBox="0 0 24 24" fill="none" xmlns="http://www.w3.org/2000/svg">
<path d="M9.00012 20.9861C7.54417 20.8999 6.1349 20.4404 4.90786 19.652C3.68082 18.8636 2.67729 17.7727 1.9938 16.4843C1.31031 15.1958 0.969857 13.7532 1.00518 12.2951C1.0405 10.837 1.45041 9.41259 2.19549 8.15876C2.94056 6.90492 3.99574 5.8639 5.25951 5.13582C6.52329 4.40774 7.95315 4.0171 9.41157 4.00147C10.87 3.98583 12.3079 4.34573 13.587 5.04655C14.8661 5.74737 15.9433 6.76553 16.7151 8.00311C18.3776 8.05621 19.9564 8.7446 21.1267 9.92658C22.2969 11.1086 22.9695 12.6942 23.006 14.3571C23.0425 16.02 22.4402 17.6336 21.323 18.8658C20.2057 20.098 18.6586 20.8551 17.0001 20.9811V21.0001H9.00012V20.9861Z" fill="#14151A"/>
</svg>
