<svg width="24" height="24" viewBox="0 0 24 24" fill="none" xmlns="http://www.w3.org/2000/svg">
<path d="M2.80794 1.39294L21.1919 19.7779L19.7779 21.1919L16.0309 17.4449L11.9999 21.4849L3.51994 12.9929C1.47994 10.7089 1.49194 7.23994 3.55394 4.96994L1.39294 2.80794L2.80794 1.39294ZM4.97994 11.6229L11.9999 18.6539L14.6169 16.0309L4.97194 6.38594C3.67794 7.88294 3.67194 10.1209 4.97994 11.6229ZM20.2429 4.75694C22.5049 7.02494 22.5829 10.6369 20.4789 12.9929L18.8439 14.6289L17.4299 13.2149L19.0199 11.6229C20.3939 10.0469 20.3189 7.66494 18.8269 6.16994C17.3269 4.66794 14.9069 4.60694 13.3369 6.01694L12.0019 7.21494L10.6659 6.01794C10.3159 5.70394 9.92494 5.46294 9.51094 5.29494L7.26094 3.04494C8.92894 2.83894 10.6679 3.33394 12.0009 4.52894C14.3499 2.41994 17.9799 2.48994 20.2429 4.75694Z" fill="#14151A"/>
</svg>
