<svg width="24" height="24" viewBox="0 0 24 24" fill="none" xmlns="http://www.w3.org/2000/svg">
<path d="M6.99993 20.9813C5.63398 20.8764 4.3361 20.3426 3.29159 19.4561C2.24709 18.5696 1.50937 17.3758 1.18379 16.0451C0.858208 14.7144 0.961403 13.3148 1.47864 12.0462C1.99588 10.7777 2.90071 9.70494 4.06393 8.98125C4.31145 7.05134 5.25373 5.27776 6.71445 3.99241C8.17517 2.70706 10.0542 1.99805 11.9999 1.99805C13.9457 1.99805 15.8247 2.70706 17.2854 3.99241C18.7461 5.27776 19.6884 7.05134 19.9359 8.98125C21.0992 9.70494 22.004 10.7777 22.5212 12.0462C23.0385 13.3148 23.1417 14.7144 22.8161 16.0451C22.4905 17.3758 21.7528 18.5696 20.7083 19.4561C19.6638 20.3426 18.3659 20.8764 16.9999 20.9813V21.0003H6.99993V20.9813ZM12.9999 12.0003V8.00025H10.9999V12.0003H7.99993L11.9999 17.0003L15.9999 12.0003H12.9999Z" fill="#14151A"/>
</svg>
