<svg width="24" height="24" viewBox="0 0 24 24" fill="none" xmlns="http://www.w3.org/2000/svg">
<path d="M18.9949 17.7937C18.9642 17.1934 18.7985 16.6078 18.5103 16.0803C18.2221 15.5528 17.8187 15.0971 17.3301 14.7469C16.8415 14.3968 16.2803 14.1613 15.6882 14.0579C15.0961 13.9545 14.4882 13.9859 13.9099 14.1497C13.6996 13.1858 13.1405 12.3336 12.3401 11.7568C11.5397 11.18 10.5544 10.9193 9.57343 11.0247C8.59249 11.1301 7.68508 11.5942 7.0255 12.3279C6.36591 13.0616 6.00067 14.0131 5.99991 14.9997C5.99991 16.0797 6.42791 17.0587 7.12191 17.7777C5.78506 17.4544 4.55416 16.7918 3.54804 15.854C2.54192 14.9162 1.79458 13.7349 1.37816 12.4241C0.961738 11.1132 0.890313 9.71714 1.17078 8.37064C1.45124 7.02414 2.07412 5.77269 2.97928 4.73711C3.88444 3.70154 5.0413 2.91682 6.33816 2.45872C7.63503 2.00063 9.02811 1.88462 10.3829 2.12191C11.7377 2.3592 13.0084 2.94177 14.0723 3.81337C15.1363 4.68497 15.9576 5.81616 16.4569 7.09773C17.8536 6.81954 19.3038 7.09396 20.5023 7.86325C21.7008 8.63255 22.5541 9.83674 22.8828 11.2224C23.2115 12.6081 22.9898 14.0673 22.2645 15.2929C21.5392 16.5185 20.3668 17.415 18.9939 17.7937H18.9949ZM9.99991 16.9997C9.46948 16.9997 8.96077 16.789 8.5857 16.4139C8.21063 16.0389 7.99991 15.5302 7.99991 14.9997C7.99991 14.4693 8.21063 13.9606 8.5857 13.5855C8.96077 13.2104 9.46948 12.9997 9.99991 12.9997C10.5303 12.9997 11.0391 13.2104 11.4141 13.5855C11.7892 13.9606 11.9999 14.4693 11.9999 14.9997C11.9999 15.5302 11.7892 16.0389 11.4141 16.4139C11.0391 16.789 10.5303 16.9997 9.99991 16.9997ZM14.9999 19.9997C14.4695 19.9997 13.9608 19.789 13.5857 19.4139C13.2106 19.0389 12.9999 18.5302 12.9999 17.9997C12.9999 17.4693 13.2106 16.9606 13.5857 16.5855C13.9608 16.2104 14.4695 15.9997 14.9999 15.9997C15.5303 15.9997 16.0391 16.2104 16.4141 16.5855C16.7892 16.9606 16.9999 17.4693 16.9999 17.9997C16.9999 18.5302 16.7892 19.0389 16.4141 19.4139C16.0391 19.789 15.5303 19.9997 14.9999 19.9997ZM9.99991 22.9997C9.46948 22.9997 8.96077 22.789 8.5857 22.4139C8.21063 22.0389 7.99991 21.5302 7.99991 20.9997C7.99991 20.4693 8.21063 19.9606 8.5857 19.5855C8.96077 19.2104 9.46948 18.9997 9.99991 18.9997C10.5303 18.9997 11.0391 19.2104 11.4141 19.5855C11.7892 19.9606 11.9999 20.4693 11.9999 20.9997C11.9999 21.5302 11.7892 22.0389 11.4141 22.4139C11.0391 22.789 10.5303 22.9997 9.99991 22.9997Z" fill="#14151A"/>
</svg>
