<svg width="24" height="24" viewBox="0 0 24 24" fill="none" xmlns="http://www.w3.org/2000/svg">
<path d="M5 9.00002C5.26522 9.00002 5.51957 9.10537 5.70711 9.29291C5.89464 9.48045 6 9.7348 6 10C7.57114 9.9977 9.09698 10.5263 10.33 11.5H12.5C13.832 11.5 15.03 12.079 15.853 12.999L19 13C19.9453 12.9998 20.8712 13.2675 21.6705 13.7721C22.4698 14.2767 23.1097 14.9975 23.516 15.851C21.151 18.972 17.322 21 13 21C10.21 21 7.85 20.397 5.94 19.342C5.87004 19.5351 5.74224 19.7019 5.57402 19.8196C5.40579 19.9374 5.20534 20.0004 5 20H2C1.73478 20 1.48043 19.8947 1.29289 19.7071C1.10536 19.5196 1 19.2652 1 19V10C1 9.7348 1.10536 9.48045 1.29289 9.29291C1.48043 9.10537 1.73478 9.00002 2 9.00002H5ZM6.001 12L6 17.021L6.045 17.054C7.84 18.314 10.178 19 13 19C16.004 19 18.799 17.844 20.835 15.87L20.968 15.737L20.848 15.637C20.3758 15.2672 19.8034 15.0477 19.205 15.007L19 15L16.888 14.999C16.961 15.321 17 15.656 17 16V17H8V15L14.79 14.999L14.756 14.921C14.5644 14.5206 14.2696 14.1783 13.9019 13.9295C13.5343 13.6806 13.107 13.5341 12.664 13.505L12.5 13.5H9.57C9.10531 13.0247 8.55027 12.6472 7.93752 12.3896C7.32477 12.132 6.66669 11.9995 6.002 12H6.001ZM4 11H3V18H4V11ZM13.646 3.57502L14 3.93002L14.354 3.57602C14.5858 3.34224 14.8615 3.15654 15.1653 3.0296C15.469 2.90265 15.7949 2.83696 16.1241 2.83629C16.4533 2.83561 16.7795 2.89997 17.0837 3.02567C17.388 3.15137 17.6645 3.33593 17.8973 3.56876C18.13 3.80159 18.3145 4.07811 18.4401 4.38243C18.5657 4.68675 18.63 5.01288 18.6292 5.3421C18.6285 5.67133 18.5627 5.99716 18.4356 6.30089C18.3086 6.60462 18.1228 6.88027 17.889 7.11202L14 11L10.11 7.11002C9.87622 6.87821 9.69053 6.6025 9.56358 6.29874C9.43664 5.99497 9.37094 5.66912 9.37027 5.3399C9.36959 5.01067 9.43396 4.68456 9.55965 4.38027C9.68535 4.07599 9.86992 3.79953 10.1027 3.56676C10.3356 3.334 10.6121 3.14951 10.9164 3.0239C11.2207 2.89829 11.5469 2.83402 11.8761 2.83478C12.2053 2.83555 12.5311 2.90134 12.8349 3.02837C13.1386 3.1554 13.4143 3.34117 13.646 3.57502ZM11.526 4.99002C11.4431 5.07244 11.3917 5.18129 11.3808 5.29766C11.3698 5.41403 11.4 5.53057 11.466 5.62702L11.524 5.69602L14 8.17002L16.476 5.69602C16.5588 5.61329 16.61 5.50411 16.6206 5.38753C16.6312 5.27094 16.6006 5.15433 16.534 5.05802L16.476 4.98802C16.3931 4.90534 16.2839 4.85435 16.1673 4.84394C16.0507 4.83352 15.9342 4.86434 15.838 4.93102L15.768 4.98902L13.999 6.75702L12.232 4.98702L12.164 4.93102C12.0677 4.86447 11.9511 4.83382 11.8345 4.84442C11.7179 4.85502 11.6087 4.90619 11.526 4.98902V4.99002Z" fill="#14151A"/>
</svg>
