<svg width="24" height="24" viewBox="0 0 24 24" fill="none" xmlns="http://www.w3.org/2000/svg">
<path d="M3.05496 13.0005H5.06996C5.31225 14.6652 6.14582 16.1871 7.41819 17.2877C8.69055 18.3883 10.3166 18.994 11.999 18.994C13.6813 18.994 15.3074 18.3883 16.5797 17.2877C17.8521 16.1871 18.6857 14.6652 18.928 13.0005H20.944C20.6974 15.2003 19.6489 17.2322 17.9987 18.7077C16.3486 20.1833 14.2126 20.999 11.999 20.999C9.78532 20.999 7.64932 20.1833 5.99918 18.7077C4.34904 17.2322 3.3005 15.2003 3.05396 13.0005H3.05496ZM3.05496 11.0005C3.3015 8.80061 4.35004 6.76874 6.00018 5.29321C7.65032 3.81767 9.78632 3.00195 12 3.00195C14.2136 3.00195 16.3496 3.81767 17.9997 5.29321C19.6499 6.76874 20.6984 8.80061 20.945 11.0005H18.93C18.6877 9.33569 17.8541 7.81379 16.5817 6.7132C15.3094 5.61261 13.6833 5.00691 12.001 5.00691C10.3186 5.00691 8.69255 5.61261 7.42019 6.7132C6.14782 7.81379 5.31425 9.33569 5.07196 11.0005H3.05496Z" fill="#14151A"/>
</svg>
