<svg width="24" height="24" viewBox="0 0 24 24" fill="none" xmlns="http://www.w3.org/2000/svg">
<path d="M12 6.65404C12.8097 7.28958 13.4642 8.10099 13.9139 9.02684C14.3637 9.95269 14.5969 10.9687 14.596 11.998C14.5966 13.027 14.3632 14.0427 13.9135 14.9681C13.4637 15.8936 12.8094 16.7047 12 17.34C11.1905 16.7046 10.5361 15.8933 10.0863 14.9677C9.63656 14.042 9.40324 13.0262 9.404 11.997C9.40324 10.9679 9.63656 9.95206 10.0863 9.02639C10.5361 8.10073 11.1905 7.28948 12 6.65404ZM11.13 6.07204C10.273 6.80361 9.58498 7.71256 9.11363 8.73606C8.64228 9.75957 8.3988 10.8732 8.4 12C8.39884 13.1264 8.64215 14.2395 9.11314 15.2627C9.58413 16.2858 10.2716 17.1945 11.128 17.926C10.0934 18.5068 8.92478 18.8067 7.73834 18.7959C6.5519 18.7851 5.38896 18.4639 4.3651 17.8644C3.34125 17.2648 2.49215 16.4077 1.90221 15.3783C1.31226 14.3489 1.00202 13.183 1.00232 11.9965C1.00262 10.81 1.31345 9.64424 1.90392 8.61511C2.49438 7.58599 3.34392 6.72932 4.36807 6.13027C5.39223 5.53123 6.55534 5.21066 7.74178 5.20045C8.92823 5.19023 10.0967 5.49072 11.131 6.07204H11.13ZM12.872 17.926C13.7284 17.1945 14.4159 16.2858 14.8869 15.2627C15.3579 14.2395 15.6012 13.1264 15.6 12C15.6012 10.8732 15.3577 9.75957 14.8864 8.73606C14.415 7.71256 13.7271 6.80361 12.87 6.07204C13.9043 5.49072 15.0728 5.19023 16.2592 5.20045C17.4457 5.21066 18.6088 5.53123 19.6329 6.13027C20.6571 6.72932 21.5066 7.58599 22.0971 8.61511C22.6876 9.64424 22.9984 10.81 22.9987 11.9965C22.999 13.183 22.6887 14.3489 22.0988 15.3783C21.5089 16.4077 20.6598 17.2648 19.6359 17.8644C18.6121 18.4639 17.4491 18.7851 16.2627 18.7959C15.0762 18.8067 13.9076 18.5068 12.873 17.926H12.872Z" fill="#14151A"/>
</svg>
