<svg width="24" height="24" viewBox="0 0 24 24" fill="none" xmlns="http://www.w3.org/2000/svg">
<path d="M16.4249 17.8391C15.37 18.4361 14.2048 18.8124 12.9999 18.9451V23.0001H10.9999V18.9451C8.97108 18.7176 7.07973 17.8075 5.63612 16.3639C4.19251 14.9203 3.28236 13.0289 3.05494 11.0001H5.06994C5.22584 12.0795 5.63173 13.1075 6.25526 14.0023C6.87879 14.8971 7.70271 15.6339 8.66137 16.1539C9.62002 16.6739 10.6869 16.9628 11.777 16.9976C12.867 17.0323 13.9501 16.812 14.9399 16.3541L13.3889 14.8041C12.6441 15.0194 11.8594 15.0587 11.0969 14.9186C10.3343 14.7786 9.61473 14.4631 8.99504 13.9972C8.37535 13.5312 7.87251 12.9275 7.52626 12.2338C7.18 11.5401 6.99982 10.7754 6.99994 10.0001V8.41405L1.39294 2.80805L2.80794 1.39305L22.6069 21.1931L21.1919 22.6071L16.4249 17.8391ZM9.03294 10.4471L11.5529 12.9671C10.9188 12.8713 10.332 12.5749 9.87854 12.1215C9.42506 11.668 9.12872 11.0812 9.03294 10.4471ZM19.3749 15.1601L17.9319 13.7181C18.4409 12.9081 18.7879 11.9881 18.9289 11.0001H20.9449C20.7799 12.4967 20.2399 13.9275 19.3749 15.1601ZM16.4649 12.2511L14.9169 10.7031C14.9709 10.4771 14.9999 10.2431 14.9999 10.0001V6.00005C15.0006 5.29476 14.7528 4.61177 14.3 4.07102C13.8472 3.53028 13.2184 3.16636 12.5239 3.04318C11.8295 2.91999 11.1138 3.04543 10.5026 3.39744C9.89147 3.74946 9.42386 4.30555 9.18194 4.96805L7.68594 3.47105C8.24105 2.52367 9.09258 1.78536 10.1091 1.37011C11.1256 0.954861 12.2505 0.885767 13.3101 1.17349C14.3698 1.46122 15.3053 2.08977 15.9722 2.9621C16.639 3.83443 17.0002 4.90202 16.9999 6.00005V10.0001C17.0011 10.7819 16.8182 11.553 16.4659 12.2511H16.4649Z" fill="#14151A"/>
</svg>
