<svg width="24" height="24" viewBox="0 0 24 24" fill="none" xmlns="http://www.w3.org/2000/svg">
<path d="M12 12C10.6739 12 9.40212 11.4732 8.46444 10.5355C7.52676 9.59785 6.99998 8.32608 6.99998 7C6.99998 5.67392 7.52676 4.40215 8.46444 3.46447C9.40212 2.52678 10.6739 2 12 2C13.3261 2 14.5978 2.52678 15.5355 3.46447C16.4732 4.40215 17 5.67392 17 7C17 8.32608 16.4732 9.59785 15.5355 10.5355C14.5978 11.4732 13.3261 12 12 12ZM18 17V22H16V17C16 12.549 18.644 8.715 22.447 6.984L23.275 8.804C21.7017 9.51958 20.3677 10.6729 19.4323 12.1263C18.4969 13.5797 17.9996 15.2716 18 17ZM7.99998 17V22H5.99998V17C6.00012 15.2718 5.5028 13.5801 4.56741 12.1269C3.63202 10.6737 2.2981 9.52051 0.724976 8.805L1.55298 6.984C3.47566 7.85849 5.10598 9.26796 6.2492 11.0441C7.39242 12.8201 8.00021 14.8878 7.99998 17Z" fill="#14151A"/>
</svg>
