<svg width="24" height="24" viewBox="0 0 24 24" fill="none" xmlns="http://www.w3.org/2000/svg">
<path d="M12.5059 3.62295L11.4829 5.39495C8.5729 4.51595 5.9689 4.94495 5.0719 6.49995C3.8939 8.53995 5.8619 12.1519 9.7499 14.3969C13.6379 16.6419 17.7499 16.5389 18.9279 14.4999C19.8259 12.9449 18.8949 10.476 16.6789 8.39495L17.7019 6.62295C20.7839 9.33195 22.1649 12.8929 20.6599 15.4999C18.7999 18.7219 13.4709 18.8549 8.7499 16.1299C4.0289 13.4019 1.4799 8.72095 3.3399 5.49995C4.8449 2.89295 8.6199 2.30795 12.5059 3.62295ZM15.8839 1.77295L17.6159 2.77295L12.6159 11.4329L10.8839 10.4329L15.8839 1.77295ZM6.7319 19.9999H16.9999V21.9999H5.0169C4.8384 22.0035 4.66223 21.9589 4.50687 21.871C4.35151 21.783 4.22269 21.6548 4.1339 21.4999C4.04662 21.3478 4.0007 21.1754 4.0007 20.9999C4.0007 20.8245 4.04662 20.6521 4.1339 20.4999L6.3839 16.603L8.1159 17.603L6.7319 19.9999Z" fill="#14151A"/>
</svg>
