<svg width="24" height="24" viewBox="0 0 24 24" fill="none" xmlns="http://www.w3.org/2000/svg">
<path d="M15.8601 17.9997L12.7071 14.8467C12.5196 14.6592 12.2653 14.5539 12.0001 14.5539C11.7349 14.5539 11.4806 14.6592 11.2931 14.8467L8.18009 17.9597C6.81358 17.8186 5.50642 17.328 4.3845 16.5351C3.26258 15.7423 2.3637 14.674 1.77442 13.433C1.18515 12.192 0.925332 10.8202 1.02 9.44967C1.11466 8.07915 1.56062 6.75609 2.31492 5.60792C3.06921 4.45974 4.10644 3.52512 5.32671 2.89407C6.54698 2.26302 7.90918 1.95681 9.28212 2.00491C10.6551 2.05301 11.9925 2.45381 13.1656 3.16871C14.3387 3.88361 15.308 4.88852 15.9801 6.08668C16.799 5.94569 17.6382 5.97632 18.4446 6.17663C19.251 6.37694 20.007 6.74256 20.6647 7.25033C21.3224 7.75809 21.8675 8.39693 22.2654 9.12637C22.6633 9.85581 22.9054 10.6599 22.9763 11.4878C23.0472 12.3157 22.9453 13.1493 22.6772 13.9358C22.4091 14.7222 21.9805 15.4444 21.4187 16.0566C20.8569 16.6688 20.174 17.1576 19.4134 17.4921C18.6528 17.8266 17.831 17.9994 17.0001 17.9997H15.8611H15.8601ZM10.2321 18.7317L12.0001 16.9637L13.7681 18.7317C14.1177 19.0813 14.3557 19.5268 14.4521 20.0117C14.5485 20.4967 14.499 20.9993 14.3097 21.4561C14.1205 21.9128 13.8001 22.3033 13.3889 22.5779C12.9778 22.8526 12.4945 22.9992 12.0001 22.9992C11.5057 22.9992 11.0223 22.8526 10.6112 22.5779C10.2001 22.3033 9.87969 21.9128 9.69046 21.4561C9.50122 20.9993 9.45167 20.4967 9.54808 20.0117C9.64449 19.5268 9.88253 19.0813 10.2321 18.7317Z" fill="#14151A"/>
</svg>
