<svg width="24" height="24" viewBox="0 0 24 24" fill="none" xmlns="http://www.w3.org/2000/svg">
<path d="M19.5619 12.0968L21.0929 14.7498C22.0599 16.4238 21.4859 18.5648 19.8129 19.5308C19.2799 19.8378 18.6769 19.9998 18.0629 19.9998H15.9999V22.4998L10.9999 18.9998L15.9999 15.4998V17.9998H18.0619C18.3249 17.9998 18.5839 17.9298 18.8119 17.7988C19.5299 17.3848 19.7749 16.4668 19.3619 15.7498L17.8299 13.0968L19.5619 12.0968ZM7.30395 9.13376L7.83395 15.2138L5.66995 13.9638L4.63895 15.7498C4.50695 15.9778 4.43795 16.2368 4.43795 16.4998C4.43795 17.3278 5.10895 17.9998 5.93795 17.9998H8.99995V19.9998H5.93795C4.00495 19.9998 2.43795 18.4328 2.43795 16.4998C2.43795 15.8858 2.59995 15.2818 2.90695 14.7498L3.93695 12.9628L1.77295 11.7138L7.30295 9.13376H7.30395ZM13.7499 2.96876C14.2819 3.27576 14.7239 3.71776 15.0309 4.24976L16.061 6.03476L18.2269 4.78476L17.6969 10.8658L12.1649 8.28576L14.3299 7.03576L13.2989 5.24976C13.1669 5.02176 12.9779 4.83276 12.7499 4.70076C12.0329 4.28676 11.1149 4.53276 10.7009 5.24976L9.16895 7.90276L7.43695 6.90276L8.96995 4.24976C9.93595 2.57576 12.077 2.00176 13.7509 2.96876H13.7499Z" fill="#14151A"/>
</svg>
