<svg width="24" height="24" viewBox="0 0 24 24" fill="none" xmlns="http://www.w3.org/2000/svg">
<path d="M11.102 7.81497L11.853 4.27897C11.9077 4.02202 12.0124 3.77835 12.1613 3.56189C12.3101 3.34542 12.5002 3.1604 12.7205 3.01739C12.9409 2.87438 13.1873 2.77619 13.4456 2.72841C13.7039 2.68064 13.9691 2.68423 14.226 2.73897L17.422 3.41897C17.7167 3.09179 18.111 2.87098 18.5439 2.79077C18.9768 2.71056 19.4241 2.77545 19.8164 2.97536C20.2087 3.17528 20.524 3.49905 20.7135 3.89646C20.903 4.29387 20.9561 4.7427 20.8645 5.17335C20.7729 5.604 20.5418 5.99239 20.207 6.27829C19.8721 6.56418 19.4523 6.7316 19.0126 6.75458C18.573 6.77755 18.138 6.6548 17.7752 6.40536C17.4124 6.15592 17.142 5.79373 17.006 5.37497L13.81 4.69497L13.144 7.82997C14.928 7.96697 16.701 8.55997 18.307 9.52997C18.7843 9.26462 19.3216 9.12614 19.8676 9.12776C20.4137 9.12938 20.9502 9.27105 21.4258 9.53923C21.9015 9.80741 22.3004 10.1931 22.5844 10.6595C22.8684 11.1259 23.0281 11.6573 23.048 12.203V12.224C23.0557 12.7131 22.9508 13.1974 22.7416 13.6396C22.5323 14.0817 22.2242 14.4698 21.841 14.774C21.8393 14.815 21.8366 14.856 21.833 14.897C21.833 18.895 17.383 21.927 12.034 21.927C6.70204 21.927 2.32604 18.903 2.32904 14.974C2.32467 14.9137 2.32134 14.8534 2.31904 14.793C1.67315 14.3082 1.23504 13.5966 1.09299 12.8016C0.950939 12.0066 1.11551 11.1873 1.55354 10.5088C1.99157 9.83032 2.67049 9.3431 3.45349 9.14532C4.23649 8.94754 5.06535 9.0539 5.77304 9.44297C7.38814 8.46961 9.21872 7.91038 11.102 7.81497ZM20.388 13.341C20.796 13.138 21.052 12.721 21.049 12.266C21.0386 12.0372 20.9625 11.8162 20.8298 11.6295C20.6971 11.4428 20.5135 11.2983 20.3008 11.2133C20.0881 11.1283 19.8554 11.1063 19.6306 11.1501C19.4058 11.1938 19.1983 11.3014 19.033 11.46L18.448 12.02L17.778 11.565C16.163 10.467 14.326 9.83997 12.548 9.80097H11.542C9.66704 9.82997 7.89104 10.401 6.30504 11.476L5.64204 11.926L5.05804 11.376C4.9321 11.2578 4.78197 11.1683 4.61805 11.1139C4.45413 11.0594 4.28034 11.0412 4.10869 11.0606C3.93705 11.0799 3.77167 11.1364 3.62399 11.226C3.47631 11.3155 3.34987 11.4362 3.25342 11.5794C3.15696 11.7227 3.0928 11.8853 3.06537 12.0558C3.03794 12.2263 3.04791 12.4008 3.09457 12.5671C3.14123 12.7334 3.22348 12.8876 3.33562 13.019C3.44777 13.1503 3.58712 13.2558 3.74404 13.328L4.37704 13.618L4.32304 14.313C4.31004 14.483 4.31004 14.652 4.32604 14.897C4.32604 17.607 7.68204 19.927 12.034 19.927C16.405 19.927 19.833 17.591 19.836 14.821C19.8491 14.6519 19.8491 14.4821 19.836 14.313L19.784 13.641L20.388 13.341ZM7.00004 13.5C7.00004 13.1021 7.15807 12.7206 7.43938 12.4393C7.72068 12.158 8.10221 12 8.50004 12C8.89786 12 9.27939 12.158 9.5607 12.4393C9.842 12.7206 10 13.1021 10 13.5C10 13.8978 9.842 14.2793 9.5607 14.5606C9.27939 14.8419 8.89786 15 8.50004 15C8.10221 15 7.72068 14.8419 7.43938 14.5606C7.15807 14.2793 7.00004 13.8978 7.00004 13.5ZM14 13.5C14 13.1021 14.1581 12.7206 14.4394 12.4393C14.7207 12.158 15.1022 12 15.5 12C15.8979 12 16.2794 12.158 16.5607 12.4393C16.842 12.7206 17 13.1021 17 13.5C17 13.8978 16.842 14.2793 16.5607 14.5606C16.2794 14.8419 15.8979 15 15.5 15C15.1022 15 14.7207 14.8419 14.4394 14.5606C14.1581 14.2793 14 13.8978 14 13.5ZM12.016 18.603C10.619 18.603 9.24904 18.233 8.13404 17.393C8.06668 17.3117 8.03209 17.2081 8.03703 17.1027C8.04197 16.9972 8.08609 16.8974 8.16075 16.8227C8.23542 16.748 8.33525 16.7039 8.44072 16.699C8.5462 16.694 8.64972 16.7286 8.73104 16.796C9.67604 17.489 10.854 17.786 12 17.786C13.146 17.786 14.33 17.511 15.284 16.827C15.3392 16.7732 15.4076 16.7348 15.4823 16.7158C15.5569 16.6968 15.6353 16.6977 15.7095 16.7186C15.7837 16.7395 15.8511 16.7795 15.9049 16.8347C15.9587 16.8899 15.997 16.9583 16.016 17.033C16.0323 17.1078 16.0299 17.1855 16.0091 17.2593C15.9884 17.333 15.9499 17.4005 15.897 17.456C15.213 18.253 13.413 18.603 12.016 18.603Z" fill="#14151A"/>
</svg>
