<svg width="24" height="24" viewBox="0 0 24 24" fill="none" xmlns="http://www.w3.org/2000/svg">
<path d="M8.99989 9.86012L5.96789 12.0001L8.99989 14.1401V9.86012ZM10.9079 17.3231C10.8314 17.4312 10.7152 17.5045 10.5847 17.527C10.4542 17.5495 10.3202 17.5193 10.2119 17.4431L3.07889 12.4081C3.01368 12.3619 2.96049 12.3008 2.92378 12.2298C2.88708 12.1588 2.86792 12.08 2.86792 12.0001C2.86792 11.9202 2.88708 11.8414 2.92378 11.7705C2.96049 11.6995 3.01368 11.6383 3.07889 11.5921L10.2119 6.55612C10.2868 6.50335 10.3747 6.47217 10.4662 6.46598C10.5576 6.4598 10.6489 6.47885 10.7302 6.52106C10.8116 6.56327 10.8797 6.62701 10.9273 6.70532C10.9748 6.78363 10.9999 6.8735 10.9999 6.96512V17.0351C10.9997 17.1383 10.9675 17.2389 10.9079 17.3231ZM17.9999 14.1401V9.86012L14.9679 12.0001L17.9999 14.1401ZM12.0789 12.4081C12.0137 12.3619 11.9605 12.3008 11.9238 12.2298C11.8871 12.1588 11.8679 12.08 11.8679 12.0001C11.8679 11.9202 11.8871 11.8414 11.9238 11.7705C11.9605 11.6995 12.0137 11.6383 12.0789 11.5921L19.2119 6.55612C19.2868 6.50335 19.3747 6.47217 19.4662 6.46598C19.5576 6.4598 19.6489 6.47885 19.7302 6.52106C19.8116 6.56327 19.8797 6.62701 19.9273 6.70532C19.9748 6.78363 19.9999 6.8735 19.9999 6.96512V17.0351C19.9999 17.1267 19.9748 17.2166 19.9273 17.2949C19.8797 17.3732 19.8116 17.437 19.7302 17.4792C19.6489 17.5214 19.5576 17.5404 19.4662 17.5343C19.3747 17.5281 19.2868 17.4969 19.2119 17.4441L12.0789 12.4081Z" fill="#14151A"/>
</svg>
