<svg width="24" height="24" viewBox="0 0 24 24" fill="none" xmlns="http://www.w3.org/2000/svg">
<path d="M12 10.6668L21.223 4.51782C21.2983 4.46772 21.3857 4.43897 21.4761 4.43465C21.5664 4.43033 21.6562 4.45059 21.736 4.49328C21.8157 4.53597 21.8824 4.59949 21.9289 4.67707C21.9754 4.75465 21.9999 4.84338 22 4.93382V19.0658C21.9999 19.1563 21.9754 19.245 21.9289 19.3226C21.8824 19.4002 21.8157 19.4637 21.736 19.5064C21.6562 19.5491 21.5664 19.5693 21.4761 19.565C21.3857 19.5607 21.2983 19.5319 21.223 19.4818L12 13.3328V19.0658C11.9999 19.1563 11.9754 19.245 11.9289 19.3226C11.8824 19.4002 11.8157 19.4637 11.736 19.5064C11.6562 19.5491 11.5664 19.5693 11.4761 19.565C11.3857 19.5607 11.2983 19.5319 11.223 19.4818L0.623979 12.4158C0.555501 12.3702 0.499353 12.3083 0.460519 12.2357C0.421686 12.1632 0.401367 12.0821 0.401367 11.9998C0.401367 11.9175 0.421686 11.8365 0.460519 11.7639C0.499353 11.6913 0.555501 11.6295 0.623979 11.5838L11.223 4.51782C11.2983 4.46772 11.3857 4.43897 11.4761 4.43465C11.5664 4.43033 11.6562 4.45059 11.736 4.49328C11.8157 4.53597 11.8824 4.59949 11.9289 4.67707C11.9754 4.75465 11.9999 4.84338 12 4.93382V10.6668Z" fill="#14151A"/>
</svg>
