<svg width="24" height="24" viewBox="0 0 24 24" fill="none" xmlns="http://www.w3.org/2000/svg">
<path d="M5.32997 15.9291C5.10983 14.9684 4.99912 13.9858 4.99997 13.0001C4.99997 7.91212 7.90297 3.56412 12 1.81812C16.097 3.56412 19 7.91212 19 13.0001C19 14.0101 18.886 14.9911 18.67 15.9291L20.69 17.7251C20.7769 17.8024 20.8342 17.9077 20.8519 18.0227C20.8696 18.1376 20.8466 18.2552 20.787 18.3551L18.329 22.4511C18.2898 22.5162 18.2364 22.5715 18.1727 22.6129C18.109 22.6542 18.0367 22.6805 17.9614 22.6898C17.886 22.699 17.8095 22.691 17.7377 22.6663C17.6659 22.6415 17.6007 22.6008 17.547 22.5471L15.293 20.2931C15.1055 20.1056 14.8512 20.0002 14.586 20.0001H9.41397C9.14877 20.0002 8.89446 20.1056 8.70697 20.2931L6.45297 22.5471C6.39926 22.6008 6.33403 22.6415 6.26223 22.6663C6.19042 22.691 6.11394 22.699 6.03856 22.6898C5.96319 22.6805 5.89092 22.6542 5.82722 22.6129C5.76353 22.5715 5.71009 22.5162 5.67097 22.4511L3.21297 18.3561C3.15304 18.2561 3.12994 18.1383 3.14765 18.0231C3.16536 17.9079 3.22278 17.8025 3.30997 17.7251L5.32997 15.9291ZM12 13.0001C12.5304 13.0001 13.0391 12.7894 13.4142 12.4143C13.7893 12.0393 14 11.5305 14 11.0001C14 10.4697 13.7893 9.96097 13.4142 9.5859C13.0391 9.21083 12.5304 9.00012 12 9.00012C11.4695 9.00012 10.9608 9.21083 10.5858 9.5859C10.2107 9.96097 9.99997 10.4697 9.99997 11.0001C9.99997 11.5305 10.2107 12.0393 10.5858 12.4143C10.9608 12.7894 11.4695 13.0001 12 13.0001Z" fill="#14151A"/>
</svg>
