<svg width="24" height="24" viewBox="0 0 24 24" fill="none" xmlns="http://www.w3.org/2000/svg">
<path d="M14.121 10.4801C13.9334 10.2926 13.6791 10.1873 13.414 10.1873C13.1488 10.1873 12.8945 10.2926 12.707 10.4801L12 11.1861C11.8155 11.3771 11.5948 11.5295 11.3508 11.6343C11.1068 11.7391 10.8443 11.7943 10.5788 11.7966C10.3132 11.7989 10.0498 11.7483 9.80405 11.6478C9.55826 11.5472 9.33496 11.3987 9.14717 11.2109C8.95938 11.0231 8.81088 10.7998 8.71032 10.554C8.60975 10.3082 8.55915 10.0449 8.56146 9.77931C8.56377 9.51375 8.61894 9.25131 8.72376 9.0073C8.82857 8.76329 8.98094 8.5426 9.17196 8.35811L14.802 2.72611C16.1349 2.42294 17.5295 2.54771 18.7874 3.08269C20.0453 3.61766 21.1026 4.53561 21.8088 5.706C22.5151 6.8764 22.8344 8.23966 22.7213 9.60194C22.6082 10.9642 22.0685 12.2562 21.179 13.2941L19.071 15.4291L14.121 10.4791V10.4801ZM3.16096 4.46811C4.19572 3.43349 5.54918 2.77809 7.00252 2.60788C8.45586 2.43766 9.92414 2.76259 11.17 3.53011L7.75696 6.94411C7.01776 7.68184 6.59639 8.67941 6.5829 9.72367C6.5694 10.7679 6.96485 11.7761 7.68474 12.5326C8.40463 13.2892 9.39187 13.7343 10.4355 13.7727C11.4792 13.811 12.4964 13.4398 13.27 12.7381L13.414 12.6011L17.657 16.8431L13.414 21.0861C13.0389 21.4611 12.5303 21.6717 12 21.6717C11.4696 21.6717 10.961 21.4611 10.586 21.0861L3.15996 13.6601C1.94109 12.4411 1.25635 10.7879 1.25635 9.06411C1.25635 7.3403 1.94109 5.68708 3.15996 4.46811H3.16096Z" fill="#14151A"/>
</svg>
