<svg width="24" height="24" viewBox="0 0 24 24" fill="none" xmlns="http://www.w3.org/2000/svg">
<path d="M2.87988 18.054C4.25607 11.9647 7.19649 6.33961 11.4109 1.73397C11.4858 1.65245 11.5769 1.58737 11.6782 1.54285C11.7796 1.49833 11.8892 1.47534 11.9999 1.47534C12.1106 1.47534 12.2201 1.49833 12.3215 1.54285C12.4229 1.58737 12.514 1.65245 12.5889 1.73397C12.7549 1.91397 12.8929 2.06597 13.0019 2.18897C16.9984 6.71085 19.7905 12.1673 21.1199 18.054C18.9789 18.505 16.7799 18.801 14.5359 18.928L12.4469 23.106C12.4053 23.1889 12.3415 23.2587 12.2625 23.3074C12.1836 23.3561 12.0927 23.3819 11.9999 23.3819C11.9071 23.3819 11.8162 23.3561 11.7372 23.3074C11.6583 23.2587 11.5945 23.1889 11.5529 23.106L9.46388 18.928C7.25034 18.8029 5.04941 18.5107 2.87988 18.054ZM11.9999 15C12.7955 15 13.5586 14.6839 14.1212 14.1213C14.6838 13.5587 14.9999 12.7956 14.9999 12C14.9999 11.2043 14.6838 10.4413 14.1212 9.87865C13.5586 9.31604 12.7955 8.99997 11.9999 8.99997C11.2042 8.99997 10.4412 9.31604 9.87856 9.87865C9.31595 10.4413 8.99988 11.2043 8.99988 12C8.99988 12.7956 9.31595 13.5587 9.87856 14.1213C10.4412 14.6839 11.2042 15 11.9999 15Z" fill="#14151A"/>
</svg>
