<svg width="24" height="24" viewBox="0 0 24 24" fill="none" xmlns="http://www.w3.org/2000/svg">
<path d="M3.576 8.27708L2.383 10.1191L4.583 11.4901C4.583 11.4901 6.047 12.2441 5.346 13.6591C4.696 14.9971 1.5 17.9291 1.5 17.9291L4.362 19.7271C6.346 15.4011 6.212 15.9771 6.709 14.4211C7.221 12.8411 7.333 11.6271 6.467 10.7441C5.354 9.61908 5.229 9.51408 3.576 8.27708ZM5.14 7.58308C6.18 7.58308 7.023 6.82508 7.023 5.89008C7.023 4.94708 6.18 4.18908 5.14 4.18908C4.092 4.18908 3.253 4.95108 3.253 5.89008C3.258 6.82108 4.093 7.58308 5.14 7.58308ZM22.145 7.79308C22.145 7.79308 21.521 2.92308 10.938 5.93908C11.393 5.14408 11.607 4.63208 11.607 4.63208L8.967 3.88208C8.967 3.88208 7.897 7.39008 5.995 9.02208C5.995 9.02208 7.841 10.0951 7.821 10.0621C8.32273 9.55985 8.79264 9.02682 9.228 8.46608C9.652 8.27608 10.058 8.10308 10.454 7.94208C9.962 8.82908 9.176 10.1601 8.386 10.9981L9.498 11.9821C9.498 11.9821 10.26 11.2441 11.087 10.3621H12.03V11.9981H8.345V13.3041H12.03V16.4371L11.89 16.4331C11.482 16.4131 10.853 16.3441 10.603 15.9491C10.305 15.4651 10.526 14.5901 10.539 14.0461H7.995L7.902 14.0981C7.902 14.0981 6.967 18.3031 10.591 18.2111C13.977 18.3031 15.921 17.2551 16.856 16.5341L17.226 17.9281L19.316 17.0461L17.9 13.5621L16.207 14.0981L16.521 15.2881C16.094 15.6181 15.591 15.8601 15.054 16.0421V13.3041H18.646V11.9941H15.054V10.3571H18.658V9.05108H12.248C12.712 8.48208 13.07 7.96208 13.168 7.63608L12.046 7.32908C16.844 5.59608 19.516 5.89408 19.496 8.73208V16.2071C19.496 16.2071 19.779 18.7711 16.86 18.5901L15.28 18.2471L14.913 19.7591C14.913 19.7591 21.73 21.7261 22.287 16.4451C22.839 11.1631 22.145 7.79308 22.145 7.79308Z" fill="#14151A"/>
</svg>
