<svg width="24" height="24" viewBox="0 0 24 24" fill="none" xmlns="http://www.w3.org/2000/svg">
<path d="M7.53697 9.95046L4.65997 7.07646L2.18597 9.55046L0.771973 8.13646L7.13597 1.77246L8.54997 3.18646L6.07497 5.66146L8.95097 8.53746C10.4639 7.38405 12.3585 6.84867 14.2513 7.03974C16.1442 7.2308 17.8936 8.13403 19.1455 9.56652C20.3974 10.999 21.0581 12.8537 20.9938 14.755C20.9296 16.6564 20.1452 18.4623 18.7995 19.807C17.4538 21.1517 15.6474 21.9348 13.746 21.9977C11.8447 22.0606 9.99042 21.3986 8.55882 20.1457C7.12721 18.8928 6.22522 17.1427 6.0355 15.2498C5.84578 13.3568 6.38249 11.4625 7.53697 9.95046Z" fill="#14151A"/>
</svg>
