<svg width="24" height="24" viewBox="0 0 24 24" fill="none" xmlns="http://www.w3.org/2000/svg">
<path d="M19.39 3.16113L20.803 4.57513L18.328 7.05013L20.803 9.52513L18.328 12.0001L20.803 14.4761L18.328 16.9511L20.803 19.4261L19.389 20.8401L15.5 16.9501L17.975 14.4761L15.5 12.0001L17.975 9.52513L15.5 7.05013L19.39 3.16113ZM12.887 3.73913C12.9599 3.8283 12.9999 3.93993 13 4.05513V19.9451C13.0001 20.0399 12.9732 20.1326 12.9226 20.2127C12.872 20.2928 12.7996 20.3568 12.714 20.3973C12.6284 20.4379 12.5331 20.4533 12.4391 20.4417C12.3451 20.4302 12.2563 20.3922 12.183 20.3321L6.89 15.9991L3 16.0001C2.73478 16.0001 2.48043 15.8948 2.29289 15.7072C2.10536 15.5197 2 15.2653 2 15.0001V9.00013C2 8.73492 2.10536 8.48056 2.29289 8.29303C2.48043 8.10549 2.73478 8.00013 3 8.00013H6.889L12.183 3.66813C12.2338 3.62647 12.2923 3.59523 12.3552 3.5762C12.4181 3.55717 12.4841 3.55072 12.5495 3.55722C12.6149 3.56372 12.6783 3.58305 12.7363 3.61409C12.7942 3.64513 12.8454 3.68728 12.887 3.73813V3.73913ZM11 7.22013L7.603 9.99913H4V14.0001L7.603 13.9991L11 16.7791V7.22013Z" fill="#14151A"/>
</svg>
