<svg width="24" height="24" viewBox="0 0 24 24" fill="none" xmlns="http://www.w3.org/2000/svg">
<path d="M17.525 11.3779C18.788 11.7699 20.194 12.7139 20.194 14.3819C20.194 17.1449 16.214 20.6209 10.23 20.6209C5.665 20.6209 1 18.4079 1 14.7689C1 12.8669 2.204 10.6669 4.277 8.59194C7.05 5.82194 10.281 4.55894 11.496 5.77594C12.033 6.31294 12.084 7.23994 11.74 8.34794C11.562 8.90494 12.265 8.59794 12.265 8.59794C14.505 7.65994 16.461 7.60394 17.174 8.62494C17.554 9.16794 17.517 9.93094 17.166 10.8149C17.003 11.2219 17.214 11.2859 17.526 11.3779H17.525ZM10.243 19.3169C13.884 18.9549 16.644 16.7249 16.41 14.3339C16.173 11.9429 13.028 10.2959 9.387 10.6569C5.747 11.0169 2.984 13.2469 3.22 15.6369C3.457 18.0309 6.602 19.6759 10.243 19.3169ZM6.16 14.4379C6.914 12.9109 8.872 12.0479 10.606 12.4979C12.399 12.9609 13.313 14.6519 12.582 16.2979C11.838 17.9799 9.7 18.8759 7.887 18.2909C6.135 17.7249 5.394 15.9969 6.16 14.4379ZM7.606 17.0249C8.174 17.2819 8.931 17.0379 9.282 16.4749C9.628 15.9069 9.445 15.2579 8.875 15.0159C8.312 14.7789 7.584 15.0239 7.235 15.5689C6.881 16.1159 7.046 16.7709 7.606 17.0249ZM9.812 15.2169C10.031 15.3089 10.313 15.2049 10.44 14.9859C10.563 14.7659 10.484 14.5199 10.262 14.4379C10.046 14.3539 9.776 14.4559 9.649 14.6699C9.526 14.8839 9.595 15.1279 9.812 15.2169ZM19.873 9.49994C19.8441 9.59131 19.7974 9.67604 19.7356 9.74925C19.6737 9.82245 19.598 9.88267 19.5127 9.92642C19.4275 9.97017 19.3344 9.99659 19.2389 10.0041C19.1434 10.0117 19.0473 10.0002 18.9562 9.97044C18.8651 9.94063 18.7809 9.89307 18.7083 9.8305C18.6357 9.76792 18.5763 9.69158 18.5334 9.60589C18.4905 9.5202 18.465 9.42686 18.4584 9.33126C18.4518 9.23566 18.4643 9.1397 18.495 9.04894C18.5711 8.81746 18.5845 8.56997 18.5339 8.33162C18.4833 8.09327 18.3705 7.87257 18.207 7.69194C18.043 7.51199 17.8348 7.37809 17.6031 7.30353C17.3713 7.22897 17.1241 7.21636 16.886 7.26694C16.793 7.28683 16.697 7.28822 16.6035 7.27102C16.51 7.25382 16.4208 7.21837 16.341 7.1667C16.1798 7.06233 16.0667 6.89821 16.0265 6.71044C15.9863 6.52266 16.0224 6.32662 16.1267 6.16543C16.2311 6.00425 16.3952 5.89112 16.583 5.85094C17.07 5.74689 17.5758 5.77291 18.0496 5.9264C18.5234 6.07988 18.9484 6.35541 19.2818 6.72528C19.6153 7.09515 19.8455 7.5463 19.9493 8.03338C20.0531 8.52045 20.0268 9.02626 19.873 9.49994ZM15.957 2.92494C16.9572 2.71179 17.9959 2.76543 18.9688 3.08049C19.9417 3.39555 20.8146 3.96095 21.5 4.71994C22.1858 5.48014 22.6596 6.40738 22.8737 7.40859C23.0879 8.40979 23.0349 9.44971 22.72 10.4239C22.6862 10.5292 22.6319 10.6268 22.5603 10.711C22.4886 10.7953 22.401 10.8645 22.3024 10.9147C22.2039 10.9649 22.0964 10.9951 21.9861 11.0035C21.8759 11.012 21.765 10.9985 21.66 10.9639C21.4474 10.8948 21.271 10.7441 21.1694 10.545C21.0678 10.3459 21.0493 10.1146 21.118 9.90194C21.3418 9.21011 21.3796 8.47155 21.2276 7.76048C21.0756 7.0494 20.7391 6.39086 20.252 5.85102C19.7649 5.31119 19.1442 4.90907 18.4524 4.68507C17.7607 4.46107 17.0221 4.42309 16.311 4.57494C16.0974 4.60884 15.879 4.55959 15.7007 4.43732C15.5223 4.31505 15.3977 4.12907 15.3523 3.91765C15.3069 3.70623 15.3444 3.48547 15.4568 3.3008C15.5693 3.11613 15.7483 2.98162 15.957 2.92494Z" fill="#14151A"/>
</svg>
