<svg width="24" height="24" viewBox="0 0 24 24" fill="none" xmlns="http://www.w3.org/2000/svg">
<path d="M20.194 14.1971C20.194 17.5591 15.664 20.6211 10.268 20.6211C5.318 20.6201 1 18.1891 1 14.5341C1 12.5871 2.18 10.4471 4.24 8.44609C7.072 5.70009 10.469 4.41309 12.098 5.99809C12.596 6.48009 12.821 7.12009 12.817 7.85609C14.792 7.28009 16.467 7.45209 17.3 8.60809C17.749 9.23109 17.832 9.98809 17.626 10.8151C19.137 11.4251 20.194 12.5851 20.194 14.1971ZM15.754 12.1271C15.368 11.7171 15.354 11.2071 15.556 10.7171C15.764 10.2091 15.769 9.90509 15.676 9.77709C15.412 9.40909 14.143 9.41409 12.482 10.0881C12.3191 10.1566 12.148 10.2036 11.973 10.2281C11.629 10.2741 11.302 10.2291 10.99 9.96309C10.571 9.60409 10.516 9.10809 10.668 8.64709C10.883 7.97709 10.848 7.57109 10.705 7.43209C10.519 7.25209 9.928 7.24109 9.046 7.57509C7.977 7.98009 6.748 8.79909 5.632 9.88109C3.925 11.5401 3 13.2181 3 14.5341C3 16.7761 6.276 18.6211 10.268 18.6211C14.688 18.6211 18.194 16.2511 18.194 14.1971C18.194 13.4591 17.557 12.8581 16.521 12.5451C16.127 12.4321 15.985 12.3741 15.754 12.1281V12.1271ZM22.808 10.5101C22.7414 10.7668 22.5756 10.9866 22.347 11.1211C22.1184 11.2555 21.8457 11.2937 21.589 11.2271C21.3323 11.1605 21.1125 10.9947 20.978 10.7661C20.8436 10.5375 20.8054 10.2648 20.872 10.0081C21.0439 9.34881 21.0446 8.65652 20.874 7.99689C20.7034 7.33726 20.3671 6.73214 19.897 6.23893C19.4269 5.74572 18.8387 5.38075 18.188 5.17865C17.5373 4.97654 16.8458 4.944 16.179 5.08409C16.0498 5.1126 15.9162 5.11516 15.7859 5.09164C15.6557 5.06812 15.5314 5.01899 15.4203 4.94708C15.3092 4.87518 15.2135 4.78193 15.1387 4.67276C15.0639 4.56358 15.0115 4.44065 14.9846 4.31107C14.9576 4.1815 14.9567 4.04787 14.9818 3.91793C15.0069 3.78799 15.0575 3.66433 15.1308 3.5541C15.204 3.44388 15.2984 3.34929 15.4085 3.27582C15.5185 3.20235 15.6421 3.15146 15.772 3.12609C16.7717 2.9168 17.8083 2.96618 18.7836 3.26957C19.7589 3.57295 20.6406 4.12028 21.3452 4.85973C22.0498 5.59918 22.554 6.50626 22.81 7.49506C23.066 8.48386 23.0653 9.52163 22.808 10.5101Z" fill="#14151A"/>
</svg>
