<svg width="24" height="24" viewBox="0 0 24 24" fill="none" xmlns="http://www.w3.org/2000/svg">
<path d="M12 17.9999C12.714 17.9999 13.37 18.2499 13.886 18.6659L12 20.9999L10.114 18.6659C10.6474 18.2338 11.3134 17.9986 12 17.9999ZM2.80796 1.39294L20.485 19.0709L19.071 20.4849L13.891 15.3049C13.2811 15.1026 12.6426 14.9996 12 14.9999C10.572 14.9999 9.25996 15.4989 8.22996 16.3319L6.97396 14.7759C8.28802 13.7114 9.90686 13.0929 11.596 13.0099L8.99996 10.4139C7.57213 10.8187 6.24128 11.5089 5.08796 12.4429L3.82996 10.8869C4.90777 10.0142 6.11844 9.31969 7.41596 8.82994L5.13196 6.54494C3.99506 7.08635 2.926 7.76001 1.94696 8.55194L0.688965 6.99694C1.60396 6.25694 2.59196 5.60594 3.64096 5.05494L1.39296 2.80794L2.80796 1.39294ZM14.5 10.2849L12.216 8.00194L12 7.99994C15.095 7.99994 17.937 9.08095 20.17 10.8869L18.912 12.4429C17.6235 11.3991 16.1149 10.6612 14.5 10.2849ZM12 2.99994C16.285 2.99994 20.22 4.49694 23.31 6.99694L22.053 8.55194C19.2093 6.24859 15.6594 4.99433 12 4.99994C11.122 4.99994 10.26 5.06994 9.41996 5.20694L7.72496 3.50994C9.09396 3.17694 10.527 2.99994 12 2.99994Z" fill="#14151A"/>
</svg>
