<svg width="24" height="24" viewBox="0 0 24 24" fill="none" xmlns="http://www.w3.org/2000/svg">
<path d="M20.462 3.22998C20.615 3.22998 20.7691 3.30798 20.8461 3.38498C20.8839 3.45593 20.9036 3.53509 20.9036 3.61548C20.9036 3.69588 20.8839 3.77504 20.8461 3.84598L14.769 14.616L18.615 21.692C18.653 21.7631 18.6729 21.8424 18.6729 21.923C18.6729 22.0036 18.653 22.0829 18.615 22.154C18.5099 22.2501 18.3735 22.3049 18.231 22.308H15.461C15.077 22.308 14.846 22 14.692 21.769L10.769 14.615C11 14.308 16.923 3.76998 16.923 3.76998C17.077 3.46298 17.308 3.23198 17.693 3.23198H20.462V3.22998ZM8.92305 6.99998C9.30805 6.99998 9.53805 7.30798 9.69305 7.53798L11.615 10.846C11.462 11 8.61505 16.076 8.61505 16.076C8.46205 16.308 8.23105 16.616 7.84605 16.616H5.15405C5.01127 16.6131 4.87442 16.5584 4.76905 16.462C4.73106 16.3909 4.71118 16.3116 4.71118 16.231C4.71118 16.1504 4.73106 16.0711 4.76905 16L7.61505 10.846L5.76905 7.61598C5.73106 7.54491 5.71118 7.46557 5.71118 7.38498C5.71118 7.30439 5.73106 7.22505 5.76905 7.15398C5.87442 7.0576 6.01127 7.00286 6.15405 6.99998H8.92405H8.92305Z" fill="#14151A"/>
</svg>
