<svg width="58" height="40" viewBox="0 0 58 40" fill="none" xmlns="http://www.w3.org/2000/svg">
<rect width="58" height="40" rx="6" fill="white"/>
<rect x="0.5" y="0.5" width="57" height="39" rx="5.5" stroke="#2F2B43" stroke-opacity="0.1"/>
<path fill-rule="evenodd" clip-rule="evenodd" d="M41.45 19.8917C41.45 27.1957 35.529 33.1167 28.225 33.1167C20.921 33.1167 15 27.1957 15 19.8917C15 12.5878 20.921 6.66675 28.225 6.66675C35.529 6.66675 41.45 12.5878 41.45 19.8917ZM31.4023 14.9782C33.2419 15.6099 34.5876 16.5559 34.3236 18.3163C34.1318 19.6054 33.4146 20.2288 32.4616 20.4471C33.7691 21.1252 34.2147 22.412 33.8006 23.968C33.0144 26.2071 31.1457 26.3957 28.6602 25.9276L28.0567 28.3347L26.5998 27.9725L27.195 25.5977C26.8173 25.5043 26.4312 25.4042 26.0336 25.2976L25.4359 27.6839L23.9806 27.3218L24.5833 24.9098L21.6487 24.1722L22.3726 22.5102C22.3726 22.5102 23.4468 22.7938 23.4318 22.7731C23.8444 22.8748 24.0279 22.6069 24.1001 22.4291L25.7356 15.896C25.7538 15.5876 25.6467 15.199 25.0565 15.0518C25.0789 15.0361 23.998 14.7897 23.998 14.7897L24.3857 13.2393L27.3245 13.9644L27.9222 11.5797L29.3783 11.9419L28.7931 14.2795C29.1849 14.368 29.5784 14.4581 29.9611 14.5532L30.5422 12.2305L31.9992 12.5927L31.4023 14.9782ZM27.9161 18.9562C28.9085 19.2193 31.0681 19.7918 31.4445 18.2906C31.8285 16.7547 29.7304 16.2909 28.7031 16.0637L28.7031 16.0637C28.5867 16.038 28.484 16.0153 28.4003 15.9944L27.6747 18.8934C27.7438 18.9105 27.8249 18.932 27.9158 18.9561L27.9161 18.9562ZM26.7917 23.6237C27.9804 23.9368 30.5801 24.6216 30.9938 22.9674C31.4172 21.2761 28.8966 20.7127 27.6667 20.4378L27.6665 20.4378L27.6662 20.4377C27.529 20.407 27.4079 20.38 27.3087 20.3553L26.5084 23.5504C26.5898 23.5705 26.685 23.5956 26.7917 23.6237Z" fill="#F7931A"/>
</svg>
