<svg width="58" height="40" viewBox="0 0 58 40" fill="none" xmlns="http://www.w3.org/2000/svg">
<rect width="58" height="40" rx="6" fill="white"/>
<rect x="0.5" y="0.5" width="57" height="39" rx="5.5" stroke="#2F2B43" stroke-opacity="0.1"/>
<path fill-rule="evenodd" clip-rule="evenodd" d="M26.7633 25.8798V20.9887H29.2876C30.3221 20.9887 31.1952 20.6421 31.9069 19.9585L32.0777 19.7852C33.3779 18.3699 33.2925 16.165 31.9069 14.8556C31.2141 14.1624 30.2651 13.7869 29.2876 13.8061H25.2354V25.8798H26.7633ZM26.7634 19.5059V15.2888H29.3262C29.8767 15.2888 30.3987 15.5006 30.7879 15.8857C31.6137 16.6945 31.6327 18.0424 30.8354 18.88C30.4462 19.2941 29.8957 19.5251 29.3262 19.5059H26.7634ZM39.2049 18.2639C38.5501 17.6573 37.658 17.3492 36.5287 17.3492C35.0767 17.3492 33.9853 17.8884 33.2641 18.9571L34.6117 19.814C35.1051 19.0823 35.7789 18.7164 36.6331 18.7164C37.174 18.7164 37.696 18.9186 38.104 19.2845C38.5026 19.6311 38.7304 20.1318 38.7304 20.6613V21.0175C38.142 20.6902 37.4018 20.5169 36.4907 20.5169C35.4278 20.5169 34.5737 20.7672 33.9379 21.2775C33.302 21.7878 32.9794 22.4618 32.9794 23.3187C32.9604 24.0985 33.2925 24.8399 33.8809 25.3406C34.4788 25.8797 35.238 26.1493 36.1301 26.1493C37.1835 26.1493 38.0186 25.6776 38.6545 24.734H38.7209V25.8797H40.1824V20.7865C40.1824 19.7177 39.8597 18.8705 39.2049 18.2639ZM35.0581 24.3585C34.7448 24.1275 34.555 23.752 34.555 23.3476C34.555 22.8951 34.7638 22.5196 35.172 22.2211C35.5896 21.9226 36.1116 21.7686 36.7286 21.7686C37.5828 21.7589 38.2473 21.9515 38.7218 22.3366C38.7218 22.9913 38.4656 23.5594 37.9625 24.0408C37.5069 24.503 36.8899 24.7629 36.2445 24.7629C35.8174 24.7725 35.3998 24.6281 35.0581 24.3585ZM43.466 29.5095L48.5717 17.6188H46.9109L44.5479 23.5497H44.5194L42.0994 17.6188H40.4386L43.7887 25.3502L41.8906 29.5095H43.466Z" fill="#3C4043"/>
<path d="M21.4884 19.9296C21.4884 19.4579 21.4504 18.9861 21.3745 18.5239H14.9307V21.1909H18.6223C18.4705 22.0478 17.977 22.8181 17.2557 23.2995V25.0325H19.4575C20.7481 23.829 21.4884 22.0478 21.4884 19.9296Z" fill="#4285F4"/>
<path d="M14.9308 26.7081C16.7719 26.7081 18.3282 26.0919 19.4576 25.0328L17.2559 23.2997C16.639 23.7233 15.8513 23.964 14.9308 23.964C13.1466 23.964 11.6377 22.7413 11.0968 21.1045H8.82861V22.8953C9.98641 25.235 12.3495 26.7081 14.9308 26.7081Z" fill="#34A853"/>
<path d="M11.097 21.1043C10.8122 20.2474 10.8122 19.3135 11.097 18.447V16.6658H8.82845C7.8508 18.6203 7.8508 20.931 8.82845 22.8855L11.097 21.1043Z" fill="#FBBC04"/>
<path d="M14.9308 15.5875C15.9083 15.5682 16.8478 15.9437 17.5501 16.6273L19.505 14.6439C18.2618 13.4693 16.6295 12.8242 14.9308 12.8434C12.3495 12.8434 9.98641 14.3262 8.82861 16.6658L11.0968 18.4566C11.6377 16.8102 13.1466 15.5875 14.9308 15.5875Z" fill="#EA4335"/>
</svg>
