<svg width="58" height="40" viewBox="0 0 58 40" fill="none" xmlns="http://www.w3.org/2000/svg">
<rect width="58" height="40" rx="6" fill="#5A31F4"/>
<rect x="0.5" y="0.5" width="57" height="39" rx="5.5" stroke="#2F2B43" stroke-opacity="0.1"/>
<path d="M32.1167 18.2895C32.1167 20.783 30.3685 22.563 27.9256 22.563H25.6241C25.5986 22.563 25.5735 22.5681 25.55 22.5778C25.5266 22.5876 25.5053 22.6019 25.4873 22.6199C25.4694 22.6379 25.4552 22.6593 25.4456 22.6828C25.4359 22.7063 25.431 22.7315 25.4312 22.7569V26.0341C25.4312 26.0853 25.4109 26.1345 25.3747 26.1708C25.3386 26.2071 25.2895 26.2277 25.2383 26.2279H23.6278C23.5895 26.2277 23.5521 26.2163 23.5203 26.1949C23.4885 26.1736 23.4636 26.1434 23.4489 26.1081C23.4392 26.0849 23.4341 26.0601 23.4339 26.035V14.2089C23.4338 14.1835 23.4387 14.1583 23.4484 14.1348C23.458 14.1113 23.4722 14.09 23.4901 14.0719C23.508 14.0539 23.5293 14.0396 23.5528 14.0299C23.5763 14.0201 23.6014 14.0151 23.6268 14.0151H27.9359C30.3685 14.0123 32.1167 15.7923 32.1167 18.2895ZM30.1082 18.2895C30.1082 16.856 29.1307 15.8082 27.8048 15.8082H25.6241C25.5986 15.8082 25.5735 15.8132 25.55 15.823C25.5266 15.8327 25.5053 15.847 25.4873 15.865C25.4694 15.8831 25.4552 15.9044 25.4456 15.9279C25.4359 15.9515 25.431 15.9766 25.4312 16.002V20.5658C25.4312 20.617 25.4515 20.666 25.4877 20.7022C25.5238 20.7384 25.5729 20.7587 25.6241 20.7587H27.8048C29.1307 20.7681 30.1082 19.7193 30.1082 18.2895ZM32.5942 23.9591C32.5775 23.5767 32.6566 23.1962 32.8244 22.8521C32.9922 22.508 33.2433 22.2114 33.5549 21.9891C34.1832 21.5162 35.1654 21.2718 36.6074 21.2213L38.143 21.1669V20.7138C38.143 19.8055 37.5344 19.4216 36.5569 19.4216C35.5793 19.4216 34.9594 19.768 34.8171 20.3345C34.8055 20.3744 34.781 20.4092 34.7475 20.4336C34.7139 20.458 34.6732 20.4706 34.6317 20.4694H33.1148C33.0869 20.4701 33.0592 20.4647 33.0336 20.4535C33.0079 20.4424 32.9851 20.4257 32.9667 20.4047C32.9483 20.3836 32.9347 20.3588 32.927 20.332C32.9193 20.3051 32.9175 20.2769 32.922 20.2493C33.1467 18.9066 34.2637 17.886 36.6261 17.886C39.1393 17.886 40.0466 19.0564 40.0466 21.2905V26.0341C40.0461 26.0858 40.0252 26.1353 39.9883 26.1716C39.9515 26.2079 39.9017 26.2282 39.85 26.2279H38.3209C38.2698 26.2278 38.2207 26.2076 38.1842 26.1717C38.1663 26.1538 38.1522 26.1324 38.1425 26.109C38.1329 26.0855 38.128 26.0604 38.128 26.035V25.6801C38.1286 25.6508 38.1203 25.622 38.1041 25.5975C38.088 25.573 38.0648 25.554 38.0376 25.543C38.0105 25.5319 37.9806 25.5293 37.9519 25.5356C37.9233 25.5419 37.8972 25.5567 37.8771 25.5781C37.4183 26.0772 36.6776 26.4376 35.4913 26.4376C33.7459 26.4376 32.5942 25.5294 32.5942 23.9591ZM38.143 22.931V22.563L36.1542 22.6679C35.1065 22.7213 34.4969 23.1567 34.4969 23.8898C34.4969 24.5528 35.0559 24.9198 36.0325 24.9198C37.3593 24.9198 38.143 24.2035 38.143 22.931ZM41.5822 29.8122V28.4377C41.5825 28.4089 41.5892 28.3805 41.6017 28.3545C41.6142 28.3285 41.6322 28.3056 41.6545 28.2874C41.6769 28.2691 41.7029 28.256 41.7309 28.249C41.7589 28.242 41.788 28.2412 41.8163 28.2467C42.0504 28.2907 42.2892 28.3132 42.528 28.3141C42.9384 28.3341 43.3438 28.2157 43.679 27.9781C44.0143 27.7404 44.2602 27.3971 44.3772 27.0032L44.4765 26.6867C44.4909 26.6442 44.4909 26.5981 44.4765 26.5556L41.2901 18.3719C41.2786 18.3423 41.2744 18.3103 41.278 18.2786C41.2816 18.247 41.2928 18.2167 41.3107 18.1904C41.3285 18.1641 41.3525 18.1424 41.3806 18.1274C41.4086 18.1124 41.4399 18.1044 41.4717 18.1041H43.0167C43.0562 18.1046 43.0946 18.1168 43.127 18.1394C43.1594 18.1619 43.1843 18.1937 43.1984 18.2306L45.3623 24.0022C45.3758 24.0406 45.4009 24.0737 45.4341 24.0972C45.4673 24.1207 45.507 24.1333 45.5477 24.1333C45.5883 24.1333 45.628 24.1207 45.6612 24.0972C45.6944 24.0737 45.7195 24.0406 45.7331 24.0022L47.6123 18.2465C47.6253 18.2071 47.6505 18.1729 47.6841 18.1487C47.7177 18.1245 47.7581 18.1115 47.7996 18.1116H49.3979C49.43 18.1118 49.4615 18.1198 49.4897 18.1348C49.518 18.1498 49.5423 18.1714 49.5604 18.1978C49.5785 18.2242 49.59 18.2546 49.5938 18.2864C49.5976 18.3182 49.5937 18.3504 49.5824 18.3804L46.1741 27.4686C45.3894 29.581 44.0439 30.1212 42.5626 30.1212C42.2817 30.1287 42.0008 30.095 41.7292 30.0211C41.6841 30.0091 41.6446 29.9816 41.6177 29.9434C41.5908 29.9052 41.5783 29.8588 41.5822 29.8122ZM13.0845 13.3335C11.0546 13.319 9.09627 14.083 7.61246 15.4683C7.54901 15.5264 7.50945 15.6061 7.50149 15.6918C7.49353 15.7774 7.51773 15.863 7.56939 15.9318L8.48795 17.1865C8.51772 17.2283 8.5563 17.263 8.60094 17.2883C8.64559 17.3136 8.69524 17.3287 8.74638 17.3328C8.79752 17.3368 8.84893 17.3295 8.89697 17.3116C8.94502 17.2936 8.98854 17.2653 9.02447 17.2287C9.55801 16.6953 10.1925 16.2735 10.8909 15.9882C11.5893 15.7028 12.3376 15.5595 13.092 15.5666C16.2418 15.5666 17.887 17.9375 17.887 20.2783C17.887 22.8233 16.1585 24.6136 13.6744 24.6492C11.7549 24.6492 10.3082 23.3767 10.3082 21.696C10.3102 21.2714 10.4064 20.8525 10.5899 20.4696C10.7733 20.0866 11.0395 19.7492 11.3691 19.4815C11.4388 19.4233 11.4828 19.3401 11.4918 19.2497C11.5007 19.1593 11.4738 19.0691 11.4168 18.9984L10.4515 17.7792C10.4223 17.7424 10.386 17.7117 10.3448 17.6891C10.3035 17.6665 10.2582 17.6524 10.2114 17.6476C10.1646 17.6428 10.1173 17.6474 10.0724 17.6612C10.0274 17.6749 9.98566 17.6976 9.94959 17.7277C9.3567 18.2054 8.87826 18.8097 8.54936 19.4964C8.22045 20.183 8.04941 20.9346 8.0488 21.696C8.0488 24.5893 10.5076 26.859 13.6575 26.8777H13.6997C17.4394 26.829 20.1436 24.0593 20.1436 20.2737C20.1436 16.9122 17.6679 13.3335 13.0854 13.3335H13.0845Z" fill="white"/>
</svg>
