<svg width="24" height="24" viewBox="0 0 24 24" fill="none" xmlns="http://www.w3.org/2000/svg">
<g clip-path="url(#clip0_579_32664)">
<path d="M12 24C18.6274 24 24 18.6274 24 12C24 5.37258 18.6274 0 12 0C5.37258 0 0 5.37258 0 12C0 18.6274 5.37258 24 12 24Z" fill="#D80027"/>
<path d="M18.7827 8.90675H14.4362C14.7045 8.62578 14.8697 8.24539 14.8697 7.82619C14.8697 6.96177 14.1689 6.26099 13.3045 6.26099C12.7599 6.26099 12.2805 6.53924 12.0001 6.96116C11.7197 6.53924 11.2403 6.26099 10.6958 6.26099C9.83134 6.26099 9.13056 6.96177 9.13056 7.82619C9.13056 8.24539 9.2957 8.62583 9.56401 8.90675H5.21753C5.21753 10.0594 6.22145 10.9937 7.37397 10.9937H7.3044C7.3044 12.1463 8.23876 13.0807 9.39142 13.0807C9.39142 13.454 9.48981 13.804 9.66156 14.107L7.93047 15.8381L9.25862 17.1662L11.1426 15.2822C11.2164 15.3093 11.2928 15.331 11.3716 15.3457L10.2332 17.9161L12.0001 19.8262L13.7671 17.916L12.6286 15.3456C12.7075 15.3309 12.7838 15.3092 12.8576 15.2821L14.7416 17.1661L16.0697 15.838L14.3386 14.1068C14.5104 13.8039 14.6088 13.4539 14.6088 13.0805C15.7614 13.0805 16.6958 12.1462 16.6958 10.9935H16.6262C17.7788 10.9936 18.7827 10.0594 18.7827 8.90675Z" fill="black"/>
</g>
<defs>
<clipPath id="clip0_579_32664">
<rect width="24" height="24" fill="white"/>
</clipPath>
</defs>
</svg>
