<svg width="24" height="24" viewBox="0 0 24 24" fill="none" xmlns="http://www.w3.org/2000/svg">
<g clip-path="url(#clip0_579_32864)">
<path d="M20.4853 20.4852C15.799 25.1715 8.20104 25.1715 3.51471 20.4852C-1.17157 15.7989 -1.17157 8.20093 3.51471 3.5146C3.5164 3.5146 14.2987 0.32865 18.985 5.01493C23.6713 9.70121 20.4885 20.4819 20.4853 20.4852Z" fill="#FFDA44"/>
<path d="M20.4852 20.4854C25.1715 15.7991 25.1715 8.20106 20.4852 3.51473C15.7989 -1.1716 8.20098 -1.17155 3.51465 3.51473L20.4852 20.4854Z" fill="#D80027"/>
<path d="M15.1367 15.1378C14.6438 15.3314 14.071 15.3108 13.5741 15.032C12.6961 14.5392 12.3827 13.4239 12.8756 12.5458L12.726 12.4619C14.2293 12.0994 15.3415 10.7348 15.322 9.12458C15.3099 8.12348 14.8626 7.22783 14.1629 6.61499L13.0673 7.73746C13.4815 8.06755 13.75 8.5739 13.7569 9.14357C13.7691 10.1504 12.9599 10.9795 11.9531 10.9917L11.9552 11.1631C10.8896 10.0425 9.15187 9.76157 7.76714 10.5836C6.90623 11.0947 6.35432 11.9298 6.17334 12.8422L7.69321 13.2299C7.77201 12.7061 8.07618 12.2204 8.56607 11.9295C9.4319 11.4156 10.5545 11.7019 11.0684 12.5676L11.216 12.4801C10.7783 13.9632 11.4038 15.6086 12.8082 16.3969C13.6813 16.8869 14.6804 16.9473 15.5611 16.6478L15.1367 15.1378ZM11.9657 12.0349L11.9656 12.035L11.9657 12.0349Z" fill="#FF9811"/>
<path d="M16.4432 8.12717L15.595 11.1539L13.0502 10.684L11.4121 7.30737L6.98678 8.87773L6.63779 7.89429L5.47998 7.75165L6.35237 10.2102L9.39779 9.43133L10.2632 11.8702L8.158 14.9771L11.7307 18.0243L11.0535 18.8182L11.5089 19.8923L13.2019 17.9075L11.0047 15.6595L12.6841 13.6906L16.4274 13.9603L17.28 9.34264L18.3062 9.53215L19.0088 8.60075L16.4432 8.12717ZM11.9992 12.0816V12.0817V12.0816Z" fill="#FFEACF"/>
</g>
<defs>
<clipPath id="clip0_579_32864">
<rect width="24" height="24" fill="white"/>
</clipPath>
</defs>
</svg>
