<svg width="24" height="24" viewBox="0 0 24 24" fill="none" xmlns="http://www.w3.org/2000/svg">
<g clip-path="url(#clip0_579_33124)">
<path d="M12 24C18.6274 24 24 18.6274 24 12C24 5.37258 18.6274 0 12 0C5.37258 0 0 5.37258 0 12C0 18.6274 5.37258 24 12 24Z" fill="#6DA544"/>
<path d="M18.4211 17.2173L18.7504 17.9058L19.494 17.734L19.161 18.4208L19.759 18.8949L19.0145 19.0628L19.0166 19.826L18.4211 19.3485L17.8257 19.826L17.8278 19.0628L17.0833 18.8949L17.6812 18.4208L17.3482 17.734L18.0918 17.9058L18.4211 17.2173Z" fill="#FFDA44"/>
<path d="M15.3576 9.91284L15.687 10.6014L16.4306 10.4295L16.0976 11.1163L16.6955 11.5905L15.951 11.7583L15.9531 12.5215L15.3576 12.0441L14.7622 12.5215L14.7642 11.7583L14.0198 11.5905L14.6178 11.1163L14.2847 10.4295L15.0284 10.6014L15.3576 9.91284Z" fill="#FFDA44"/>
<path d="M18.4211 5.73901L18.7504 6.42756L19.494 6.25562L19.161 6.94244L19.759 7.41667L19.0144 7.58444L19.0164 8.3477L18.4211 7.87019L17.8257 8.3477L17.8277 7.58444L17.0833 7.41667L17.6812 6.94244L17.3482 6.25562L18.0918 6.42756L18.4211 5.73901Z" fill="#FFDA44"/>
<path d="M21.0966 8.86938L21.4259 9.55793L22.1696 9.38604L21.8366 10.0729L22.4346 10.547L21.69 10.7149L21.6921 11.4781L21.0966 11.0006L20.5012 11.4781L20.5033 10.7149L19.7588 10.547L20.3568 10.0729L20.0237 9.38604L20.7674 9.55793L21.0966 8.86938Z" fill="#FFDA44"/>
<path d="M19.1833 12.5217L19.4424 13.3189H20.2806L19.6024 13.8116L19.8615 14.6087L19.1833 14.1161L18.5053 14.6087L18.7643 13.8116L18.0862 13.3189H18.9244L19.1833 12.5217Z" fill="#FFDA44"/>
<path d="M13.3042 15.3912C11.4312 15.3912 9.91285 13.8728 9.91285 11.9999C9.91285 10.1269 11.4312 8.60855 13.3042 8.60855C13.8882 8.60855 14.4377 8.75626 14.9174 9.01618C14.1648 8.28015 13.1357 7.82593 11.9998 7.82593C9.69465 7.82593 7.82593 9.69465 7.82593 11.9998C7.82593 14.305 9.69465 16.1737 11.9998 16.1737C13.1356 16.1737 14.1648 15.7195 14.9174 14.9835C14.4377 15.2435 13.8882 15.3912 13.3042 15.3912Z" fill="#FFDA44"/>
<path d="M7.54604 4.69558C7.1851 4.07196 6.51128 3.6521 5.73896 3.6521C4.96665 3.6521 4.29282 4.07196 3.93188 4.69558H7.54604Z" fill="#FFDA44"/>
<path d="M7.55304 4.70752L5.73902 6.52154L3.92501 4.70752C3.75162 5.01179 3.6521 5.36368 3.6521 5.73896C3.6521 6.89157 4.58646 7.82593 5.73907 7.82593C6.89168 7.82593 7.82604 6.89161 7.82604 5.73896C7.82599 5.36368 7.72643 5.01179 7.55304 4.70752Z" fill="#FFDA44"/>
<path d="M5.21729 6V7.76034C5.38402 7.80323 5.55886 7.82606 5.739 7.82606C5.91914 7.82606 6.09399 7.80319 6.26072 7.76034V6H5.21729Z" fill="#A2001D"/>
</g>
<defs>
<clipPath id="clip0_579_33124">
<rect width="24" height="24" fill="white"/>
</clipPath>
</defs>
</svg>
