<svg width="24" height="24" viewBox="0 0 24 24" fill="none" xmlns="http://www.w3.org/2000/svg">
<g clip-path="url(#clip0_579_33205)">
<path d="M12 23.9999C18.6273 23.9999 23.9999 18.6273 23.9999 12C23.9999 5.37256 18.6273 0 12 0C5.37256 0 0 5.37256 0 12C0 18.6273 5.37256 23.9999 12 23.9999Z" fill="#F0F0F0"/>
<path d="M11.9999 0C8.07405 0 4.58871 1.88545 2.39941 4.8H21.6004C19.4111 1.88541 15.9258 0 11.9999 0Z" fill="#0052B4"/>
<path d="M11.9999 24C15.9258 24 19.4111 22.1145 21.6004 19.2H2.39941C4.58866 22.1145 8.07405 24 11.9999 24Z" fill="#0052B4"/>
<path d="M0 11.9999C0 12.8218 0.082875 13.6244 0.240328 14.3999H23.7597C23.9172 13.6244 24 12.8218 24 11.9999C24 11.1779 23.9171 10.3753 23.7597 9.59985H0.240328C0.082875 10.3753 0 11.1779 0 11.9999Z" fill="#0052B4"/>
<path d="M3.51468 3.51489C-1.17156 8.20113 -1.17156 15.7991 3.51468 20.4855C5.45122 18.5489 7.31366 16.6864 11.9999 12.0002L3.51468 3.51489Z" fill="#D80027"/>
<path d="M4.8567 8.86963L5.63361 11.261H8.14826L6.11403 12.739L6.89094 15.1304L4.8567 13.6524L2.82237 15.1304L3.59947 12.739L1.56519 11.261H4.07965L4.8567 8.86963Z" fill="#F0F0F0"/>
</g>
<defs>
<clipPath id="clip0_579_33205">
<rect width="24" height="24" fill="white"/>
</clipPath>
</defs>
</svg>
