<svg width="24" height="24" viewBox="0 0 24 24" fill="none" xmlns="http://www.w3.org/2000/svg">
<g clip-path="url(#clip0_579_33451)">
<path d="M12 24C18.6274 24 24 18.6274 24 12C24 5.37258 18.6274 0 12 0C5.37258 0 0 5.37258 0 12C0 18.6274 5.37258 24 12 24Z" fill="#FFDA44"/>
<path d="M5.23657 2.08697C7.16243 0.770437 9.49109 0 12 0C14.509 0 16.8376 0.770437 18.7635 2.08697L12 2.60869L5.23657 2.08697Z" fill="#A2001D"/>
<path d="M11.9999 12L11.2341 11.2341L11.0308 11.5984L11.9999 12Z" fill="#0052B4"/>
<path d="M3.51471 3.51465C-1.17157 8.20093 -1.17157 15.7989 3.51471 20.4853C5.45126 18.5487 7.31374 16.6862 12 12L3.51471 3.51465Z" fill="#496E2D"/>
<path d="M20.4853 3.51465C25.1716 8.20093 25.1716 15.7989 20.4853 20.4853C18.5488 18.5487 16.6863 16.6862 12 12L20.4853 3.51465Z" fill="#496E2D"/>
<path d="M12.0001 16.174C14.3052 16.174 16.174 14.3052 16.174 12.0001C16.174 9.69489 14.3052 7.82617 12.0001 7.82617C9.69489 7.82617 7.82617 9.69489 7.82617 12.0001C7.82617 14.3052 9.69489 16.174 12.0001 16.174Z" fill="#A2001D"/>
<path d="M11.9999 7.82617L12.9355 10.7057H15.9635L13.5139 12.4856L14.4495 15.3653L11.9999 13.5856L9.5502 15.3653L10.486 12.4856L8.03638 10.7057H11.0642L11.9999 7.82617Z" fill="#FFDA44"/>
<path d="M12.0041 0H11.9961C8.68419 0.00107812 5.68602 1.34372 3.51538 3.51413H20.4847C18.3141 1.34372 15.3159 0.00107812 12.0041 0Z" fill="#A2001D"/>
<path d="M3.51538 20.4858C5.68691 22.657 8.68663 23.9999 12 23.9999C15.3133 23.9999 18.3131 22.657 20.4846 20.4858H3.51538Z" fill="#A2001D"/>
<path d="M11.9999 1.30444L12.1942 1.90229H12.8228L12.3142 2.2718L12.5085 2.86965L11.9999 2.50018L11.4913 2.86965L11.6856 2.2718L11.177 1.90229H11.8056L11.9999 1.30444Z" fill="#FFDA44"/>
<path d="M9.09022 1.30444L9.28452 1.90229H9.91312L9.40457 2.2718L9.59887 2.86965L9.09022 2.50018L8.58172 2.86965L8.77597 2.2718L8.26733 1.90229H8.89593L9.09022 1.30444Z" fill="#FFDA44"/>
<path d="M14.9098 1.30444L15.1041 1.90229H15.7327L15.2241 2.2718L15.4184 2.86965L14.9098 2.50018L14.4013 2.86965L14.5956 2.2718L14.0869 1.90229H14.7155L14.9098 1.30444Z" fill="#FFDA44"/>
<path d="M11.9999 21.1306L12.1942 21.7285H12.8228L12.3142 22.098L12.5085 22.6958L11.9999 22.3263L11.4913 22.6958L11.6856 22.098L11.177 21.7285H11.8056L11.9999 21.1306Z" fill="#FFDA44"/>
<path d="M9.09022 21.1306L9.28452 21.7285H9.91312L9.40457 22.098L9.59887 22.6958L9.09022 22.3263L8.58172 22.6958L8.77597 22.098L8.26733 21.7285H8.89593L9.09022 21.1306Z" fill="#FFDA44"/>
<path d="M14.9098 21.1306L15.1041 21.7285H15.7327L15.2241 22.098L15.4184 22.6958L14.9098 22.3263L14.4013 22.6958L14.5956 22.098L14.0869 21.7285H14.7155L14.9098 21.1306Z" fill="#FFDA44"/>
<path d="M3.65639 11.8019C3.96459 12.2889 3.81975 12.9335 3.33277 13.2417C2.84583 13.55 2.2012 13.4051 1.89295 12.9182C1.33491 12.0365 1.65848 10.5967 1.65848 10.5967C1.65848 10.5967 3.0983 10.9203 3.65639 11.8019Z" fill="#FFDA44"/>
<path d="M3.0537 13.3225C3.34184 13.3225 3.57542 13.0889 3.57542 12.8008C3.57542 12.5126 3.34184 12.2791 3.0537 12.2791C2.76556 12.2791 2.53198 12.5126 2.53198 12.8008C2.53198 13.0889 2.76556 13.3225 3.0537 13.3225Z" fill="#A2001D"/>
</g>
<defs>
<clipPath id="clip0_579_33451">
<rect width="24" height="24" fill="white"/>
</clipPath>
</defs>
</svg>
