<svg width="24" height="24" viewBox="0 0 24 24" fill="none" xmlns="http://www.w3.org/2000/svg">
<g clip-path="url(#clip0_579_33485)">
<path d="M12 24C18.6274 24 24 18.6274 24 12C24 5.37258 18.6274 0 12 0C5.37258 0 0 5.37258 0 12C0 18.6274 5.37258 24 12 24Z" fill="#F0F0F0"/>
<path d="M23.9999 12C23.9999 7.24242 21.2312 3.13167 17.2173 1.19067V22.8092C21.2312 20.8682 23.9999 16.7574 23.9999 12Z" fill="#338AF3"/>
<path d="M0 12C0 16.7574 2.76867 20.8682 6.78263 22.8092V1.19067C2.76867 3.13167 0 7.24242 0 12Z" fill="#338AF3"/>
<path d="M15.1357 14.0292L13.1067 12.0002L15.0381 10.0687L14.9506 9.04864L14.3977 8.49561L11.9999 10.8934L9.60215 8.49561L9.04922 9.04864L8.9617 10.0687L10.8931 12.0002L8.86401 14.0292L9.97083 15.136L11.9999 13.107L14.029 15.136L15.1357 14.0292Z" fill="#ACABB1"/>
<path d="M14.9515 9.04858L13.8447 10.1553C14.3168 10.6274 14.6088 11.2796 14.6088 12C14.6088 13.4407 13.4408 14.6087 12.0001 14.6087C10.5594 14.6087 9.39138 13.4407 9.39138 12C9.39138 11.2796 9.68341 10.6274 10.1555 10.1553L9.04872 9.04858C8.29333 9.80383 7.82617 10.8473 7.82617 12C7.82617 14.3052 9.69489 16.1739 12.0001 16.1739C14.3052 16.1739 16.174 14.3051 16.174 12C16.174 10.8474 15.7068 9.80388 14.9515 9.04858Z" fill="#6DA544"/>
</g>
<defs>
<clipPath id="clip0_579_33485">
<rect width="24" height="24" fill="white"/>
</clipPath>
</defs>
</svg>
