<svg width="24" height="24" viewBox="0 0 24 24" fill="none" xmlns="http://www.w3.org/2000/svg">
<g clip-path="url(#clip0_579_33561)">
<path d="M12 24C18.6274 24 24 18.6274 24 12C24 5.37258 18.6274 0 12 0C5.37258 0 0 5.37258 0 12C0 18.6274 5.37258 24 12 24Z" fill="#F0F0F0"/>
<path d="M12 0C7.24242 0 3.13167 2.76867 1.19067 6.78263H22.8092C20.8682 2.76867 16.7574 0 12 0Z" fill="#FF9811"/>
<path d="M12 23.9999C16.7574 23.9999 20.8682 21.2312 22.8092 17.2173H1.19067C3.13167 21.2312 7.24242 23.9999 12 23.9999Z" fill="#6DA544"/>
<path d="M12.0001 16.174C14.3052 16.174 16.174 14.3052 16.174 12.0001C16.174 9.69489 14.3052 7.82617 12.0001 7.82617C9.69489 7.82617 7.82617 9.69489 7.82617 12.0001C7.82617 14.3052 9.69489 16.174 12.0001 16.174Z" fill="#0052B4"/>
<path d="M12 14.6087C13.4408 14.6087 14.6087 13.4408 14.6087 12C14.6087 10.5593 13.4408 9.39136 12 9.39136C10.5593 9.39136 9.39136 10.5593 9.39136 12C9.39136 13.4408 10.5593 14.6087 12 14.6087Z" fill="#F0F0F0"/>
<path d="M12 8.78101L12.8048 10.6062L14.7878 10.3906L13.6095 12.0001L14.7878 13.6096L12.8048 13.394L12 15.2192L11.1952 13.394L9.21216 13.6096L10.3904 12.0001L9.21216 10.3906L11.1952 10.6062L12 8.78101Z" fill="#0052B4"/>
</g>
<defs>
<clipPath id="clip0_579_33561">
<rect width="24" height="24" fill="white"/>
</clipPath>
</defs>
</svg>
