<svg width="24" height="24" viewBox="0 0 24 24" fill="none" xmlns="http://www.w3.org/2000/svg">
<g clip-path="url(#clip0_579_33724)">
<path d="M24 12C24 18.6274 18.6274 24 12 24C5.37262 24 0 18.6274 0 12C0.521719 12 12 10.4348 12 10.4348L24 12Z" fill="#D80027"/>
<path d="M0 12C0 5.37262 5.37262 0 12 0C18.6274 0 24 5.37262 24 12" fill="#0052B4"/>
<path d="M8.8695 8.34773C8.8695 7.48331 8.16872 6.78253 7.3043 6.78253C6.90328 6.78253 6.5378 6.93346 6.26081 7.18138V6.26076H6.78253V5.21728H6.26081V4.69556H5.21733V5.21728H4.69561V6.26076H5.21733V7.18138C4.94035 6.93346 4.57486 6.78253 4.17385 6.78253C3.30942 6.78253 2.60864 7.48331 2.60864 8.34773C2.60864 8.81118 2.81025 9.22743 3.13036 9.51407V10.4347H8.34774V9.51407C8.66794 9.22743 8.8695 8.81118 8.8695 8.34773Z" fill="#FFDA44"/>
</g>
<defs>
<clipPath id="clip0_579_33724">
<rect width="24" height="24" fill="white"/>
</clipPath>
</defs>
</svg>
