<svg width="24" height="24" viewBox="0 0 24 24" fill="none" xmlns="http://www.w3.org/2000/svg">
<g clip-path="url(#clip0_579_33792)">
<path d="M12 24C18.6274 24 24 18.6274 24 12C24 5.37258 18.6274 0 12 0C5.37258 0 0 5.37258 0 12C0 18.6274 5.37258 24 12 24Z" fill="#F0F0F0"/>
<path d="M23.8971 10.4347C23.5661 7.90414 22.4294 5.45886 20.4852 3.51472C18.5411 1.57058 16.0958 0.433814 13.5652 0.102783L13.5652 10.4347H23.8971Z" fill="#0052B4"/>
<path d="M10.4347 0.102783C7.90414 0.433814 5.45881 1.57053 3.51467 3.51467C1.57058 5.45886 0.433814 7.90419 0.102783 10.4348L10.4348 10.4348L10.4347 0.102783Z" fill="#0052B4"/>
<path d="M0.102783 13.5652C0.433814 16.0958 1.57058 18.5412 3.51467 20.4852C5.45881 22.4293 7.9041 23.5661 10.4348 23.8972L10.4347 13.5653L0.102783 13.5652Z" fill="#0052B4"/>
<path d="M13.5652 23.8971C16.0958 23.5661 18.5411 22.4293 20.4852 20.4852C22.4293 18.5411 23.5661 16.0958 23.8971 13.5652H13.5652V23.8971Z" fill="#0052B4"/>
<path d="M16.0966 7.61422C16.0966 7.45466 16.2263 7.32496 16.3859 7.32496H17.0057C17.9856 7.32496 18.7828 6.5278 18.7828 5.54797C18.7828 4.56814 17.9857 3.77094 17.0057 3.77094H16.4171C16.2249 3.62661 15.9672 3.5376 15.6828 3.5376C15.0897 3.5376 14.6089 3.92221 14.6089 4.39668C14.6089 4.86655 15.0805 5.24774 15.6657 5.25514L15.6654 5.25857H17.0057C17.1654 5.25857 17.2951 5.38832 17.2951 5.54788C17.2951 5.70744 17.1654 5.83714 17.0057 5.83714H16.3859C15.406 5.83714 14.6089 6.6343 14.6089 7.61413C14.6089 8.59396 15.4059 9.39116 16.3859 9.39116H18.7828V7.90344H16.3859C16.2263 7.90349 16.0966 7.77379 16.0966 7.61422Z" fill="#F0F0F0"/>
<path d="M6.70515 7.61422C6.70515 7.45466 6.83486 7.32496 6.99447 7.32496H7.61434C8.59422 7.32496 9.39142 6.5278 9.39142 5.54797C9.39142 4.56814 8.59426 3.77094 7.61434 3.77094H7.02569C6.83355 3.62661 6.57578 3.5376 6.29144 3.5376C5.69833 3.5376 5.21753 3.92221 5.21753 4.39668C5.21753 4.86655 5.68914 5.24774 6.27433 5.25514L6.27404 5.25857H7.61439C7.774 5.25857 7.9037 5.38832 7.9037 5.54788C7.9037 5.70744 7.774 5.83714 7.61439 5.83714H6.99451C6.01464 5.83714 5.21753 6.6343 5.21753 7.61413C5.21753 8.59396 6.01459 9.39116 6.99451 9.39116H9.39137V7.90344H6.99447C6.83486 7.90349 6.70515 7.77379 6.70515 7.61422Z" fill="#F0F0F0"/>
<path d="M16.0964 18.6853C16.0964 18.5257 16.2261 18.396 16.3857 18.396H17.0055C17.9854 18.396 18.7826 17.5988 18.7826 16.619C18.7826 15.6392 17.9855 14.842 17.0055 14.842H16.4169C16.2248 14.6977 15.967 14.6086 15.6826 14.6086C15.0895 14.6086 14.6087 14.9933 14.6087 15.4677C14.6087 15.9376 15.0803 16.3188 15.6655 16.3262L15.6652 16.3296H17.0055C17.1651 16.3296 17.2948 16.4594 17.2948 16.6189C17.2948 16.7785 17.1651 16.9082 17.0055 16.9082H16.3856C15.4058 16.9082 14.6086 17.7053 14.6086 18.6852C14.6086 19.665 15.4057 20.4622 16.3856 20.4622H18.7826V18.9745H16.3857C16.2261 18.9746 16.0964 18.8448 16.0964 18.6853Z" fill="#F0F0F0"/>
<path d="M6.7052 18.6853C6.7052 18.5257 6.8349 18.396 6.99451 18.396H7.61439C8.59426 18.396 9.39147 17.5988 9.39147 16.619C9.39147 15.6392 8.59431 14.842 7.61439 14.842H7.02573C6.83359 14.6977 6.57583 14.6086 6.29148 14.6086C5.69833 14.6086 5.21753 14.9933 5.21753 15.4677C5.21753 15.9376 5.68914 16.3188 6.27433 16.3262L6.27404 16.3296H7.61439C7.774 16.3296 7.9037 16.4594 7.9037 16.6189C7.9037 16.7785 7.774 16.9082 7.61439 16.9082H6.99451C6.01464 16.9082 5.21753 17.7053 5.21753 18.6852C5.21753 19.665 6.01459 20.4622 6.99451 20.4622H9.39142V18.9745H6.99451C6.8349 18.9746 6.7052 18.8448 6.7052 18.6853Z" fill="#F0F0F0"/>
</g>
<defs>
<clipPath id="clip0_579_33792">
<rect width="24" height="24" fill="white"/>
</clipPath>
</defs>
</svg>
