<svg width="24" height="24" viewBox="0 0 24 24" fill="none" xmlns="http://www.w3.org/2000/svg">
<g clip-path="url(#clip0_579_33907)">
<path d="M12 24C18.6274 24 24 18.6274 24 12C24 5.37258 18.6274 0 12 0C5.37258 0 0 5.37258 0 12C0 18.6274 5.37258 24 12 24Z" fill="#F0F0F0"/>
<path d="M3.51451 20.4853C4.0179 20.9887 4.55499 21.4376 5.11838 21.8328L21.8326 5.11863C21.4374 4.55524 20.9884 4.01814 20.485 3.51475C19.9816 3.01136 19.4445 2.56249 18.8811 2.16724L2.16699 18.8815C2.5622 19.4448 3.01112 19.9819 3.51451 20.4853Z" fill="#A2001D"/>
<path d="M3.51477 3.51465C-0.271044 7.30047 -0.997794 12.986 1.33297 17.5021L17.5021 1.33295C12.9861 -0.997814 7.30049 -0.27097 3.51477 3.51465Z" fill="#0052B4"/>
<path d="M20.4854 20.4852C24.2711 16.6995 24.9979 11.0139 22.6672 6.4978L6.49805 22.667C11.014 24.9977 16.6996 24.271 20.4854 20.4852Z" fill="#496E2D"/>
<path d="M9.91307 6.78255L8.56842 7.41504L9.28448 8.71732L7.82437 8.43804L7.63931 9.91296L6.62231 8.82813L5.60526 9.91296L5.42029 8.43804L3.96014 8.71727L4.67615 7.41499L3.33154 6.78255L4.6762 6.15002L3.96014 4.84783L5.42025 5.12712L5.60531 3.6521L6.62231 4.73697L7.63936 3.6521L7.82437 5.12712L9.28448 4.84783L8.56851 6.15007L9.91307 6.78255Z" fill="#FFDA44"/>
</g>
<defs>
<clipPath id="clip0_579_33907">
<rect width="24" height="24" fill="white"/>
</clipPath>
</defs>
</svg>
