<svg width="24" height="24" viewBox="0 0 24 24" fill="none" xmlns="http://www.w3.org/2000/svg">
<g clip-path="url(#clip0_579_33933)">
<path d="M12 24C18.6274 24 24 18.6274 24 12C24 5.37258 18.6274 0 12 0C5.37258 0 0 5.37258 0 12C0 18.6274 5.37258 24 12 24Z" fill="#F0F0F0"/>
<path d="M23.9295 13.3046L23.9292 13.3042L23.9292 13.3046H23.9295Z" fill="#0052B4"/>
<path d="M23.9292 13.3045C23.9292 13.3044 23.9293 13.3043 23.9293 13.3041L10.7693 0.0625C10.1757 0.123016 9.59475 0.226797 9.02986 0.370656C3.83897 1.6923 0 12.0001 0 12.0001C0 12.0001 16.7999 23.2424 18.7165 21.9453C19.1 21.6858 19.4677 21.4047 19.8177 21.1038L12.0185 13.3045H23.9292Z" fill="#0052B4"/>
<path d="M20.8695 12.0001L9.19898 0.32959C3.92287 1.59132 0 6.33723 0 12.0001C0 18.6275 5.37262 24.0001 12 24.0001C14.5139 24.0001 16.8467 23.2266 18.7748 21.9053L8.86955 12.0001H20.8695Z" fill="#D80027"/>
<path d="M11.4128 17.7183L9.94728 17.029L10.7277 15.6097L9.1363 15.9141L8.93464 14.3064L7.82619 15.4888L6.71774 14.3064L6.51603 15.9141L4.92467 15.6096L5.7051 17.029L4.2395 17.7183L5.7051 18.4076L4.92467 19.827L6.51613 19.5226L6.71769 21.1302L7.82619 19.9478L8.93464 21.1302L9.1363 19.5226L10.7277 19.8271L9.94724 18.4077L11.4128 17.7183Z" fill="#F0F0F0"/>
<path d="M10.435 6.65539L9.36901 6.15406L9.93662 5.12173L8.77914 5.34317L8.63247 4.17383L7.82626 5.03384L7.02006 4.17383L6.87334 5.34317L5.71586 5.12173L6.28351 6.15406L5.21753 6.65539L7.82626 7.1772L10.435 6.65539Z" fill="#F0F0F0"/>
<path d="M10.9567 6.65527C10.9567 8.38416 9.55514 9.78573 7.82625 9.78573C6.09736 9.78573 4.6958 8.38416 4.6958 6.65527" fill="#F0F0F0"/>
</g>
<defs>
<clipPath id="clip0_579_33933">
<rect width="24" height="24" fill="white"/>
</clipPath>
</defs>
</svg>
