<svg width="24" height="24" viewBox="0 0 24 24" fill="none" xmlns="http://www.w3.org/2000/svg">
<g clip-path="url(#clip0_579_34509)">
<path d="M12 24C18.6274 24 24 18.6274 24 12C24 5.37258 18.6274 0 12 0C5.37258 0 0 5.37258 0 12C0 18.6274 5.37258 24 12 24Z" fill="#FFDA44"/>
<path d="M19.3043 5.73914C19.1967 6.25641 19.1478 6.80733 19.1478 7.35652C19.1478 10.5222 21.035 13.2621 23.7394 14.4955C23.9097 13.6904 24 12.8558 24 12C24 5.37262 18.6274 0 12 0C5.37262 0 0 5.37262 0 12C0 18.6274 5.37262 24 12 24C16.1101 24 19.7371 21.9332 21.8998 18.7826H6.78263V17.2174H22.8093C22.9733 16.8782 23.1215 16.53 23.2537 16.1739H6.78263L19.3043 5.73914Z" fill="#0052B4"/>
<path d="M8.81595 6.26074L9.07499 7.0579H9.91311L9.23506 7.5506L9.49409 8.34771L8.81595 7.8551L8.13791 8.34771L8.39689 7.5506L7.71875 7.0579H8.55692L8.81595 6.26074Z" fill="#F0F0F0"/>
<path d="M5.41146 12L5.73527 12.9965H6.78293L5.93529 13.6122L6.2591 14.6087L5.41146 13.9928L4.56387 14.6087L4.88763 13.6122L4.04004 12.9965H5.0877L5.41146 12Z" fill="#F0F0F0"/>
<path d="M5.41146 3.6521L5.73527 4.64861H6.78293L5.93529 5.26432L6.2591 6.26079L5.41146 5.64494L4.56387 6.26079L4.88763 5.26432L4.04004 4.64861H5.0877L5.41146 3.6521Z" fill="#F0F0F0"/>
<path d="M2.80257 8.34766L3.12639 9.34417H4.174L3.3264 9.95987L3.65021 10.9563L2.80257 10.3405L1.95498 10.9563L2.27875 9.95987L1.43115 9.34417H2.47876L2.80257 8.34766Z" fill="#F0F0F0"/>
</g>
<defs>
<clipPath id="clip0_579_34509">
<rect width="24" height="24" fill="white"/>
</clipPath>
</defs>
</svg>
